<?xml version="1.0" encoding="utf-8"?>
<!-- Generator: Adobe Illustrator 17.0.0, SVG Export Plug-In . SVG Version: 6.00 Build 0)  -->
<!DOCTYPE svg PUBLIC "-//W3C//DTD SVG 1.1//EN" "http://www.w3.org/Graphics/SVG/1.1/DTD/svg11.dtd">
<svg version="1.1" id="Laag_1" xmlns="http://www.w3.org/2000/svg" xmlns:xlink="http://www.w3.org/1999/xlink" x="0px" y="0px"
	 width="726px" height="231.15px" viewBox="0 0 726 231.15" enable-background="new 0 0 726 231.15" xml:space="preserve">
<rect x="-1436.408" y="126" fill="#FFFFFF" width="487" height="75"/>
<g>
	<rect x="-1425.602" y="145.451" fill="none" width="468.075" height="35.003"/>
	<path fill="#1D1D1B" d="M-1387.305,146.985v30.02c0,0.264-0.051,0.438-0.154,0.526s-0.446,0.14-1.031,0.154
		c-0.585,0.015-1.39,0.021-2.414,0.021l0.131-10.753c0.059-1.901,0.19-4.315,0.395-7.241c0.205-2.926,0.351-4.916,0.439-5.969
		l-0.746,2.633c-1.141,4.214-1.858,6.715-2.15,7.505l-2.326,6.759c-0.088,0.235-0.249,0.352-0.483,0.352h-1.536l-2.282-7.11
		c-0.38-1.141-1.316-4.446-2.809-9.918l-0.044,0.044c0.088,0.907,0.234,2.779,0.439,5.617c0.204,2.839,0.321,5.223,0.351,7.154
		l0.088,10.226c0,0.264-0.066,0.438-0.198,0.526c-0.131,0.088-0.476,0.14-1.031,0.154c-0.556,0.015-1.302,0.021-2.238,0.021v-30.02
		c0-0.292,0.058-0.482,0.175-0.57c0.117-0.088,0.292-0.132,0.527-0.132h2.545l4.213,13.342c0.322,0.995,0.614,1.968,0.878,2.919
		c0.263,0.951,0.439,1.602,0.526,1.953c0.088-0.352,0.256-0.995,0.505-1.932c0.248-0.936,0.505-1.872,0.768-2.809l3.906-12.771
		c0.087-0.264,0.175-0.446,0.263-0.549c0.088-0.102,0.234-0.153,0.439-0.153H-1387.305z"/>
	<path fill="#1D1D1B" d="M-1353.686,177.619c-0.205,0.116-0.644,0.176-1.316,0.176c-0.79,0-1.492-0.029-2.107-0.088l-1.843-7.812
		h-7.636l-1.712,7.198c-0.088,0.263-0.227,0.446-0.417,0.549c-0.19,0.102-0.607,0.153-1.25,0.153c-0.615,0-1.346-0.044-2.195-0.132
		l7.856-30.195c0.087-0.409,0.526-0.614,1.316-0.614c0.673,0,1.229,0.044,1.668,0.132l7.856,30.063
		C-1353.408,177.312-1353.481,177.503-1353.686,177.619z M-1359.743,166.691l-1.492-6.32c-0.849-3.569-1.36-6.393-1.536-8.471
		c-0.322,2.604-0.849,5.428-1.58,8.471l-1.492,6.32H-1359.743z"/>
	<path fill="#1D1D1B" d="M-1323.754,147.6c0,0.117-0.044,0.249-0.132,0.396l-7.11,12.244c3.511,2.663,5.866,8.223,7.066,16.678
		c0.029,0.352-0.051,0.586-0.241,0.702c-0.191,0.116-0.593,0.176-1.207,0.176c-0.761,0-1.58-0.044-2.458-0.132
		c-0.703-3.716-1.42-6.649-2.151-8.8c-0.731-2.15-1.683-3.854-2.853-5.112c-0.381-0.439-0.966-0.834-1.755-1.186v14.439
		c0,0.264-0.052,0.438-0.154,0.526c-0.103,0.088-0.446,0.14-1.031,0.154c-0.586,0.015-1.39,0.021-2.414,0.021v-30.02
		c0-0.264,0.051-0.438,0.154-0.526c0.102-0.088,0.446-0.139,1.031-0.154c0.585-0.014,1.389-0.021,2.414-0.021v13.254l7.022-13.034
		c0.848-0.176,1.594-0.264,2.238-0.264C-1324.281,146.941-1323.754,147.161-1323.754,147.6z"/>
	<path fill="#1D1D1B" d="M-1304.312,174.503h7.549c0,0.85-0.007,1.536-0.022,2.063c-0.015,0.526-0.073,0.849-0.175,0.965
		c-0.103,0.117-0.271,0.176-0.505,0.176h-10.357v-30.02c0-0.116,0.044-0.264,0.131-0.438c0.088-0.176,0.278-0.264,0.571-0.264
		h10.533c0,0.819-0.008,1.492-0.022,2.019c-0.015,0.526-0.066,0.856-0.154,0.987c-0.087,0.132-0.249,0.198-0.482,0.198h-7.066v9.172
		h6.627c0,0.79-0.008,1.448-0.022,1.976c-0.015,0.526-0.066,0.871-0.154,1.031c-0.088,0.161-0.249,0.241-0.482,0.241h-5.969V174.503
		z"/>
	<path fill="#1D1D1B" d="M-1281.424,164.387c0.073-0.395,0.286-0.592,0.637-0.592h8.207c0,1.229-0.037,2.048-0.11,2.457
		c-0.073,0.41-0.271,0.614-0.592,0.614h-8.251C-1281.533,165.609-1281.497,164.782-1281.424,164.387z"/>
	<path fill="#1D1D1B" d="M-1253.028,176.917c-1.156-0.818-1.917-1.894-2.282-3.226c-0.366-1.331-0.548-2.991-0.548-4.981v-20.979
		c0-0.264,0.051-0.439,0.153-0.526c0.103-0.088,0.454-0.146,1.054-0.176c0.599-0.029,1.411-0.044,2.436-0.044v21.856
		c0,2.019,0.278,3.526,0.834,4.521c0.556,0.995,1.697,1.492,3.423,1.492c0.731,0,1.462-0.073,2.194-0.22
		c0.731-0.146,1.287-0.321,1.668-0.526v-26.377c0-0.264,0.058-0.439,0.175-0.526c0.117-0.088,0.468-0.146,1.053-0.176
		c0.585-0.029,1.375-0.044,2.37-0.044v29.581c-0.614,0.409-1.617,0.775-3.006,1.097c-1.39,0.321-2.875,0.482-4.455,0.482
		C-1250.183,178.146-1251.872,177.735-1253.028,176.917z"/>
	<path fill="#1D1D1B" d="M-1212.343,149.048c1.302,1.376,1.953,3.57,1.953,6.583c0,3.395-0.739,5.845-2.216,7.352
		c-1.478,1.508-3.417,2.261-5.815,2.261h-1.58v11.762c0,0.264-0.052,0.438-0.154,0.526c-0.103,0.088-0.446,0.14-1.031,0.154
		c-0.586,0.015-1.361,0.021-2.326,0.021v-30.02c0-0.264,0.051-0.446,0.153-0.549c0.103-0.102,0.286-0.153,0.549-0.153h4.345
		C-1215.686,146.985-1213.646,147.673-1212.343,149.048z M-1215.218,160.394c0.614-1.039,0.921-2.758,0.921-5.157
		c0-1.668-0.271-2.94-0.812-3.818c-0.542-0.878-1.442-1.316-2.699-1.316h-2.194v11.85h1.931
		C-1216.784,161.951-1215.833,161.432-1215.218,160.394z"/>
	<path fill="#1D1D1B" d="M-1113.749,177.619c-0.205,0.116-0.644,0.176-1.316,0.176c-0.79,0-1.492-0.029-2.107-0.088l-1.843-7.812
		h-7.636l-1.712,7.198c-0.088,0.263-0.227,0.446-0.417,0.549c-0.19,0.102-0.607,0.153-1.25,0.153c-0.615,0-1.346-0.044-2.195-0.132
		l7.856-30.195c0.087-0.409,0.526-0.614,1.316-0.614c0.673,0,1.229,0.044,1.668,0.132l7.856,30.063
		C-1113.471,177.312-1113.544,177.503-1113.749,177.619z M-1119.806,166.691l-1.492-6.32c-0.849-3.569-1.36-6.393-1.536-8.471
		c-0.322,2.604-0.849,5.428-1.58,8.471l-1.492,6.32H-1119.806z"/>
	<path fill="#1D1D1B" d="M-1086.253,169.28c0.805,2.106,1.309,4.652,1.514,7.637c0,0.352-0.103,0.586-0.307,0.702
		c-0.205,0.116-0.702,0.176-1.492,0.176c-0.322,0-1.009-0.029-2.063-0.088c-0.205-3.218-0.666-5.844-1.382-7.878
		c-0.717-2.033-1.456-3.577-2.216-4.63c-0.205,0.029-0.498,0.044-0.878,0.044h-1.58v11.762c0,0.264-0.052,0.438-0.154,0.526
		c-0.103,0.088-0.446,0.14-1.031,0.154c-0.586,0.015-1.361,0.021-2.326,0.021v-30.02c0-0.116,0.044-0.264,0.132-0.438
		c0.087-0.176,0.277-0.264,0.57-0.264h4.345c2.78,0,4.82,0.688,6.123,2.062c1.302,1.376,1.953,3.57,1.953,6.583
		c0,4.302-1.273,7.184-3.818,8.646C-1087.928,165.506-1087.058,167.174-1086.253,169.28z M-1092.727,161.951
		c1.287,0,2.238-0.505,2.853-1.515c0.614-1.009,0.921-2.655,0.921-4.937c0-1.785-0.271-3.131-0.812-4.038
		c-0.542-0.906-1.442-1.36-2.699-1.36h-2.194v11.85H-1092.727z"/>
	<path fill="#1D1D1B" d="M-1055.158,146.985v2.589c0,0.293-0.059,0.49-0.175,0.593c-0.117,0.103-0.307,0.153-0.571,0.153h-5.398
		v26.685c0,0.264-0.059,0.438-0.176,0.526c-0.117,0.088-0.468,0.14-1.053,0.154c-0.585,0.015-1.36,0.021-2.326,0.021V150.32h-5.969
		v-2.633c0-0.468,0.248-0.702,0.746-0.702H-1055.158z"/>
	<path fill="#1D1D1B" d="M-1039.71,148.609c0-0.585,0.058-0.98,0.175-1.186c0.117-0.204,0.388-0.329,0.812-0.373
		c0.424-0.044,1.295-0.065,2.611-0.065v30.02c0,0.264-0.059,0.438-0.175,0.526c-0.117,0.088-0.468,0.14-1.053,0.154
		c-0.586,0.015-1.376,0.021-2.37,0.021V148.609z"/>
	<path fill="#1D1D1B" d="M-1018.447,177.355c-1.009-0.526-1.514-1.126-1.514-1.799c0-0.38,0.08-0.805,0.241-1.272
		c0.161-0.468,0.388-0.893,0.681-1.273c1.141,1.024,2.647,1.536,4.521,1.536c2.896,0,4.345-1.492,4.345-4.477
		c0-1.053-0.19-1.997-0.57-2.831c-0.381-0.833-1.054-1.821-2.019-2.962l-4.389-5.135c-0.995-1.199-1.705-2.289-2.129-3.27
		c-0.424-0.98-0.636-1.997-0.636-3.051c0-1.901,0.665-3.423,1.997-4.564c1.331-1.141,3.182-1.712,5.552-1.712
		c1.96,0,3.408,0.198,4.345,0.593c0.936,0.396,1.405,0.93,1.405,1.603c0,0.731-0.293,1.404-0.878,2.019
		c-0.322-0.264-0.885-0.505-1.69-0.725c-0.805-0.219-1.675-0.329-2.611-0.329c-1.316,0-2.363,0.264-3.138,0.79
		c-0.776,0.526-1.163,1.272-1.163,2.238c0,0.762,0.16,1.456,0.483,2.085c0.321,0.63,0.833,1.383,1.536,2.26l4.784,5.398
		c1.111,1.317,1.879,2.531,2.304,3.643c0.424,1.112,0.636,2.37,0.636,3.774c0,2.487-0.607,4.484-1.821,5.991
		c-1.214,1.507-3.211,2.26-5.991,2.26C-1016.011,178.146-1017.437,177.883-1018.447,177.355z"/>
	<path fill="#1D1D1B" d="M-976.643,146.985v2.589c0,0.293-0.059,0.49-0.175,0.593c-0.117,0.103-0.307,0.153-0.571,0.153h-5.398
		v26.685c0,0.264-0.059,0.438-0.176,0.526c-0.117,0.088-0.468,0.14-1.053,0.154c-0.585,0.015-1.36,0.021-2.326,0.021V150.32h-5.969
		v-2.633c0-0.468,0.248-0.702,0.746-0.702H-976.643z"/>
</g>
<g>
	<rect x="-1176.408" y="158.141" fill="#1D1D1B" width="12.073" height="20.446"/>
	<rect x="-1171.224" y="158.141" fill="#424242" width="4.479" height="20.446"/>
	<rect x="-1174.753" y="152.835" fill="#A5A4A4" width="8.762" height="5.306"/>
	<rect x="-1170.372" y="152.835" fill="#CCCBCB" width="2.118" height="5.306"/>
	<g>
		<polygon fill="#EB6542" points="-1173.268,143.537 -1173.268,152.835 -1170.25,152.835 -1170.25,141.785 		"/>
		<polygon fill="#EB6542" points="-1168.406,140.714 -1168.254,140.714 -1168.254,152.835 -1167.232,152.835 -1167.232,140.032 		
			"/>
		<line fill="#F39F8D" x1="-1170.25" y1="141.785" x2="-1168.406" y2="140.714"/>
		<polygon fill="#F39F8D" points="-1168.406,140.714 -1170.25,141.785 -1170.25,152.835 -1168.254,152.835 -1168.254,140.714 		"/>
	</g>
</g>
<rect x="-1436.408" y="35" width="487" height="92"/>
<rect x="49.376" y="374.269" fill="#FFFFFF" width="686" height="116.731"/>
<g>
	<rect x="49.751" y="413.271" fill="none" width="686" height="70.005"/>
	<path fill="#1D1D1B" d="M221.454,449.346c-1.184-0.783-2.117-2.383-2.8-4.8c-0.684-2.417-1.025-5.941-1.025-10.575
		c0-5.3,0.483-9.383,1.45-12.25c0.966-2.866,2.158-4.783,3.575-5.75c1.417-0.967,3.025-1.45,4.825-1.45c1.667,0,2.866,0.268,3.6,0.8
		c0.732,0.534,1.1,1.184,1.1,1.95c0,0.9-0.217,1.717-0.65,2.45c-1.034-0.833-2.117-1.25-3.25-1.25c-1.233,0-2.317,0.392-3.25,1.175
		c-0.934,0.783-1.692,2.292-2.275,4.525c-0.583,2.233-0.875,5.434-0.875,9.6c0,3.268,0.2,5.8,0.6,7.6c0.4,1.801,0.966,3.034,1.7,3.7
		c0.733,0.667,1.633,1,2.7,1c0.933,0,1.816-0.157,2.65-0.475c0.833-0.316,1.5-0.691,2-1.125c0.4,0.867,0.6,1.684,0.6,2.45
		c0,1-0.583,1.85-1.75,2.55c-1.167,0.7-2.65,1.05-4.45,1.05C224.129,450.521,222.637,450.128,221.454,449.346z"/>
	<path fill="#1D1D1B" d="M252.854,448.945c-1.284-1.05-2.225-2.883-2.825-5.5c-0.6-2.616-0.9-6.325-0.9-11.125
		c0-4.399,0.341-7.899,1.025-10.5c0.683-2.6,1.725-4.466,3.125-5.6c1.4-1.133,3.216-1.7,5.45-1.7c2.2,0,3.933,0.542,5.2,1.625
		c1.267,1.084,2.191,2.893,2.775,5.425c0.583,2.534,0.875,6.067,0.875,10.601c0,4.566-0.325,8.184-0.975,10.85
		c-0.65,2.667-1.659,4.584-3.025,5.75c-1.367,1.167-3.167,1.75-5.4,1.75C255.912,450.521,254.137,449.995,252.854,448.945z
		 M261.229,444.971c0.7-0.933,1.208-2.417,1.525-4.45c0.316-2.033,0.475-4.783,0.475-8.25s-0.134-6.166-0.4-8.1
		c-0.268-1.934-0.734-3.333-1.4-4.2c-0.667-0.866-1.6-1.3-2.8-1.3s-2.159,0.475-2.875,1.425c-0.717,0.95-1.242,2.483-1.575,4.6
		c-0.333,2.117-0.5,4.992-0.5,8.625c0,3.2,0.142,5.742,0.425,7.625c0.283,1.884,0.758,3.259,1.425,4.125
		c0.667,0.867,1.6,1.3,2.8,1.3C259.562,446.37,260.529,445.904,261.229,444.971z"/>
	<path fill="#1D1D1B" d="M306.328,415.021v34.2c0,0.3-0.059,0.5-0.175,0.6c-0.117,0.101-0.509,0.159-1.175,0.175
		c-0.667,0.018-1.583,0.025-2.75,0.025l0.15-12.25c0.066-2.166,0.217-4.916,0.45-8.25c0.233-3.333,0.4-5.6,0.5-6.8l-0.85,3
		c-1.3,4.8-2.117,7.649-2.45,8.55l-2.65,7.7c-0.1,0.267-0.283,0.399-0.55,0.399h-1.75l-2.6-8.1c-0.434-1.3-1.5-5.066-3.2-11.3
		l-0.05,0.05c0.1,1.033,0.267,3.167,0.5,6.4c0.233,3.233,0.367,5.949,0.4,8.149l0.1,11.65c0,0.3-0.075,0.5-0.225,0.6
		c-0.15,0.101-0.542,0.159-1.175,0.175c-0.634,0.018-1.483,0.025-2.55,0.025v-34.2c0-0.333,0.066-0.55,0.2-0.649
		c0.133-0.101,0.333-0.15,0.6-0.15h2.9l4.8,15.2c0.366,1.134,0.7,2.242,1,3.325c0.3,1.083,0.5,1.824,0.6,2.225
		c0.1-0.4,0.292-1.133,0.575-2.2c0.283-1.066,0.575-2.133,0.875-3.2l4.45-14.55c0.1-0.3,0.2-0.508,0.3-0.625
		c0.1-0.116,0.267-0.175,0.5-0.175H306.328z"/>
	<path fill="#1D1D1B" d="M325.728,416.87c0-0.666,0.066-1.116,0.2-1.35c0.133-0.232,0.441-0.375,0.925-0.425
		c0.482-0.05,1.475-0.075,2.975-0.075v34.2c0,0.3-0.067,0.5-0.2,0.6c-0.134,0.101-0.534,0.159-1.2,0.175
		c-0.667,0.018-1.567,0.025-2.7,0.025V416.87z"/>
	<path fill="#1D1D1B" d="M363.178,415.221c0.133-0.101,0.533-0.158,1.2-0.175c0.666-0.017,1.55-0.025,2.649-0.025v34.2
		c0,0.533-0.283,0.8-0.85,0.8h-3l-5.75-13.75c-0.8-2.133-2.384-6.883-4.75-14.25c0.133,1.434,0.25,3.834,0.35,7.2
		c0.101,3.367,0.15,5.983,0.15,7.85v12.15c0,0.3-0.059,0.5-0.175,0.6c-0.117,0.101-0.509,0.159-1.175,0.175
		c-0.668,0.018-1.551,0.025-2.65,0.025v-34.2c0-0.532,0.267-0.8,0.8-0.8h3.05l5.65,13.5c0.433,1.167,1.666,4.817,3.7,10.95
		c0.133,0.399,0.5,1.483,1.1,3.25v-0.15c-0.167-1.3-0.292-3.657-0.375-7.075c-0.083-3.416-0.125-6.041-0.125-7.875v-11.8
		C362.978,415.521,363.044,415.32,363.178,415.221z"/>
	<path fill="#1D1D1B" d="M389.577,449.096c-1.334-0.95-2.317-2.658-2.95-5.125c-0.634-2.467-0.95-6.017-0.95-10.65
		c0-5.032,0.425-8.916,1.275-11.649c0.85-2.733,2.041-4.608,3.574-5.625s3.5-1.525,5.9-1.525c1.6,0,2.892,0.259,3.875,0.775
		c0.982,0.517,1.475,1.108,1.475,1.774c0,0.8-0.184,1.667-0.55,2.601c-0.467-0.367-1.05-0.658-1.75-0.875s-1.45-0.325-2.25-0.325
		c-1.767,0-3.167,0.442-4.2,1.325s-1.8,2.375-2.3,4.475s-0.75,5.018-0.75,8.75c0,3.834,0.2,6.725,0.601,8.675
		c0.399,1.95,0.966,3.25,1.699,3.9c0.733,0.649,1.7,0.975,2.9,0.975c0.8,0,1.458-0.133,1.975-0.399s0.858-0.551,1.025-0.851v-12.45
		h-3.75v-2.55c0-0.532,0.316-0.8,0.95-0.8h6.55v18.75c-1.8,1.5-4.084,2.25-6.85,2.25
		C392.743,450.521,390.909,450.046,389.577,449.096z"/>
	<path fill="#1D1D1B" d="M444.35,449.62c-1.149-0.6-1.725-1.282-1.725-2.05c0-0.433,0.092-0.916,0.275-1.45
		c0.183-0.532,0.441-1.016,0.774-1.449c1.3,1.167,3.017,1.75,5.15,1.75c3.3,0,4.95-1.7,4.95-5.101c0-1.2-0.218-2.274-0.65-3.225
		c-0.434-0.95-1.2-2.075-2.3-3.375l-5-5.851c-1.134-1.366-1.942-2.607-2.425-3.725c-0.484-1.116-0.726-2.275-0.726-3.475
		c0-2.167,0.758-3.9,2.275-5.2c1.517-1.3,3.625-1.95,6.325-1.95c2.232,0,3.883,0.225,4.949,0.675s1.601,1.059,1.601,1.825
		c0,0.834-0.334,1.6-1,2.3c-0.367-0.3-1.009-0.575-1.925-0.825c-0.918-0.25-1.909-0.375-2.976-0.375c-1.5,0-2.692,0.301-3.575,0.9
		s-1.324,1.45-1.324,2.55c0,0.867,0.183,1.659,0.55,2.375c0.366,0.718,0.95,1.575,1.75,2.575l5.45,6.15
		c1.266,1.5,2.141,2.883,2.625,4.149c0.482,1.268,0.725,2.7,0.725,4.3c0,2.834-0.692,5.109-2.075,6.825
		c-1.384,1.718-3.658,2.575-6.825,2.575C447.125,450.521,445.5,450.221,444.35,449.62z"/>
	<path fill="#1D1D1B" d="M479.5,448.945c-1.283-1.05-2.225-2.883-2.824-5.5c-0.601-2.616-0.9-6.325-0.9-11.125
		c0-4.399,0.342-7.899,1.025-10.5c0.683-2.6,1.725-4.466,3.125-5.6c1.399-1.133,3.216-1.7,5.449-1.7c2.2,0,3.934,0.542,5.2,1.625
		c1.267,1.084,2.191,2.893,2.775,5.425c0.583,2.534,0.875,6.067,0.875,10.601c0,4.566-0.325,8.184-0.976,10.85
		c-0.649,2.667-1.658,4.584-3.024,5.75c-1.367,1.167-3.167,1.75-5.4,1.75C482.559,450.521,480.783,449.995,479.5,448.945z
		 M487.875,444.971c0.7-0.933,1.208-2.417,1.525-4.45c0.316-2.033,0.475-4.783,0.475-8.25s-0.133-6.166-0.399-8.1
		c-0.268-1.934-0.733-3.333-1.4-4.2c-0.667-0.866-1.6-1.3-2.8-1.3s-2.158,0.475-2.875,1.425s-1.242,2.483-1.575,4.6
		c-0.333,2.117-0.5,4.992-0.5,8.625c0,3.2,0.142,5.742,0.425,7.625c0.283,1.884,0.758,3.259,1.426,4.125
		c0.666,0.867,1.6,1.3,2.8,1.3C486.208,446.37,487.176,445.904,487.875,444.971z"/>
	<path fill="#1D1D1B" d="M515.949,448.945c-1.283-1.05-2.225-2.883-2.824-5.5c-0.601-2.616-0.9-6.325-0.9-11.125
		c0-4.399,0.342-7.899,1.025-10.5c0.683-2.6,1.725-4.466,3.125-5.6c1.399-1.133,3.216-1.7,5.449-1.7c2.2,0,3.934,0.542,5.2,1.625
		c1.267,1.084,2.191,2.893,2.775,5.425c0.583,2.534,0.875,6.067,0.875,10.601c0,4.566-0.325,8.184-0.976,10.85
		c-0.649,2.667-1.658,4.584-3.024,5.75c-1.367,1.167-3.167,1.75-5.4,1.75C519.008,450.521,517.232,449.995,515.949,448.945z
		 M524.324,444.971c0.7-0.933,1.208-2.417,1.525-4.45c0.316-2.033,0.475-4.783,0.475-8.25s-0.133-6.166-0.399-8.1
		c-0.268-1.934-0.733-3.333-1.4-4.2c-0.667-0.866-1.6-1.3-2.8-1.3s-2.158,0.475-2.875,1.425s-1.242,2.483-1.575,4.6
		c-0.333,2.117-0.5,4.992-0.5,8.625c0,3.2,0.142,5.742,0.425,7.625c0.283,1.884,0.758,3.259,1.426,4.125
		c0.666,0.867,1.6,1.3,2.8,1.3C522.657,446.37,523.625,445.904,524.324,444.971z"/>
	<path fill="#1D1D1B" d="M563.374,415.221c0.133-0.101,0.532-0.158,1.2-0.175c0.666-0.017,1.55-0.025,2.649-0.025v34.2
		c0,0.533-0.283,0.8-0.85,0.8h-3l-5.75-13.75c-0.8-2.133-2.384-6.883-4.75-14.25c0.133,1.434,0.25,3.834,0.35,7.2
		c0.101,3.367,0.15,5.983,0.15,7.85v12.15c0,0.3-0.059,0.5-0.175,0.6c-0.117,0.101-0.509,0.159-1.176,0.175
		c-0.667,0.018-1.55,0.025-2.649,0.025v-34.2c0-0.532,0.267-0.8,0.8-0.8h3.05l5.65,13.5c0.433,1.167,1.666,4.817,3.7,10.95
		c0.133,0.399,0.5,1.483,1.1,3.25v-0.15c-0.167-1.3-0.292-3.657-0.375-7.075c-0.084-3.416-0.125-6.041-0.125-7.875v-11.8
		C563.174,415.521,563.24,415.32,563.374,415.221z"/>
</g>
<g>
	<rect x="1049.751" y="400" fill="#EB6542" width="105" height="38"/>
	<rect x="1031.751" y="438" fill="#F39F8D" width="155" height="51"/>
</g>
<g>
	<ellipse fill="#424242" cx="633.27" cy="457.638" rx="21.519" ry="7.112"/>
	<rect x="611.751" y="449" fill="#424242" width="43" height="9"/>
	<ellipse fill="#1D1D1B" cx="633.422" cy="448.57" rx="21.671" ry="10.34"/>
	<ellipse fill="#EB6542" cx="633.217" cy="447.998" rx="15.317" ry="7.308"/>
	<path fill="#F39F8D" d="M633.217,455.306c8.46,0,15.317-3.272,15.317-7.308s-6.858-7.308-15.317-7.308"/>
	<g>
		<circle fill="#1D1D1B" cx="634.2" cy="419.797" r="19.297"/>
		<path fill="#424242" d="M634.2,439.094c10.657,0,19.297-8.639,19.297-19.297c0-10.657-8.639-19.297-19.297-19.297"/>
		<circle fill="#B6CCDD" cx="634.366" cy="419.714" r="13.885"/>
		<path fill="#D3E7F4" d="M639.253,406.726l-16.649,20.343c0,0,2.745,3.673,4.763,4.638l15.986-22.574
			C643.352,409.133,640.156,407.042,639.253,406.726z"/>
	</g>
</g>
<rect x="799.751" y="499" fill="#FFFFFF" width="40" height="40"/>
<g>
	<rect x="-1425.602" y="53" fill="none" width="471.353" height="73"/>
	<path fill="#FFFFFF" d="M-1395.977,101.987h12.729c0,1.431-0.013,2.59-0.037,3.478c-0.025,0.888-0.124,1.431-0.296,1.628
		c-0.174,0.198-0.457,0.296-0.852,0.296h-17.464V56.772c0-0.196,0.074-0.444,0.222-0.74c0.148-0.296,0.469-0.444,0.963-0.444h17.76
		c0,1.381-0.013,2.516-0.037,3.404c-0.025,0.888-0.111,1.443-0.259,1.665c-0.148,0.222-0.42,0.333-0.814,0.333h-11.914v15.466
		h11.174c0,1.332-0.013,2.442-0.036,3.33c-0.026,0.888-0.111,1.468-0.26,1.739c-0.147,0.271-0.419,0.407-0.813,0.407h-10.064
		V101.987z"/>
	<path fill="#FFFFFF" d="M-1345.657,55.589v50.616c0,0.444-0.087,0.74-0.259,0.888c-0.174,0.148-0.753,0.234-1.739,0.259
		c-0.987,0.025-2.344,0.037-4.07,0.037l0.223-18.13c0.098-3.207,0.32-7.276,0.666-12.21c0.345-4.933,0.592-8.288,0.74-10.064
		l-1.259,4.44c-1.924,7.104-3.133,11.322-3.626,12.654l-3.922,11.396c-0.147,0.396-0.42,0.592-0.813,0.592h-2.591l-3.848-11.988
		c-0.642-1.924-2.22-7.498-4.736-16.724l-0.073,0.074c0.147,1.53,0.394,4.688,0.739,9.472c0.345,4.786,0.543,8.806,0.593,12.062
		l0.147,17.242c0,0.444-0.11,0.74-0.333,0.888c-0.222,0.148-0.802,0.234-1.739,0.259c-0.938,0.025-2.195,0.037-3.773,0.037V56.772
		c0-0.492,0.099-0.814,0.296-0.962c0.196-0.148,0.492-0.222,0.888-0.222h4.292l7.104,22.496c0.542,1.678,1.036,3.319,1.479,4.921
		c0.444,1.604,0.74,2.701,0.889,3.293c0.147-0.592,0.431-1.677,0.851-3.256c0.419-1.578,0.851-3.156,1.295-4.736l6.586-21.534
		c0.148-0.444,0.296-0.751,0.444-0.925c0.147-0.172,0.395-0.259,0.74-0.259H-1345.657z"/>
	<path fill="#FFFFFF" d="M-1307.251,55.589v50.616c0,0.444-0.087,0.74-0.259,0.888c-0.174,0.148-0.753,0.234-1.739,0.259
		c-0.987,0.025-2.344,0.037-4.07,0.037l0.223-18.13c0.098-3.207,0.32-7.276,0.666-12.21c0.345-4.933,0.592-8.288,0.74-10.064
		l-1.259,4.44c-1.924,7.104-3.133,11.322-3.626,12.654l-3.922,11.396c-0.147,0.396-0.42,0.592-0.813,0.592h-2.591l-3.848-11.988
		c-0.642-1.924-2.22-7.498-4.736-16.724l-0.073,0.074c0.147,1.53,0.394,4.688,0.739,9.472c0.345,4.786,0.543,8.806,0.593,12.062
		l0.147,17.242c0,0.444-0.11,0.74-0.333,0.888c-0.222,0.148-0.802,0.234-1.739,0.259c-0.938,0.025-2.195,0.037-3.773,0.037V56.772
		c0-0.492,0.099-0.814,0.296-0.962c0.196-0.148,0.492-0.222,0.888-0.222h4.292l7.104,22.496c0.542,1.678,1.036,3.319,1.479,4.921
		c0.444,1.604,0.74,2.701,0.889,3.293c0.147-0.592,0.431-1.677,0.851-3.256c0.419-1.578,0.851-3.156,1.295-4.736l6.586-21.534
		c0.148-0.444,0.296-0.751,0.444-0.925c0.147-0.172,0.395-0.259,0.74-0.259H-1307.251z"/>
	<path fill="#FFFFFF" d="M-1269.807,107.241c-0.346,0.196-1.086,0.296-2.22,0.296c-1.332,0-2.517-0.05-3.553-0.148l-3.107-13.172
		h-12.876l-2.887,12.136c-0.147,0.444-0.382,0.753-0.702,0.925c-0.322,0.172-1.024,0.259-2.109,0.259c-1.036,0-2.27-0.074-3.7-0.222
		l13.246-50.912c0.148-0.69,0.888-1.036,2.22-1.036c1.135,0,2.072,0.074,2.812,0.222l13.246,50.69
		C-1269.339,106.723-1269.462,107.044-1269.807,107.241z M-1280.019,88.814l-2.517-10.656c-1.431-6.018-2.294-10.779-2.59-14.282
		c-0.543,4.392-1.432,9.152-2.664,14.282l-2.516,10.656H-1280.019z"/>
	<path fill="#FFFFFF" d="M-1203.281,55.589l-9.769,52.022c-0.443,0.048-1.086,0.123-1.924,0.222c-0.84,0.099-1.85,0.148-3.034,0.148
		c-1.579,0-2.64-1.406-3.182-4.218l-3.848-16.798c-0.544-2.861-1.309-8.46-2.295-16.798c-0.938,7.992-1.653,13.567-2.146,16.724
		l-4.07,20.72c-1.628,0.196-3.453,0.296-5.476,0.296c-1.332,0-2.344-1.504-3.034-4.514c-1.036-5.13-2.59-13.172-4.662-24.124
		c-2.072-10.952-3.453-18.252-4.144-21.904c-0.05-0.197-0.074-0.468-0.074-0.814c0-0.345,0.099-0.592,0.296-0.74
		c0.196-0.148,0.542-0.222,1.036-0.222h4.884l5.402,28.786c0.739,4.49,1.479,9.99,2.22,16.502h0.37
		c0.246-4.884,0.888-10.384,1.924-16.502l4.588-24.494c0.148-0.69,0.308-1.159,0.481-1.406c0.172-0.246,0.529-0.37,1.072-0.37h4.219
		l5.254,26.27c0.74,3.898,1.406,8.658,1.998,14.282l0.222,2.22h0.444c0.542-6.512,1.158-12.012,1.85-16.502l4.811-27.01
		c0.098-0.641,0.233-1.097,0.406-1.369c0.173-0.271,0.53-0.407,1.073-0.407H-1203.281z"/>
	<path fill="#FFFFFF" d="M-1171.905,107.241c-0.346,0.196-1.085,0.296-2.22,0.296c-1.332,0-2.516-0.05-3.552-0.148l-3.108-13.172
		h-12.876l-2.886,12.136c-0.148,0.444-0.383,0.753-0.703,0.925c-0.321,0.172-1.024,0.259-2.109,0.259
		c-1.035,0-2.27-0.074-3.699-0.222l13.246-50.912c0.147-0.69,0.888-1.036,2.22-1.036c1.134,0,2.072,0.074,2.812,0.222l13.246,50.69
		C-1171.437,106.723-1171.561,107.044-1171.905,107.241z M-1182.117,88.814l-2.516-10.656c-1.432-6.018-2.294-10.779-2.59-14.282
		c-0.544,4.392-1.432,9.152-2.664,14.282l-2.517,10.656H-1182.117z"/>
	<path fill="#FFFFFF" d="M-1160.951,106.02c-1.975-1.406-3.43-3.934-4.366-7.585c-0.938-3.65-1.406-8.904-1.406-15.762
		c0-7.449,0.629-13.196,1.887-17.242c1.259-4.044,3.021-6.819,5.291-8.325c2.269-1.504,5.181-2.257,8.732-2.257
		c2.368,0,4.279,0.383,5.735,1.147c1.454,0.766,2.183,1.641,2.183,2.627c0,1.184-0.271,2.468-0.814,3.848
		c-0.691-0.542-1.554-0.974-2.59-1.295c-1.036-0.32-2.146-0.481-3.33-0.481c-2.615,0-4.688,0.654-6.216,1.961
		c-1.529,1.308-2.664,3.515-3.404,6.623c-0.739,3.108-1.109,7.425-1.109,12.95c0,5.674,0.296,9.953,0.888,12.839
		c0.592,2.886,1.431,4.81,2.516,5.772c1.085,0.962,2.517,1.443,4.292,1.443c1.185,0,2.158-0.197,2.924-0.592
		c0.764-0.394,1.27-0.814,1.517-1.258V82.007h-5.55v-3.774c0-0.789,0.468-1.184,1.406-1.184h9.693v27.75
		c-2.664,2.22-6.044,3.33-10.138,3.33C-1156.266,108.129-1158.979,107.426-1160.951,106.02z"/>
	<path fill="#FFFFFF" d="M-1128.171,101.987h12.729c0,1.431-0.013,2.59-0.037,3.478c-0.025,0.888-0.124,1.431-0.296,1.628
		c-0.174,0.198-0.457,0.296-0.852,0.296h-17.464V56.772c0-0.196,0.074-0.444,0.222-0.74c0.148-0.296,0.469-0.444,0.963-0.444h17.76
		c0,1.381-0.013,2.516-0.037,3.404c-0.025,0.888-0.111,1.443-0.259,1.665c-0.148,0.222-0.42,0.333-0.814,0.333h-11.914v15.466
		h11.174c0,1.332-0.013,2.442-0.036,3.33c-0.026,0.888-0.111,1.468-0.26,1.739c-0.147,0.271-0.419,0.407-0.813,0.407h-10.064
		V101.987z"/>
	<path fill="#FFFFFF" d="M-1077.852,55.589v50.616c0,0.444-0.087,0.74-0.259,0.888c-0.174,0.148-0.753,0.234-1.739,0.259
		c-0.987,0.025-2.344,0.037-4.07,0.037l0.223-18.13c0.098-3.207,0.32-7.276,0.666-12.21c0.345-4.933,0.592-8.288,0.74-10.064
		l-1.259,4.44c-1.924,7.104-3.133,11.322-3.626,12.654l-3.922,11.396c-0.147,0.396-0.42,0.592-0.813,0.592h-2.591l-3.848-11.988
		c-0.642-1.924-2.22-7.498-4.736-16.724l-0.073,0.074c0.147,1.53,0.394,4.688,0.739,9.472c0.345,4.786,0.543,8.806,0.593,12.062
		l0.147,17.242c0,0.444-0.11,0.74-0.333,0.888c-0.222,0.148-0.802,0.234-1.739,0.259c-0.938,0.025-2.195,0.037-3.773,0.037V56.772
		c0-0.492,0.099-0.814,0.296-0.962c0.196-0.148,0.492-0.222,0.888-0.222h4.292l7.104,22.496c0.542,1.678,1.036,3.319,1.479,4.921
		c0.444,1.604,0.74,2.701,0.889,3.293c0.147-0.592,0.431-1.677,0.851-3.256c0.419-1.578,0.851-3.156,1.295-4.736l6.586-21.534
		c0.148-0.444,0.296-0.751,0.444-0.925c0.147-0.172,0.395-0.259,0.74-0.259H-1077.852z"/>
	<path fill="#FFFFFF" d="M-1040.407,107.241c-0.346,0.196-1.086,0.296-2.22,0.296c-1.332,0-2.517-0.05-3.553-0.148l-3.107-13.172
		h-12.876l-2.887,12.136c-0.147,0.444-0.382,0.753-0.702,0.925c-0.322,0.172-1.024,0.259-2.109,0.259c-1.036,0-2.27-0.074-3.7-0.222
		l13.246-50.912c0.148-0.69,0.888-1.036,2.22-1.036c1.135,0,2.072,0.074,2.812,0.222l13.246,50.69
		C-1039.939,106.723-1040.062,107.044-1040.407,107.241z M-1050.619,88.814l-2.517-10.656c-1.431-6.018-2.294-10.779-2.59-14.282
		c-0.543,4.392-1.432,9.152-2.664,14.282l-2.516,10.656H-1050.619z"/>
	<path fill="#FFFFFF" d="M-1012.953,55.885c0.196-0.148,0.788-0.234,1.775-0.259c0.986-0.024,2.294-0.037,3.922-0.037v50.616
		c0,0.79-0.419,1.184-1.258,1.184h-4.439l-8.511-20.35c-1.184-3.156-3.527-10.187-7.029-21.09c0.196,2.122,0.37,5.674,0.518,10.656
		c0.148,4.983,0.222,8.856,0.222,11.618v17.982c0,0.444-0.086,0.74-0.259,0.888s-0.753,0.234-1.738,0.259
		c-0.988,0.025-2.295,0.037-3.923,0.037V56.772c0-0.789,0.395-1.184,1.185-1.184h4.514l8.362,19.98
		c0.641,1.727,2.466,7.129,5.476,16.206c0.197,0.592,0.74,2.195,1.628,4.81v-0.222c-0.247-1.924-0.432-5.414-0.555-10.471
		c-0.124-5.056-0.185-8.941-0.185-11.655V56.772C-1013.249,56.329-1013.151,56.033-1012.953,55.885z"/>
	<path fill="#FFFFFF" d="M-996.712,106.797c-1.701-0.888-2.553-1.899-2.553-3.034c0-0.641,0.136-1.356,0.407-2.146
		c0.271-0.789,0.653-1.504,1.146-2.146c1.925,1.728,4.465,2.59,7.622,2.59c4.885,0,7.326-2.516,7.326-7.548
		c0-1.776-0.321-3.367-0.962-4.773c-0.642-1.406-1.776-3.071-3.404-4.995l-7.399-8.658c-1.678-2.022-2.875-3.86-3.589-5.513
		c-0.716-1.652-1.073-3.367-1.073-5.143c0-3.206,1.121-5.772,3.367-7.696c2.244-1.924,5.364-2.886,9.36-2.886
		c3.305,0,5.747,0.333,7.326,0.999c1.578,0.666,2.368,1.567,2.368,2.701c0,1.233-0.494,2.368-1.479,3.404
		c-0.544-0.444-1.493-0.851-2.85-1.221c-1.357-0.37-2.824-0.555-4.403-0.555c-2.22,0-3.984,0.444-5.29,1.332
		c-1.309,0.888-1.962,2.146-1.962,3.774c0,1.283,0.271,2.455,0.814,3.515c0.542,1.061,1.406,2.331,2.59,3.811l8.066,9.102
		c1.874,2.22,3.169,4.268,3.885,6.142c0.715,1.875,1.073,3.996,1.073,6.364c0,4.193-1.024,7.561-3.071,10.101
		c-2.048,2.541-5.415,3.811-10.101,3.811C-992.604,108.129-995.01,107.685-996.712,106.797z"/>
</g>
<rect x="-1313.249" y="-55" fill="#994A3D" width="20" height="20"/>
<rect x="-1856.408" y="368" fill="#FFFFFF" width="487" height="75"/>
<g>
	<rect x="-1845.602" y="387.451" fill="none" width="468.075" height="35.003"/>
	<path fill="#1D1D1B" d="M-1807.305,388.985v30.02c0,0.264-0.051,0.438-0.154,0.526s-0.446,0.14-1.031,0.154
		c-0.585,0.015-1.39,0.021-2.414,0.021l0.131-10.753c0.059-1.901,0.19-4.315,0.395-7.241c0.205-2.926,0.351-4.916,0.439-5.969
		l-0.746,2.633c-1.141,4.214-1.858,6.715-2.15,7.505l-2.326,6.759c-0.088,0.235-0.249,0.352-0.483,0.352h-1.536l-2.282-7.11
		c-0.38-1.141-1.316-4.446-2.809-9.918l-0.044,0.044c0.088,0.907,0.234,2.779,0.439,5.617c0.204,2.839,0.321,5.223,0.351,7.154
		l0.088,10.226c0,0.264-0.066,0.438-0.198,0.526c-0.131,0.088-0.476,0.14-1.031,0.154c-0.556,0.015-1.302,0.021-2.238,0.021v-30.02
		c0-0.292,0.058-0.482,0.175-0.57c0.117-0.088,0.292-0.132,0.527-0.132h2.545l4.213,13.342c0.322,0.995,0.614,1.968,0.878,2.919
		c0.263,0.951,0.439,1.602,0.526,1.953c0.088-0.352,0.256-0.995,0.505-1.932c0.248-0.936,0.505-1.872,0.768-2.809l3.906-12.771
		c0.087-0.264,0.175-0.446,0.263-0.549c0.088-0.102,0.234-0.153,0.439-0.153H-1807.305z"/>
	<path fill="#1D1D1B" d="M-1773.686,419.619c-0.205,0.116-0.644,0.176-1.316,0.176c-0.79,0-1.492-0.029-2.107-0.088l-1.843-7.812
		h-7.636l-1.712,7.198c-0.088,0.263-0.227,0.446-0.417,0.549c-0.19,0.102-0.607,0.153-1.25,0.153c-0.615,0-1.346-0.044-2.195-0.132
		l7.856-30.195c0.087-0.409,0.526-0.614,1.316-0.614c0.673,0,1.229,0.044,1.668,0.132l7.856,30.063
		C-1773.408,419.312-1773.481,419.503-1773.686,419.619z M-1779.743,408.691l-1.492-6.32c-0.849-3.569-1.36-6.393-1.536-8.471
		c-0.322,2.604-0.849,5.428-1.58,8.471l-1.492,6.32H-1779.743z"/>
	<path fill="#1D1D1B" d="M-1743.754,389.6c0,0.117-0.044,0.249-0.132,0.396l-7.11,12.244c3.511,2.663,5.866,8.223,7.066,16.678
		c0.029,0.352-0.051,0.586-0.241,0.702c-0.191,0.116-0.593,0.176-1.207,0.176c-0.761,0-1.58-0.044-2.458-0.132
		c-0.703-3.716-1.42-6.649-2.151-8.8c-0.731-2.15-1.683-3.854-2.853-5.112c-0.381-0.439-0.966-0.834-1.755-1.186v14.439
		c0,0.264-0.052,0.438-0.154,0.526c-0.103,0.088-0.446,0.14-1.031,0.154c-0.586,0.015-1.39,0.021-2.414,0.021v-30.02
		c0-0.264,0.051-0.438,0.154-0.526c0.102-0.088,0.446-0.139,1.031-0.154c0.585-0.014,1.389-0.021,2.414-0.021v13.254l7.022-13.034
		c0.848-0.176,1.594-0.264,2.238-0.264C-1744.281,388.941-1743.754,389.161-1743.754,389.6z"/>
	<path fill="#1D1D1B" d="M-1724.312,416.503h7.549c0,0.85-0.007,1.536-0.022,2.063c-0.015,0.526-0.073,0.849-0.175,0.965
		c-0.103,0.117-0.271,0.176-0.505,0.176h-10.357v-30.02c0-0.116,0.044-0.264,0.131-0.438c0.088-0.176,0.278-0.264,0.571-0.264
		h10.533c0,0.819-0.008,1.492-0.022,2.019c-0.015,0.526-0.066,0.856-0.154,0.987c-0.087,0.132-0.249,0.198-0.482,0.198h-7.066v9.172
		h6.627c0,0.79-0.008,1.448-0.022,1.976c-0.015,0.526-0.066,0.871-0.154,1.031c-0.088,0.161-0.249,0.241-0.482,0.241h-5.969V416.503
		z"/>
	<path fill="#1D1D1B" d="M-1701.424,406.387c0.073-0.395,0.286-0.592,0.637-0.592h8.207c0,1.229-0.037,2.048-0.11,2.457
		c-0.073,0.41-0.271,0.614-0.592,0.614h-8.251C-1701.533,407.609-1701.497,406.782-1701.424,406.387z"/>
	<path fill="#1D1D1B" d="M-1673.028,418.917c-1.156-0.818-1.917-1.894-2.282-3.226c-0.366-1.331-0.548-2.991-0.548-4.981v-20.979
		c0-0.264,0.051-0.439,0.153-0.526c0.103-0.088,0.454-0.146,1.054-0.176c0.599-0.029,1.411-0.044,2.436-0.044v21.856
		c0,2.019,0.278,3.526,0.834,4.521c0.556,0.995,1.697,1.492,3.423,1.492c0.731,0,1.462-0.073,2.194-0.22
		c0.731-0.146,1.287-0.321,1.668-0.526v-26.377c0-0.264,0.058-0.439,0.175-0.526c0.117-0.088,0.468-0.146,1.053-0.176
		c0.585-0.029,1.375-0.044,2.37-0.044v29.581c-0.614,0.409-1.617,0.775-3.006,1.097c-1.39,0.321-2.875,0.482-4.455,0.482
		C-1670.183,420.146-1671.872,419.735-1673.028,418.917z"/>
	<path fill="#1D1D1B" d="M-1632.343,391.048c1.302,1.376,1.953,3.57,1.953,6.583c0,3.395-0.739,5.845-2.216,7.352
		c-1.478,1.508-3.417,2.261-5.815,2.261h-1.58v11.762c0,0.264-0.052,0.438-0.154,0.526c-0.103,0.088-0.446,0.14-1.031,0.154
		c-0.586,0.015-1.361,0.021-2.326,0.021v-30.02c0-0.264,0.051-0.446,0.153-0.549c0.103-0.102,0.286-0.153,0.549-0.153h4.345
		C-1635.686,388.985-1633.646,389.673-1632.343,391.048z M-1635.218,402.394c0.614-1.039,0.921-2.758,0.921-5.157
		c0-1.668-0.271-2.94-0.812-3.818c-0.542-0.878-1.442-1.316-2.699-1.316h-2.194v11.85h1.931
		C-1636.784,403.951-1635.833,403.432-1635.218,402.394z"/>
	<path fill="#1D1D1B" d="M-1533.749,419.619c-0.205,0.116-0.644,0.176-1.316,0.176c-0.79,0-1.492-0.029-2.107-0.088l-1.843-7.812
		h-7.636l-1.712,7.198c-0.088,0.263-0.227,0.446-0.417,0.549c-0.19,0.102-0.607,0.153-1.25,0.153c-0.615,0-1.346-0.044-2.195-0.132
		l7.856-30.195c0.087-0.409,0.526-0.614,1.316-0.614c0.673,0,1.229,0.044,1.668,0.132l7.856,30.063
		C-1533.471,419.312-1533.544,419.503-1533.749,419.619z M-1539.806,408.691l-1.492-6.32c-0.849-3.569-1.36-6.393-1.536-8.471
		c-0.322,2.604-0.849,5.428-1.58,8.471l-1.492,6.32H-1539.806z"/>
	<path fill="#1D1D1B" d="M-1506.253,411.28c0.805,2.106,1.309,4.652,1.514,7.637c0,0.352-0.103,0.586-0.307,0.702
		c-0.205,0.116-0.702,0.176-1.492,0.176c-0.322,0-1.009-0.029-2.063-0.088c-0.205-3.218-0.666-5.844-1.382-7.878
		c-0.717-2.033-1.456-3.577-2.216-4.63c-0.205,0.029-0.498,0.044-0.878,0.044h-1.58v11.762c0,0.264-0.052,0.438-0.154,0.526
		c-0.103,0.088-0.446,0.14-1.031,0.154c-0.586,0.015-1.361,0.021-2.326,0.021v-30.02c0-0.116,0.044-0.264,0.132-0.438
		c0.087-0.176,0.277-0.264,0.57-0.264h4.345c2.78,0,4.82,0.688,6.123,2.062c1.302,1.376,1.953,3.57,1.953,6.583
		c0,4.302-1.273,7.184-3.818,8.646C-1507.928,407.506-1507.058,409.174-1506.253,411.28z M-1512.727,403.951
		c1.287,0,2.238-0.505,2.853-1.515c0.614-1.009,0.921-2.655,0.921-4.937c0-1.785-0.271-3.131-0.812-4.038
		c-0.542-0.906-1.442-1.36-2.699-1.36h-2.194v11.85H-1512.727z"/>
	<path fill="#1D1D1B" d="M-1475.158,388.985v2.589c0,0.293-0.059,0.49-0.175,0.593c-0.117,0.103-0.307,0.153-0.571,0.153h-5.398
		v26.685c0,0.264-0.059,0.438-0.176,0.526c-0.117,0.088-0.468,0.14-1.053,0.154c-0.585,0.015-1.36,0.021-2.326,0.021V392.32h-5.969
		v-2.633c0-0.468,0.248-0.702,0.746-0.702H-1475.158z"/>
	<path fill="#1D1D1B" d="M-1459.71,390.609c0-0.585,0.058-0.98,0.175-1.186c0.117-0.204,0.388-0.329,0.812-0.373
		c0.424-0.044,1.295-0.065,2.611-0.065v30.02c0,0.264-0.059,0.438-0.175,0.526c-0.117,0.088-0.468,0.14-1.053,0.154
		c-0.586,0.015-1.376,0.021-2.37,0.021V390.609z"/>
	<path fill="#1D1D1B" d="M-1438.447,419.355c-1.009-0.526-1.514-1.126-1.514-1.799c0-0.38,0.08-0.805,0.241-1.272
		c0.161-0.468,0.388-0.893,0.681-1.273c1.141,1.024,2.647,1.536,4.521,1.536c2.896,0,4.345-1.492,4.345-4.477
		c0-1.053-0.19-1.997-0.57-2.831c-0.381-0.833-1.054-1.821-2.019-2.962l-4.389-5.135c-0.995-1.199-1.705-2.289-2.129-3.27
		c-0.424-0.98-0.636-1.997-0.636-3.051c0-1.901,0.665-3.423,1.997-4.564c1.331-1.141,3.182-1.712,5.552-1.712
		c1.96,0,3.408,0.198,4.345,0.593c0.936,0.396,1.405,0.93,1.405,1.603c0,0.731-0.293,1.404-0.878,2.019
		c-0.322-0.264-0.885-0.505-1.69-0.725c-0.805-0.219-1.675-0.329-2.611-0.329c-1.316,0-2.363,0.264-3.138,0.79
		c-0.776,0.526-1.163,1.272-1.163,2.238c0,0.762,0.16,1.456,0.483,2.085c0.321,0.63,0.833,1.383,1.536,2.26l4.784,5.398
		c1.111,1.317,1.879,2.531,2.304,3.643c0.424,1.112,0.636,2.37,0.636,3.774c0,2.487-0.607,4.484-1.821,5.991
		c-1.214,1.507-3.211,2.26-5.991,2.26C-1436.011,420.146-1437.438,419.883-1438.447,419.355z"/>
	<path fill="#1D1D1B" d="M-1396.643,388.985v2.589c0,0.293-0.059,0.49-0.175,0.593c-0.117,0.103-0.307,0.153-0.571,0.153h-5.398
		v26.685c0,0.264-0.059,0.438-0.176,0.526c-0.117,0.088-0.468,0.14-1.053,0.154c-0.585,0.015-1.36,0.021-2.326,0.021V392.32h-5.969
		v-2.633c0-0.468,0.248-0.702,0.746-0.702H-1396.643z"/>
</g>
<g>
	<rect x="-1596.408" y="400.141" fill="#1D1D1B" width="12.073" height="20.446"/>
	<rect x="-1591.224" y="400.141" fill="#424242" width="4.479" height="20.446"/>
	<rect x="-1594.753" y="394.835" fill="#A5A4A4" width="8.762" height="5.306"/>
	<rect x="-1590.372" y="394.835" fill="#CCCBCB" width="2.118" height="5.306"/>
	<g>
		<polygon fill="#EB6542" points="-1593.268,385.537 -1593.268,394.835 -1590.25,394.835 -1590.25,383.785 		"/>
		<polygon fill="#EB6542" points="-1588.406,382.714 -1588.254,382.714 -1588.254,394.835 -1587.232,394.835 -1587.232,382.032 		
			"/>
		<line fill="#F39F8D" x1="-1590.25" y1="383.785" x2="-1588.406" y2="382.714"/>
		<polygon fill="#F39F8D" points="-1588.406,382.714 -1590.25,383.785 -1590.25,394.835 -1588.254,394.835 -1588.254,382.714 		"/>
	</g>
</g>
<rect x="-1856.408" y="267" fill="#FFFFFF" width="487" height="92"/>
<g>
	<rect x="-1845.602" y="285" fill="none" width="471.353" height="73"/>
	<path d="M-1815.977,333.986h12.729c0,1.432-0.013,2.59-0.037,3.479c-0.025,0.888-0.124,1.432-0.296,1.628
		c-0.174,0.198-0.457,0.296-0.852,0.296h-17.464v-50.616c0-0.196,0.074-0.444,0.222-0.739c0.148-0.297,0.469-0.444,0.963-0.444
		h17.76c0,1.382-0.013,2.516-0.037,3.403c-0.025,0.889-0.111,1.443-0.259,1.666c-0.148,0.222-0.42,0.332-0.814,0.332h-11.914v15.467
		h11.174c0,1.332-0.013,2.441-0.036,3.33c-0.026,0.888-0.111,1.468-0.26,1.738c-0.147,0.271-0.419,0.407-0.813,0.407h-10.064
		V333.986z"/>
	<path d="M-1765.657,287.589v50.616c0,0.443-0.087,0.74-0.259,0.888c-0.174,0.147-0.753,0.234-1.739,0.259
		c-0.987,0.025-2.344,0.037-4.07,0.037l0.223-18.13c0.098-3.206,0.32-7.276,0.666-12.21c0.345-4.933,0.592-8.288,0.74-10.064
		l-1.259,4.44c-1.924,7.104-3.133,11.321-3.626,12.653l-3.922,11.396c-0.147,0.396-0.42,0.592-0.813,0.592h-2.591l-3.848-11.988
		c-0.642-1.924-2.22-7.498-4.736-16.724l-0.073,0.074c0.147,1.53,0.394,4.688,0.739,9.472c0.345,4.786,0.543,8.807,0.593,12.062
		l0.147,17.242c0,0.443-0.11,0.74-0.333,0.888c-0.222,0.147-0.802,0.234-1.739,0.259c-0.938,0.025-2.195,0.037-3.773,0.037v-50.616
		c0-0.492,0.099-0.813,0.296-0.962c0.196-0.148,0.492-0.222,0.888-0.222h4.292l7.104,22.495c0.542,1.678,1.036,3.319,1.479,4.922
		c0.444,1.604,0.74,2.701,0.889,3.293c0.147-0.592,0.431-1.677,0.851-3.256c0.419-1.578,0.851-3.156,1.295-4.736l6.586-21.534
		c0.148-0.444,0.296-0.751,0.444-0.925c0.147-0.172,0.395-0.259,0.74-0.259H-1765.657z"/>
	<path d="M-1727.251,287.589v50.616c0,0.443-0.087,0.74-0.259,0.888c-0.174,0.147-0.753,0.234-1.739,0.259
		c-0.987,0.025-2.344,0.037-4.07,0.037l0.223-18.13c0.098-3.206,0.32-7.276,0.666-12.21c0.345-4.933,0.592-8.288,0.74-10.064
		l-1.259,4.44c-1.924,7.104-3.133,11.321-3.626,12.653l-3.922,11.396c-0.147,0.396-0.42,0.592-0.813,0.592h-2.591l-3.848-11.988
		c-0.642-1.924-2.22-7.498-4.736-16.724l-0.073,0.074c0.147,1.53,0.394,4.688,0.739,9.472c0.345,4.786,0.543,8.807,0.593,12.062
		l0.147,17.242c0,0.443-0.11,0.74-0.333,0.888c-0.222,0.147-0.802,0.234-1.739,0.259c-0.938,0.025-2.195,0.037-3.773,0.037v-50.616
		c0-0.492,0.099-0.813,0.296-0.962c0.196-0.148,0.492-0.222,0.888-0.222h4.292l7.104,22.495c0.542,1.678,1.036,3.319,1.479,4.922
		c0.444,1.604,0.74,2.701,0.889,3.293c0.147-0.592,0.431-1.677,0.851-3.256c0.419-1.578,0.851-3.156,1.295-4.736l6.586-21.534
		c0.148-0.444,0.296-0.751,0.444-0.925c0.147-0.172,0.395-0.259,0.74-0.259H-1727.251z"/>
	<path d="M-1689.807,339.24c-0.346,0.197-1.086,0.297-2.22,0.297c-1.332,0-2.517-0.051-3.553-0.148l-3.107-13.172h-12.876
		l-2.887,12.136c-0.147,0.444-0.382,0.753-0.702,0.925c-0.322,0.173-1.024,0.26-2.109,0.26c-1.036,0-2.27-0.074-3.7-0.223
		l13.246-50.912c0.148-0.689,0.888-1.035,2.22-1.035c1.135,0,2.072,0.073,2.812,0.222l13.246,50.69
		C-1689.339,338.723-1689.462,339.044-1689.807,339.24z M-1700.019,320.814l-2.517-10.656c-1.431-6.018-2.294-10.778-2.59-14.281
		c-0.543,4.391-1.432,9.151-2.664,14.281l-2.516,10.656H-1700.019z"/>
	<path d="M-1623.281,287.589l-9.769,52.022c-0.443,0.048-1.086,0.122-1.924,0.221c-0.84,0.1-1.85,0.148-3.034,0.148
		c-1.579,0-2.64-1.406-3.182-4.218l-3.848-16.798c-0.544-2.861-1.309-8.461-2.295-16.799c-0.938,7.992-1.653,13.568-2.146,16.725
		l-4.07,20.721c-1.628,0.195-3.453,0.295-5.476,0.295c-1.332,0-2.344-1.504-3.034-4.514c-1.036-5.131-2.59-13.172-4.662-24.124
		s-3.453-18.253-4.144-21.903c-0.05-0.197-0.074-0.469-0.074-0.814c0-0.345,0.099-0.592,0.296-0.74
		c0.196-0.148,0.542-0.222,1.036-0.222h4.884l5.402,28.786c0.739,4.489,1.479,9.99,2.22,16.502h0.37
		c0.246-4.885,0.888-10.385,1.924-16.502l4.588-24.494c0.148-0.69,0.308-1.158,0.481-1.406c0.172-0.246,0.529-0.37,1.072-0.37h4.219
		l5.254,26.271c0.74,3.897,1.406,8.658,1.998,14.281l0.222,2.221h0.444c0.542-6.512,1.158-12.013,1.85-16.502l4.811-27.01
		c0.098-0.641,0.233-1.098,0.406-1.369s0.53-0.407,1.073-0.407H-1623.281z"/>
	<path d="M-1591.905,339.24c-0.346,0.197-1.085,0.297-2.22,0.297c-1.332,0-2.516-0.051-3.552-0.148l-3.108-13.172h-12.876
		l-2.886,12.136c-0.148,0.444-0.383,0.753-0.703,0.925c-0.321,0.173-1.024,0.26-2.109,0.26c-1.035,0-2.27-0.074-3.699-0.223
		l13.246-50.912c0.147-0.689,0.888-1.035,2.22-1.035c1.134,0,2.072,0.073,2.812,0.222l13.246,50.69
		C-1591.437,338.723-1591.561,339.044-1591.905,339.24z M-1602.117,320.814l-2.516-10.656c-1.432-6.018-2.294-10.778-2.59-14.281
		c-0.544,4.391-1.432,9.151-2.664,14.281l-2.517,10.656H-1602.117z"/>
	<path d="M-1580.951,338.02c-1.975-1.406-3.43-3.934-4.366-7.585c-0.938-3.65-1.406-8.904-1.406-15.762
		c0-7.448,0.629-13.196,1.887-17.242c1.259-4.044,3.021-6.819,5.291-8.325c2.269-1.504,5.181-2.257,8.732-2.257
		c2.368,0,4.279,0.383,5.735,1.147c1.454,0.766,2.183,1.641,2.183,2.627c0,1.184-0.271,2.467-0.814,3.848
		c-0.691-0.543-1.554-0.974-2.59-1.295c-1.036-0.32-2.146-0.48-3.33-0.48c-2.615,0-4.688,0.654-6.216,1.961
		c-1.529,1.307-2.664,3.515-3.404,6.623c-0.739,3.107-1.109,7.425-1.109,12.949c0,5.674,0.296,9.953,0.888,12.84
		c0.592,2.885,1.431,4.809,2.516,5.771c1.085,0.962,2.517,1.443,4.292,1.443c1.185,0,2.158-0.197,2.924-0.593
		c0.764-0.394,1.27-0.813,1.517-1.258v-18.426h-5.55v-3.774c0-0.788,0.468-1.184,1.406-1.184h9.693v27.75
		c-2.664,2.22-6.044,3.33-10.138,3.33C-1576.266,340.129-1578.979,339.426-1580.951,338.02z"/>
	<path d="M-1548.171,333.986h12.729c0,1.432-0.013,2.59-0.037,3.479c-0.025,0.888-0.124,1.432-0.296,1.628
		c-0.174,0.198-0.457,0.296-0.852,0.296h-17.464v-50.616c0-0.196,0.074-0.444,0.222-0.739c0.148-0.297,0.469-0.444,0.963-0.444
		h17.76c0,1.382-0.013,2.516-0.037,3.403c-0.025,0.889-0.111,1.443-0.259,1.666c-0.148,0.222-0.42,0.332-0.814,0.332h-11.914v15.467
		h11.174c0,1.332-0.013,2.441-0.036,3.33c-0.026,0.888-0.111,1.468-0.26,1.738c-0.147,0.271-0.419,0.407-0.813,0.407h-10.064
		V333.986z"/>
	<path d="M-1497.852,287.589v50.616c0,0.443-0.087,0.74-0.259,0.888c-0.174,0.147-0.753,0.234-1.739,0.259
		c-0.987,0.025-2.344,0.037-4.07,0.037l0.223-18.13c0.098-3.206,0.32-7.276,0.666-12.21c0.345-4.933,0.592-8.288,0.74-10.064
		l-1.259,4.44c-1.924,7.104-3.133,11.321-3.626,12.653l-3.922,11.396c-0.147,0.396-0.42,0.592-0.813,0.592h-2.591l-3.848-11.988
		c-0.642-1.924-2.22-7.498-4.736-16.724l-0.073,0.074c0.147,1.53,0.394,4.688,0.739,9.472c0.345,4.786,0.543,8.807,0.593,12.062
		l0.147,17.242c0,0.443-0.11,0.74-0.333,0.888c-0.222,0.147-0.802,0.234-1.739,0.259c-0.938,0.025-2.195,0.037-3.773,0.037v-50.616
		c0-0.492,0.099-0.813,0.296-0.962c0.196-0.148,0.492-0.222,0.888-0.222h4.292l7.104,22.495c0.542,1.678,1.036,3.319,1.479,4.922
		c0.444,1.604,0.74,2.701,0.889,3.293c0.147-0.592,0.431-1.677,0.851-3.256c0.419-1.578,0.851-3.156,1.295-4.736l6.586-21.534
		c0.148-0.444,0.296-0.751,0.444-0.925c0.147-0.172,0.395-0.259,0.74-0.259H-1497.852z"/>
	<path d="M-1460.407,339.24c-0.346,0.197-1.086,0.297-2.22,0.297c-1.332,0-2.517-0.051-3.553-0.148l-3.107-13.172h-12.876
		l-2.887,12.136c-0.147,0.444-0.382,0.753-0.702,0.925c-0.322,0.173-1.024,0.26-2.109,0.26c-1.036,0-2.27-0.074-3.7-0.223
		l13.246-50.912c0.148-0.689,0.888-1.035,2.22-1.035c1.135,0,2.072,0.073,2.812,0.222l13.246,50.69
		C-1459.939,338.723-1460.062,339.044-1460.407,339.24z M-1470.619,320.814l-2.517-10.656c-1.431-6.018-2.294-10.778-2.59-14.281
		c-0.543,4.391-1.432,9.151-2.664,14.281l-2.516,10.656H-1470.619z"/>
	<path d="M-1432.953,287.885c0.196-0.148,0.788-0.234,1.775-0.26c0.986-0.023,2.294-0.036,3.922-0.036v50.616
		c0,0.789-0.419,1.184-1.258,1.184h-4.439l-8.511-20.35c-1.184-3.156-3.527-10.188-7.029-21.09c0.196,2.121,0.37,5.674,0.518,10.655
		c0.148,4.983,0.222,8.856,0.222,11.618v17.982c0,0.443-0.086,0.74-0.259,0.888s-0.753,0.234-1.738,0.259
		c-0.988,0.025-2.295,0.037-3.923,0.037v-50.616c0-0.788,0.395-1.184,1.185-1.184h4.514l8.362,19.979
		c0.641,1.728,2.466,7.13,5.476,16.207c0.197,0.592,0.74,2.195,1.628,4.809v-0.221c-0.247-1.925-0.432-5.414-0.555-10.472
		c-0.124-5.056-0.185-8.941-0.185-11.655v-17.464C-1433.249,288.328-1433.151,288.033-1432.953,287.885z"/>
	<path d="M-1416.712,338.797c-1.701-0.889-2.553-1.898-2.553-3.034c0-0.641,0.136-1.356,0.407-2.146
		c0.271-0.789,0.653-1.505,1.146-2.146c1.925,1.728,4.465,2.59,7.622,2.59c4.885,0,7.326-2.516,7.326-7.548
		c0-1.776-0.321-3.367-0.962-4.772c-0.642-1.406-1.776-3.072-3.404-4.996l-7.399-8.657c-1.678-2.022-2.875-3.86-3.589-5.513
		c-0.716-1.652-1.073-3.367-1.073-5.144c0-3.206,1.121-5.772,3.367-7.696c2.244-1.924,5.364-2.886,9.36-2.886
		c3.305,0,5.747,0.333,7.326,0.999c1.578,0.666,2.368,1.566,2.368,2.701c0,1.233-0.494,2.367-1.479,3.404
		c-0.544-0.444-1.493-0.852-2.85-1.222c-1.357-0.37-2.824-0.555-4.403-0.555c-2.22,0-3.984,0.444-5.29,1.332
		c-1.309,0.888-1.962,2.146-1.962,3.774c0,1.283,0.271,2.454,0.814,3.515c0.542,1.062,1.406,2.331,2.59,3.812l8.066,9.102
		c1.874,2.22,3.169,4.268,3.885,6.142c0.715,1.876,1.073,3.996,1.073,6.364c0,4.193-1.024,7.561-3.071,10.102
		c-2.048,2.541-5.415,3.811-10.101,3.811C-1412.604,340.129-1415.01,339.685-1416.712,338.797z"/>
</g>
<rect x="-1293.249" y="615" fill="#FFFFFF" width="487" height="75"/>
<g>
	<rect x="-1282.443" y="634.451" fill="none" width="468.075" height="35.003"/>
	<path fill="#1D1D1B" d="M-1244.146,635.985v30.02c0,0.264-0.051,0.438-0.154,0.526s-0.446,0.14-1.031,0.154
		c-0.585,0.015-1.39,0.021-2.414,0.021l0.131-10.753c0.059-1.901,0.19-4.315,0.395-7.241c0.205-2.926,0.351-4.916,0.439-5.969
		l-0.746,2.633c-1.141,4.214-1.858,6.715-2.15,7.505l-2.326,6.759c-0.088,0.235-0.249,0.352-0.483,0.352h-1.536l-2.282-7.11
		c-0.38-1.141-1.316-4.446-2.809-9.918l-0.044,0.044c0.088,0.907,0.234,2.779,0.439,5.617c0.204,2.839,0.321,5.223,0.351,7.154
		l0.088,10.226c0,0.264-0.066,0.438-0.198,0.526c-0.131,0.088-0.476,0.14-1.031,0.154c-0.556,0.015-1.302,0.021-2.238,0.021v-30.02
		c0-0.292,0.058-0.482,0.175-0.57c0.117-0.088,0.292-0.132,0.527-0.132h2.545l4.213,13.342c0.322,0.995,0.614,1.968,0.878,2.919
		c0.263,0.951,0.439,1.602,0.526,1.953c0.088-0.352,0.256-0.995,0.505-1.932c0.248-0.936,0.505-1.872,0.768-2.809l3.906-12.771
		c0.087-0.264,0.175-0.446,0.263-0.549c0.088-0.102,0.234-0.153,0.439-0.153H-1244.146z"/>
	<path fill="#1D1D1B" d="M-1210.527,666.619c-0.205,0.116-0.644,0.176-1.316,0.176c-0.79,0-1.492-0.029-2.107-0.088l-1.843-7.812
		h-7.636l-1.712,7.198c-0.088,0.263-0.227,0.446-0.417,0.549c-0.19,0.102-0.607,0.153-1.25,0.153c-0.615,0-1.346-0.044-2.195-0.132
		l7.856-30.195c0.087-0.409,0.526-0.614,1.316-0.614c0.673,0,1.229,0.044,1.668,0.132l7.856,30.063
		C-1210.249,666.312-1210.322,666.503-1210.527,666.619z M-1216.583,655.691l-1.492-6.32c-0.849-3.569-1.36-6.393-1.536-8.471
		c-0.322,2.604-0.849,5.428-1.58,8.471l-1.492,6.32H-1216.583z"/>
	<path fill="#1D1D1B" d="M-1180.595,636.6c0,0.117-0.044,0.249-0.132,0.396l-7.11,12.244c3.511,2.663,5.866,8.223,7.066,16.678
		c0.029,0.352-0.051,0.586-0.241,0.702c-0.191,0.116-0.593,0.176-1.207,0.176c-0.761,0-1.58-0.044-2.458-0.132
		c-0.703-3.716-1.42-6.649-2.151-8.8c-0.731-2.15-1.683-3.854-2.853-5.112c-0.381-0.439-0.966-0.834-1.755-1.186v14.439
		c0,0.264-0.052,0.438-0.154,0.526c-0.103,0.088-0.446,0.14-1.031,0.154c-0.586,0.015-1.39,0.021-2.414,0.021v-30.02
		c0-0.264,0.051-0.438,0.154-0.526c0.102-0.088,0.446-0.139,1.031-0.154c0.585-0.014,1.389-0.021,2.414-0.021v13.254l7.022-13.034
		c0.848-0.176,1.594-0.264,2.238-0.264C-1181.122,635.941-1180.595,636.161-1180.595,636.6z"/>
	<path fill="#1D1D1B" d="M-1161.153,663.503h7.549c0,0.85-0.007,1.536-0.022,2.063c-0.015,0.526-0.073,0.849-0.175,0.965
		c-0.103,0.117-0.271,0.176-0.505,0.176h-10.357v-30.02c0-0.116,0.044-0.264,0.131-0.438c0.088-0.176,0.278-0.264,0.571-0.264
		h10.533c0,0.819-0.008,1.492-0.022,2.019c-0.015,0.526-0.066,0.856-0.154,0.987c-0.087,0.132-0.249,0.198-0.482,0.198h-7.066v9.172
		h6.627c0,0.79-0.008,1.448-0.022,1.976c-0.015,0.526-0.066,0.871-0.154,1.031c-0.088,0.161-0.249,0.241-0.482,0.241h-5.969V663.503
		z"/>
	<path fill="#1D1D1B" d="M-1138.265,653.387c0.073-0.395,0.286-0.592,0.637-0.592h8.207c0,1.229-0.037,2.048-0.11,2.457
		c-0.073,0.41-0.271,0.614-0.592,0.614h-8.251C-1138.374,654.609-1138.338,653.782-1138.265,653.387z"/>
	<path fill="#1D1D1B" d="M-1109.869,665.917c-1.156-0.818-1.917-1.894-2.282-3.226c-0.366-1.331-0.548-2.991-0.548-4.981v-20.979
		c0-0.264,0.051-0.439,0.153-0.526c0.103-0.088,0.454-0.146,1.054-0.176c0.599-0.029,1.411-0.044,2.436-0.044v21.856
		c0,2.019,0.278,3.526,0.834,4.521c0.556,0.995,1.697,1.492,3.423,1.492c0.731,0,1.462-0.073,2.194-0.22
		c0.731-0.146,1.287-0.321,1.668-0.526v-26.377c0-0.264,0.058-0.439,0.175-0.526c0.117-0.088,0.468-0.146,1.053-0.176
		c0.585-0.029,1.375-0.044,2.37-0.044v29.581c-0.614,0.409-1.617,0.775-3.006,1.097c-1.39,0.321-2.875,0.482-4.455,0.482
		C-1107.023,667.146-1108.713,666.735-1109.869,665.917z"/>
	<path fill="#1D1D1B" d="M-1069.184,638.048c1.302,1.376,1.953,3.57,1.953,6.583c0,3.395-0.739,5.845-2.216,7.352
		c-1.478,1.508-3.417,2.261-5.815,2.261h-1.58v11.762c0,0.264-0.052,0.438-0.154,0.526c-0.103,0.088-0.446,0.14-1.031,0.154
		c-0.586,0.015-1.361,0.021-2.326,0.021v-30.02c0-0.264,0.051-0.446,0.153-0.549c0.103-0.102,0.286-0.153,0.549-0.153h4.345
		C-1072.527,635.985-1070.486,636.673-1069.184,638.048z M-1072.059,649.394c0.614-1.039,0.921-2.758,0.921-5.157
		c0-1.668-0.271-2.94-0.812-3.818c-0.542-0.878-1.442-1.316-2.699-1.316h-2.194v11.85h1.931
		C-1073.625,650.951-1072.673,650.432-1072.059,649.394z"/>
	<path fill="#1D1D1B" d="M-970.59,666.619c-0.205,0.116-0.644,0.176-1.316,0.176c-0.79,0-1.492-0.029-2.107-0.088l-1.843-7.812
		h-7.636l-1.712,7.198c-0.088,0.263-0.227,0.446-0.417,0.549c-0.19,0.102-0.607,0.153-1.25,0.153c-0.615,0-1.346-0.044-2.195-0.132
		l7.856-30.195c0.087-0.409,0.526-0.614,1.316-0.614c0.673,0,1.229,0.044,1.668,0.132l7.856,30.063
		C-970.312,666.312-970.385,666.503-970.59,666.619z M-976.646,655.691l-1.492-6.32c-0.849-3.569-1.36-6.393-1.536-8.471
		c-0.322,2.604-0.849,5.428-1.58,8.471l-1.492,6.32H-976.646z"/>
	<path fill="#1D1D1B" d="M-943.094,658.28c0.805,2.106,1.309,4.652,1.514,7.637c0,0.352-0.103,0.586-0.307,0.702
		c-0.205,0.116-0.702,0.176-1.492,0.176c-0.322,0-1.009-0.029-2.063-0.088c-0.205-3.218-0.666-5.844-1.382-7.878
		c-0.717-2.033-1.456-3.577-2.216-4.63c-0.205,0.029-0.498,0.044-0.878,0.044h-1.58v11.762c0,0.264-0.052,0.438-0.154,0.526
		c-0.103,0.088-0.446,0.14-1.031,0.154c-0.586,0.015-1.361,0.021-2.326,0.021v-30.02c0-0.116,0.044-0.264,0.132-0.438
		c0.087-0.176,0.277-0.264,0.57-0.264h4.345c2.78,0,4.82,0.688,6.123,2.062c1.302,1.376,1.953,3.57,1.953,6.583
		c0,4.302-1.273,7.184-3.818,8.646C-944.769,654.506-943.899,656.174-943.094,658.28z M-949.567,650.951
		c1.287,0,2.238-0.505,2.853-1.515c0.614-1.009,0.921-2.655,0.921-4.937c0-1.785-0.271-3.131-0.812-4.038
		c-0.542-0.906-1.442-1.36-2.699-1.36h-2.194v11.85H-949.567z"/>
	<path fill="#1D1D1B" d="M-911.999,635.985v2.589c0,0.293-0.059,0.49-0.175,0.593c-0.117,0.103-0.307,0.153-0.571,0.153h-5.398
		v26.685c0,0.264-0.059,0.438-0.176,0.526c-0.117,0.088-0.468,0.14-1.053,0.154c-0.585,0.015-1.36,0.021-2.326,0.021V639.32h-5.969
		v-2.633c0-0.468,0.248-0.702,0.746-0.702H-911.999z"/>
	<path fill="#1D1D1B" d="M-896.551,637.609c0-0.585,0.058-0.98,0.175-1.186c0.117-0.204,0.388-0.329,0.812-0.373
		c0.424-0.044,1.295-0.065,2.611-0.065v30.02c0,0.264-0.059,0.438-0.175,0.526c-0.117,0.088-0.468,0.14-1.053,0.154
		c-0.586,0.015-1.376,0.021-2.37,0.021V637.609z"/>
	<path fill="#1D1D1B" d="M-875.288,666.355c-1.009-0.526-1.514-1.126-1.514-1.799c0-0.38,0.08-0.805,0.241-1.272
		c0.161-0.468,0.388-0.893,0.681-1.273c1.141,1.024,2.647,1.536,4.521,1.536c2.896,0,4.345-1.492,4.345-4.477
		c0-1.053-0.19-1.997-0.57-2.831c-0.381-0.833-1.054-1.821-2.019-2.962l-4.389-5.135c-0.995-1.199-1.705-2.289-2.129-3.27
		c-0.424-0.98-0.636-1.997-0.636-3.051c0-1.901,0.665-3.423,1.997-4.564c1.331-1.141,3.182-1.712,5.552-1.712
		c1.96,0,3.408,0.198,4.345,0.593c0.936,0.396,1.405,0.93,1.405,1.603c0,0.731-0.293,1.404-0.878,2.019
		c-0.322-0.264-0.885-0.505-1.69-0.725c-0.805-0.219-1.675-0.329-2.611-0.329c-1.316,0-2.363,0.264-3.138,0.79
		c-0.776,0.526-1.163,1.272-1.163,2.238c0,0.762,0.16,1.456,0.483,2.085c0.321,0.63,0.833,1.383,1.536,2.26l4.784,5.398
		c1.111,1.317,1.879,2.531,2.304,3.643c0.424,1.112,0.636,2.37,0.636,3.774c0,2.487-0.607,4.484-1.821,5.991
		c-1.214,1.507-3.211,2.26-5.991,2.26C-872.852,667.146-874.278,666.883-875.288,666.355z"/>
	<path fill="#1D1D1B" d="M-833.484,635.985v2.589c0,0.293-0.059,0.49-0.175,0.593c-0.117,0.103-0.307,0.153-0.571,0.153h-5.398
		v26.685c0,0.264-0.059,0.438-0.176,0.526c-0.117,0.088-0.468,0.14-1.053,0.154c-0.585,0.015-1.36,0.021-2.326,0.021V639.32h-5.969
		v-2.633c0-0.468,0.248-0.702,0.746-0.702H-833.484z"/>
</g>
<g>
	<rect x="-1033.249" y="647.141" fill="#1D1D1B" width="12.073" height="20.446"/>
	<rect x="-1028.065" y="647.141" fill="#424242" width="4.479" height="20.446"/>
	<rect x="-1031.594" y="641.835" fill="#A5A4A4" width="8.762" height="5.306"/>
	<rect x="-1027.213" y="641.835" fill="#CCCBCB" width="2.118" height="5.306"/>
	<g>
		<polygon fill="#EB6542" points="-1030.109,632.537 -1030.109,641.835 -1027.091,641.835 -1027.091,630.785 		"/>
		<polygon fill="#EB6542" points="-1025.247,629.714 -1025.095,629.714 -1025.095,641.835 -1024.073,641.835 -1024.073,629.032 		
			"/>
		<line fill="#F39F8D" x1="-1027.091" y1="630.785" x2="-1025.247" y2="629.714"/>
		<polygon fill="#F39F8D" points="-1025.247,629.714 -1027.091,630.785 -1027.091,641.835 -1025.095,641.835 -1025.095,629.714 		
			"/>
	</g>
</g>
<rect x="-1293.249" y="468.85" fill="#FFFFFF" width="726" height="137.15"/>
<g>
	<rect x="-1277.139" y="495.684" fill="none" width="702.674" height="108.825"/>
	<path d="M-1232.975,568.712H-1214c0,2.134-0.019,3.86-0.055,5.185c-0.038,1.324-0.185,2.134-0.441,2.427
		c-0.259,0.295-0.681,0.441-1.269,0.441h-26.035v-75.456c0-0.293,0.11-0.662,0.331-1.104c0.22-0.441,0.698-0.662,1.434-0.662h26.476
		c0,2.061-0.019,3.751-0.055,5.075c-0.038,1.323-0.166,2.15-0.386,2.481c-0.221,0.331-0.626,0.497-1.214,0.497h-17.761v23.056
		h16.658c0,1.985-0.019,3.641-0.055,4.964c-0.038,1.324-0.166,2.189-0.386,2.593c-0.221,0.405-0.625,0.606-1.213,0.606h-15.003
		V568.712z"/>
	<path d="M-1157.961,499.543V575c0,0.661-0.129,1.103-0.386,1.323c-0.258,0.221-1.122,0.35-2.592,0.387
		c-1.472,0.037-3.494,0.055-6.067,0.055l0.331-27.027c0.146-4.78,0.477-10.848,0.993-18.202c0.514-7.354,0.882-12.355,1.103-15.003
		l-1.875,6.619c-2.868,10.59-4.671,16.878-5.405,18.863l-5.847,16.989c-0.221,0.589-0.626,0.883-1.213,0.883h-3.861l-5.736-17.872
		c-0.957-2.868-3.31-11.178-7.061-24.931l-0.11,0.11c0.22,2.28,0.587,6.987,1.103,14.12c0.514,7.134,0.808,13.128,0.882,17.981
		l0.221,25.704c0,0.661-0.166,1.103-0.497,1.323c-0.331,0.221-1.196,0.35-2.592,0.387c-1.398,0.037-3.273,0.055-5.626,0.055v-75.456
		c0-0.734,0.146-1.214,0.441-1.435c0.293-0.221,0.734-0.331,1.324-0.331h6.398l10.591,33.536c0.808,2.501,1.544,4.947,2.206,7.336
		c0.662,2.392,1.103,4.027,1.324,4.909c0.221-0.882,0.643-2.499,1.269-4.854c0.624-2.353,1.269-4.706,1.931-7.061l9.818-32.102
		c0.221-0.662,0.441-1.121,0.662-1.379c0.221-0.257,0.588-0.387,1.103-0.387H-1157.961z"/>
	<path d="M-1100.707,499.543V575c0,0.661-0.129,1.103-0.386,1.323c-0.258,0.221-1.122,0.35-2.592,0.387
		c-1.472,0.037-3.494,0.055-6.067,0.055l0.331-27.027c0.146-4.78,0.477-10.848,0.993-18.202c0.514-7.354,0.882-12.355,1.103-15.003
		l-1.875,6.619c-2.868,10.59-4.671,16.878-5.405,18.863l-5.847,16.989c-0.221,0.589-0.626,0.883-1.213,0.883h-3.861l-5.736-17.872
		c-0.957-2.868-3.31-11.178-7.061-24.931l-0.11,0.11c0.22,2.28,0.587,6.987,1.103,14.12c0.514,7.134,0.808,13.128,0.882,17.981
		l0.221,25.704c0,0.661-0.166,1.103-0.497,1.323c-0.331,0.221-1.196,0.35-2.592,0.387c-1.398,0.037-3.273,0.055-5.626,0.055v-75.456
		c0-0.734,0.146-1.214,0.441-1.435c0.293-0.221,0.734-0.331,1.324-0.331h6.398l10.591,33.536c0.808,2.501,1.544,4.947,2.206,7.336
		c0.662,2.392,1.103,4.027,1.324,4.909c0.221-0.882,0.643-2.499,1.269-4.854c0.624-2.353,1.269-4.706,1.931-7.061l9.818-32.102
		c0.221-0.662,0.441-1.121,0.662-1.379c0.221-0.257,0.588-0.387,1.103-0.387H-1100.707z"/>
	<path d="M-1044.887,576.544c-0.515,0.293-1.619,0.441-3.31,0.441c-1.985,0-3.75-0.074-5.295-0.221l-4.633-19.637h-19.195
		l-4.302,18.093c-0.221,0.661-0.57,1.122-1.048,1.379c-0.479,0.257-1.527,0.386-3.144,0.386c-1.544,0-3.384-0.11-5.516-0.331
		l19.747-75.897c0.221-1.029,1.324-1.545,3.31-1.545c1.691,0,3.088,0.11,4.192,0.331l19.747,75.567
		C-1044.188,575.771-1044.373,576.251-1044.887,576.544z M-1060.11,549.075l-3.75-15.886c-2.134-8.972-3.42-16.068-3.861-21.291
		c-0.81,6.547-2.134,13.644-3.971,21.291l-3.751,15.886H-1060.11z"/>
	<path d="M-945.713,499.543l-14.562,77.553c-0.662,0.072-1.619,0.183-2.869,0.331c-1.251,0.146-2.758,0.221-4.523,0.221
		c-2.354,0-3.935-2.097-4.744-6.288l-5.736-25.042c-0.81-4.265-1.949-12.612-3.42-25.042c-1.397,11.914-2.465,20.226-3.199,24.932
		l-6.067,30.889c-2.427,0.293-5.149,0.441-8.164,0.441c-1.986,0-3.494-2.243-4.523-6.729c-1.544-7.648-3.861-19.637-6.95-35.963
		c-3.089-16.327-5.148-27.21-6.178-32.654c-0.074-0.293-0.11-0.697-0.11-1.213c0-0.514,0.146-0.883,0.441-1.104
		c0.293-0.221,0.809-0.331,1.544-0.331h7.281l8.053,42.913c1.103,6.693,2.207,14.893,3.31,24.601h0.552
		c0.367-7.28,1.324-15.48,2.868-24.601l6.839-36.515c0.221-1.029,0.458-1.727,0.717-2.096c0.257-0.367,0.79-0.552,1.6-0.552h6.288
		l7.833,39.162c1.103,5.811,2.096,12.907,2.979,21.291l0.331,3.31h0.662c0.809-9.708,1.727-17.907,2.758-24.601l7.17-40.266
		c0.146-0.954,0.348-1.636,0.607-2.04c0.257-0.403,0.79-0.607,1.6-0.607H-945.713z"/>
	<path d="M-898.939,576.544c-0.515,0.293-1.619,0.441-3.31,0.441c-1.985,0-3.75-0.074-5.295-0.221l-4.633-19.637h-19.195
		l-4.302,18.093c-0.221,0.661-0.57,1.122-1.048,1.379c-0.479,0.257-1.527,0.386-3.144,0.386c-1.544,0-3.384-0.11-5.516-0.331
		l19.747-75.897c0.221-1.029,1.324-1.545,3.31-1.545c1.691,0,3.088,0.11,4.192,0.331l19.747,75.567
		C-898.241,575.771-898.426,576.251-898.939,576.544z M-914.163,549.075l-3.75-15.886c-2.134-8.972-3.42-16.068-3.861-21.291
		c-0.81,6.547-2.134,13.644-3.971,21.291l-3.751,15.886H-914.163z"/>
	<path d="M-882.611,574.724c-2.942-2.096-5.112-5.864-6.509-11.308c-1.397-5.441-2.096-13.273-2.096-23.497
		c0-11.104,0.938-19.673,2.813-25.703s4.504-10.167,7.888-12.411c3.382-2.242,7.722-3.364,13.017-3.364c3.53,0,6.379,0.57,8.55,1.71
		c2.168,1.141,3.254,2.445,3.254,3.916c0,1.765-0.405,3.678-1.214,5.736c-1.031-0.809-2.316-1.451-3.861-1.931
		c-1.544-0.478-3.199-0.717-4.964-0.717c-3.899,0-6.988,0.976-9.267,2.923c-2.28,1.95-3.971,5.24-5.074,9.874
		c-1.104,4.633-1.655,11.069-1.655,19.305c0,8.458,0.441,14.838,1.324,19.141c0.882,4.302,2.132,7.17,3.75,8.604
		c1.617,1.434,3.751,2.15,6.398,2.15c1.765,0,3.216-0.293,4.357-0.882c1.14-0.588,1.893-1.214,2.262-1.876v-27.469h-8.274V533.3
		c0-1.176,0.698-1.765,2.096-1.765h14.451v41.368c-3.971,3.31-9.01,4.965-15.113,4.965
		C-875.625,577.868-879.67,576.819-882.611,574.724z"/>
	<path d="M-833.743,568.712h18.975c0,2.134-0.019,3.86-0.055,5.185c-0.038,1.324-0.185,2.134-0.441,2.427
		c-0.259,0.295-0.681,0.441-1.269,0.441h-26.035v-75.456c0-0.293,0.11-0.662,0.331-1.104c0.22-0.441,0.698-0.662,1.434-0.662h26.476
		c0,2.061-0.019,3.751-0.055,5.075c-0.038,1.323-0.166,2.15-0.386,2.481c-0.221,0.331-0.626,0.497-1.214,0.497h-17.761v23.056
		h16.658c0,1.985-0.019,3.641-0.055,4.964c-0.038,1.324-0.166,2.189-0.386,2.593c-0.221,0.405-0.625,0.606-1.213,0.606h-15.003
		V568.712z"/>
	<path d="M-758.728,499.543V575c0,0.661-0.129,1.103-0.386,1.323c-0.258,0.221-1.122,0.35-2.592,0.387
		c-1.472,0.037-3.494,0.055-6.067,0.055l0.331-27.027c0.146-4.78,0.477-10.848,0.993-18.202c0.514-7.354,0.882-12.355,1.103-15.003
		l-1.875,6.619c-2.868,10.59-4.671,16.878-5.405,18.863l-5.847,16.989c-0.221,0.589-0.626,0.883-1.213,0.883h-3.861l-5.736-17.872
		c-0.957-2.868-3.31-11.178-7.061-24.931l-0.11,0.11c0.22,2.28,0.587,6.987,1.103,14.12c0.514,7.134,0.808,13.128,0.882,17.981
		L-794.25,575c0,0.661-0.166,1.103-0.497,1.323c-0.331,0.221-1.196,0.35-2.592,0.387c-1.398,0.037-3.273,0.055-5.626,0.055v-75.456
		c0-0.734,0.146-1.214,0.441-1.435c0.293-0.221,0.734-0.331,1.324-0.331h6.398l10.591,33.536c0.808,2.501,1.544,4.947,2.206,7.336
		c0.662,2.392,1.103,4.027,1.324,4.909c0.221-0.882,0.643-2.499,1.269-4.854c0.624-2.353,1.269-4.706,1.931-7.061l9.818-32.102
		c0.221-0.662,0.441-1.121,0.662-1.379c0.221-0.257,0.588-0.387,1.103-0.387H-758.728z"/>
	<path d="M-702.909,576.544c-0.515,0.293-1.619,0.441-3.31,0.441c-1.985,0-3.75-0.074-5.295-0.221l-4.633-19.637h-19.195
		l-4.302,18.093c-0.221,0.661-0.57,1.122-1.048,1.379c-0.479,0.257-1.527,0.386-3.144,0.386c-1.544,0-3.384-0.11-5.516-0.331
		l19.747-75.897c0.221-1.029,1.324-1.545,3.31-1.545c1.691,0,3.088,0.11,4.192,0.331l19.747,75.567
		C-702.21,575.771-702.395,576.251-702.909,576.544z M-718.132,549.075l-3.75-15.886c-2.134-8.972-3.42-16.068-3.861-21.291
		c-0.81,6.547-2.134,13.644-3.971,21.291l-3.751,15.886H-718.132z"/>
	<path d="M-661.981,499.984c0.293-0.221,1.175-0.348,2.647-0.386c1.47-0.036,3.42-0.056,5.847-0.056V575
		c0,1.177-0.625,1.765-1.875,1.765h-6.619l-12.687-30.337c-1.765-4.706-5.259-15.186-10.48-31.44
		c0.293,3.163,0.551,8.458,0.772,15.886c0.221,7.429,0.331,13.202,0.331,17.319V575c0,0.661-0.129,1.103-0.386,1.323
		c-0.258,0.221-1.122,0.35-2.592,0.387c-1.472,0.037-3.42,0.055-5.847,0.055v-75.456c0-1.176,0.588-1.766,1.765-1.766h6.729
		l12.466,29.786c0.955,2.575,3.677,10.628,8.164,24.159c0.293,0.882,1.103,3.272,2.427,7.17v-0.331
		c-0.369-2.868-0.645-8.07-0.827-15.609c-0.185-7.538-0.276-13.329-0.276-17.375v-26.034
		C-662.422,500.646-662.276,500.205-661.981,499.984z"/>
	<path d="M-637.768,575.882c-2.538-1.323-3.806-2.83-3.806-4.522c0-0.955,0.202-2.022,0.607-3.199
		c0.403-1.176,0.974-2.243,1.71-3.199c2.868,2.575,6.655,3.861,11.362,3.861c7.281,0,10.921-3.751,10.921-11.253
		c0-2.647-0.479-5.02-1.434-7.115c-0.957-2.096-2.647-4.578-5.075-7.446l-11.031-12.907c-2.501-3.015-4.285-5.753-5.351-8.218
		c-1.067-2.464-1.6-5.02-1.6-7.667c0-4.78,1.672-8.605,5.02-11.474c3.346-2.868,7.998-4.302,13.955-4.302
		c4.926,0,8.566,0.496,10.921,1.489c2.353,0.992,3.53,2.335,3.53,4.026c0,1.839-0.736,3.53-2.206,5.074
		c-0.811-0.662-2.226-1.269-4.248-1.82c-2.023-0.551-4.211-0.827-6.563-0.827c-3.31,0-5.94,0.662-7.888,1.985
		c-1.95,1.324-2.923,3.199-2.923,5.627c0,1.913,0.403,3.659,1.213,5.239c0.809,1.583,2.096,3.476,3.861,5.682l12.025,13.569
		c2.794,3.309,4.725,6.361,5.792,9.156c1.065,2.795,1.6,5.957,1.6,9.486c0,6.252-1.527,11.271-4.578,15.059
		c-3.053,3.789-8.072,5.682-15.058,5.682C-631.646,577.868-635.231,577.206-637.768,575.882z"/>
</g>
<g>
	<rect x="-2079.5" y="873.113" fill="#FFFFFF" width="487" height="75"/>
	<g>
		<rect x="-2068.694" y="892.564" fill="none" width="468.075" height="35.003"/>
		<path fill="#1D1D1B" d="M-2030.396,894.099v30.02c0,0.264-0.051,0.438-0.154,0.526s-0.446,0.14-1.031,0.154
			c-0.585,0.015-1.39,0.021-2.414,0.021l0.131-10.753c0.059-1.901,0.19-4.315,0.395-7.241c0.205-2.926,0.351-4.916,0.439-5.969
			l-0.746,2.633c-1.141,4.214-1.858,6.715-2.15,7.505l-2.326,6.759c-0.088,0.235-0.249,0.352-0.483,0.352h-1.536l-2.282-7.11
			c-0.38-1.141-1.316-4.446-2.809-9.918l-0.044,0.044c0.088,0.907,0.234,2.779,0.439,5.617c0.204,2.839,0.321,5.223,0.351,7.154
			l0.088,10.226c0,0.264-0.066,0.438-0.198,0.526c-0.131,0.088-0.476,0.14-1.031,0.154c-0.556,0.015-1.302,0.021-2.238,0.021v-30.02
			c0-0.292,0.058-0.482,0.175-0.57c0.117-0.088,0.292-0.132,0.527-0.132h2.545l4.213,13.342c0.322,0.995,0.614,1.968,0.878,2.919
			c0.263,0.951,0.439,1.602,0.526,1.953c0.088-0.352,0.256-0.995,0.505-1.932c0.248-0.936,0.505-1.872,0.768-2.809l3.906-12.771
			c0.087-0.264,0.175-0.446,0.263-0.549c0.088-0.102,0.234-0.153,0.439-0.153H-2030.396z"/>
		<path fill="#1D1D1B" d="M-1996.778,924.732c-0.205,0.116-0.644,0.176-1.316,0.176c-0.79,0-1.492-0.029-2.107-0.088l-1.843-7.812
			h-7.636l-1.712,7.198c-0.088,0.263-0.227,0.446-0.417,0.549c-0.19,0.102-0.607,0.153-1.25,0.153c-0.615,0-1.346-0.044-2.195-0.132
			l7.856-30.195c0.087-0.409,0.526-0.614,1.316-0.614c0.673,0,1.229,0.044,1.668,0.132l7.856,30.063
			C-1996.5,924.426-1996.573,924.616-1996.778,924.732z M-2002.834,913.805l-1.492-6.32c-0.849-3.569-1.36-6.393-1.536-8.471
			c-0.322,2.604-0.849,5.428-1.58,8.471l-1.492,6.32H-2002.834z"/>
		<path fill="#1D1D1B" d="M-1966.846,894.713c0,0.117-0.044,0.249-0.132,0.396l-7.11,12.244c3.511,2.663,5.866,8.223,7.066,16.678
			c0.029,0.352-0.051,0.586-0.241,0.702c-0.191,0.116-0.593,0.176-1.207,0.176c-0.761,0-1.58-0.044-2.458-0.132
			c-0.703-3.716-1.42-6.649-2.151-8.8c-0.731-2.15-1.683-3.854-2.853-5.112c-0.381-0.439-0.966-0.834-1.755-1.186v14.439
			c0,0.264-0.052,0.438-0.154,0.526c-0.103,0.088-0.446,0.14-1.031,0.154c-0.586,0.015-1.39,0.021-2.414,0.021v-30.02
			c0-0.264,0.051-0.438,0.154-0.526c0.102-0.088,0.446-0.139,1.031-0.154c0.585-0.014,1.389-0.021,2.414-0.021v13.254l7.022-13.034
			c0.848-0.176,1.594-0.264,2.238-0.264C-1967.373,894.055-1966.846,894.274-1966.846,894.713z"/>
		<path fill="#1D1D1B" d="M-1947.404,921.616h7.549c0,0.85-0.007,1.536-0.022,2.063c-0.015,0.526-0.073,0.849-0.175,0.965
			c-0.103,0.117-0.271,0.176-0.505,0.176h-10.357v-30.02c0-0.116,0.044-0.264,0.131-0.438c0.088-0.176,0.278-0.264,0.571-0.264
			h10.533c0,0.819-0.008,1.492-0.022,2.019c-0.015,0.526-0.066,0.856-0.154,0.987c-0.087,0.132-0.249,0.198-0.482,0.198h-7.066
			v9.172h6.627c0,0.79-0.008,1.448-0.022,1.976c-0.015,0.526-0.066,0.871-0.154,1.031c-0.088,0.161-0.249,0.241-0.482,0.241h-5.969
			V921.616z"/>
		<path fill="#1D1D1B" d="M-1924.516,911.5c0.073-0.395,0.286-0.592,0.637-0.592h8.207c0,1.229-0.037,2.048-0.11,2.457
			c-0.073,0.41-0.271,0.614-0.592,0.614h-8.251C-1924.625,912.723-1924.589,911.896-1924.516,911.5z"/>
		<path fill="#1D1D1B" d="M-1896.12,924.03c-1.156-0.818-1.917-1.894-2.282-3.226c-0.366-1.331-0.548-2.991-0.548-4.981v-20.979
			c0-0.264,0.051-0.439,0.153-0.526c0.103-0.088,0.454-0.146,1.054-0.176c0.599-0.029,1.411-0.044,2.436-0.044v21.856
			c0,2.019,0.278,3.526,0.834,4.521c0.556,0.995,1.697,1.492,3.423,1.492c0.731,0,1.462-0.073,2.194-0.22
			c0.731-0.146,1.287-0.321,1.668-0.526v-26.377c0-0.264,0.058-0.439,0.175-0.526c0.117-0.088,0.468-0.146,1.053-0.176
			c0.585-0.029,1.375-0.044,2.37-0.044v29.581c-0.614,0.409-1.617,0.775-3.006,1.097c-1.39,0.321-2.875,0.482-4.455,0.482
			C-1893.274,925.259-1894.964,924.849-1896.12,924.03z"/>
		<path fill="#1D1D1B" d="M-1855.435,896.161c1.302,1.376,1.953,3.57,1.953,6.583c0,3.395-0.739,5.845-2.216,7.352
			c-1.478,1.508-3.417,2.261-5.815,2.261h-1.58v11.762c0,0.264-0.052,0.438-0.154,0.526c-0.103,0.088-0.446,0.14-1.031,0.154
			c-0.586,0.015-1.361,0.021-2.326,0.021v-30.02c0-0.264,0.051-0.446,0.153-0.549c0.103-0.102,0.286-0.153,0.549-0.153h4.345
			C-1858.778,894.099-1856.737,894.786-1855.435,896.161z M-1858.31,907.507c0.614-1.039,0.921-2.758,0.921-5.157
			c0-1.668-0.271-2.94-0.812-3.818c-0.542-0.878-1.442-1.316-2.699-1.316h-2.194v11.85h1.931
			C-1859.875,909.064-1858.924,908.545-1858.31,907.507z"/>
		<path fill="#1D1D1B" d="M-1756.841,924.732c-0.205,0.116-0.644,0.176-1.316,0.176c-0.79,0-1.492-0.029-2.107-0.088l-1.843-7.812
			h-7.636l-1.712,7.198c-0.088,0.263-0.227,0.446-0.417,0.549c-0.19,0.102-0.607,0.153-1.25,0.153c-0.615,0-1.346-0.044-2.195-0.132
			l7.856-30.195c0.087-0.409,0.526-0.614,1.316-0.614c0.673,0,1.229,0.044,1.668,0.132l7.856,30.063
			C-1756.563,924.426-1756.636,924.616-1756.841,924.732z M-1762.897,913.805l-1.492-6.32c-0.849-3.569-1.36-6.393-1.536-8.471
			c-0.322,2.604-0.849,5.428-1.58,8.471l-1.492,6.32H-1762.897z"/>
		<path fill="#1D1D1B" d="M-1729.345,916.394c0.805,2.106,1.309,4.652,1.514,7.637c0,0.352-0.103,0.586-0.307,0.702
			c-0.205,0.116-0.702,0.176-1.492,0.176c-0.322,0-1.009-0.029-2.063-0.088c-0.205-3.218-0.666-5.844-1.382-7.878
			c-0.717-2.033-1.456-3.577-2.216-4.63c-0.205,0.029-0.498,0.044-0.878,0.044h-1.58v11.762c0,0.264-0.052,0.438-0.154,0.526
			c-0.103,0.088-0.446,0.14-1.031,0.154c-0.586,0.015-1.361,0.021-2.326,0.021v-30.02c0-0.116,0.044-0.264,0.132-0.438
			c0.087-0.176,0.277-0.264,0.57-0.264h4.345c2.78,0,4.82,0.688,6.123,2.062c1.302,1.376,1.953,3.57,1.953,6.583
			c0,4.302-1.273,7.184-3.818,8.646C-1731.02,912.619-1730.15,914.287-1729.345,916.394z M-1735.818,909.064
			c1.287,0,2.238-0.505,2.853-1.515c0.614-1.009,0.921-2.655,0.921-4.937c0-1.785-0.271-3.131-0.812-4.038
			c-0.542-0.906-1.442-1.36-2.699-1.36h-2.194v11.85H-1735.818z"/>
		<path fill="#1D1D1B" d="M-1698.25,894.099v2.589c0,0.293-0.059,0.49-0.175,0.593c-0.117,0.103-0.307,0.153-0.571,0.153h-5.398
			v26.685c0,0.264-0.059,0.438-0.176,0.526c-0.117,0.088-0.468,0.14-1.053,0.154c-0.585,0.015-1.36,0.021-2.326,0.021v-27.387
			h-5.969v-2.633c0-0.468,0.248-0.702,0.746-0.702H-1698.25z"/>
		<path fill="#1D1D1B" d="M-1682.802,895.723c0-0.585,0.058-0.98,0.175-1.186c0.117-0.204,0.388-0.329,0.812-0.373
			c0.424-0.044,1.295-0.065,2.611-0.065v30.02c0,0.264-0.059,0.438-0.175,0.526c-0.117,0.088-0.468,0.14-1.053,0.154
			c-0.586,0.015-1.376,0.021-2.37,0.021V895.723z"/>
		<path fill="#1D1D1B" d="M-1661.539,924.469c-1.009-0.526-1.514-1.126-1.514-1.799c0-0.38,0.08-0.805,0.241-1.272
			c0.161-0.468,0.388-0.893,0.681-1.273c1.141,1.024,2.647,1.536,4.521,1.536c2.896,0,4.345-1.492,4.345-4.477
			c0-1.053-0.19-1.997-0.57-2.831c-0.381-0.833-1.054-1.821-2.019-2.962l-4.389-5.135c-0.995-1.199-1.705-2.289-2.129-3.27
			c-0.424-0.98-0.636-1.997-0.636-3.051c0-1.901,0.665-3.423,1.997-4.564c1.331-1.141,3.182-1.712,5.552-1.712
			c1.96,0,3.408,0.198,4.345,0.593c0.936,0.396,1.405,0.93,1.405,1.603c0,0.731-0.293,1.404-0.878,2.019
			c-0.322-0.264-0.885-0.505-1.69-0.725c-0.805-0.219-1.675-0.329-2.611-0.329c-1.316,0-2.363,0.264-3.138,0.79
			c-0.776,0.526-1.163,1.272-1.163,2.238c0,0.762,0.16,1.456,0.483,2.085c0.321,0.63,0.833,1.383,1.536,2.26l4.784,5.398
			c1.111,1.317,1.879,2.531,2.304,3.643c0.424,1.112,0.636,2.37,0.636,3.774c0,2.487-0.607,4.484-1.821,5.991
			c-1.214,1.507-3.211,2.26-5.991,2.26C-1659.103,925.259-1660.529,924.996-1661.539,924.469z"/>
		<path fill="#1D1D1B" d="M-1619.735,894.099v2.589c0,0.293-0.059,0.49-0.175,0.593c-0.117,0.103-0.307,0.153-0.571,0.153h-5.398
			v26.685c0,0.264-0.059,0.438-0.176,0.526c-0.117,0.088-0.468,0.14-1.053,0.154c-0.585,0.015-1.36,0.021-2.326,0.021v-27.387
			h-5.969v-2.633c0-0.468,0.248-0.702,0.746-0.702H-1619.735z"/>
	</g>
	<g>
		<rect x="-1819.5" y="905.254" fill="#1D1D1B" width="12.073" height="20.446"/>
		<rect x="-1814.316" y="905.254" fill="#424242" width="4.479" height="20.446"/>
		<rect x="-1817.845" y="899.948" fill="#A5A4A4" width="8.762" height="5.306"/>
		<rect x="-1813.464" y="899.948" fill="#CCCBCB" width="2.118" height="5.306"/>
		<g>
			<polygon fill="#EB6542" points="-1816.36,890.65 -1816.36,899.948 -1813.342,899.948 -1813.342,888.897 			"/>
			<polygon fill="#EB6542" points="-1811.498,887.826 -1811.346,887.826 -1811.346,899.948 -1810.324,899.948 -1810.324,887.145 			
				"/>
			<line fill="#F39F8D" x1="-1813.342" y1="888.897" x2="-1811.498" y2="887.826"/>
			<polygon fill="#F39F8D" points="-1811.498,887.826 -1813.342,888.897 -1813.342,899.948 -1811.346,899.948 -1811.346,887.826 			
				"/>
		</g>
	</g>
</g>
<g>
	<rect x="-2199" y="716.963" fill="#FFFFFF" width="726" height="137.15"/>
	<g>
		<rect x="-2182.89" y="743.796" fill="none" width="702.674" height="108.825"/>
		<path d="M-2138.726,816.824h18.975c0,2.134-0.019,3.86-0.055,5.185c-0.038,1.324-0.185,2.134-0.441,2.427
			c-0.259,0.295-0.681,0.441-1.269,0.441h-26.035v-75.456c0-0.293,0.11-0.662,0.331-1.104c0.22-0.441,0.698-0.662,1.434-0.662
			h26.476c0,2.061-0.019,3.751-0.055,5.075c-0.038,1.323-0.166,2.15-0.386,2.481c-0.221,0.331-0.626,0.497-1.214,0.497h-17.761
			v23.056h16.658c0,1.985-0.019,3.641-0.055,4.964c-0.038,1.324-0.166,2.189-0.386,2.593c-0.221,0.405-0.625,0.606-1.213,0.606
			h-15.003V816.824z"/>
		<path d="M-2063.712,747.655v75.457c0,0.661-0.129,1.103-0.386,1.323c-0.258,0.221-1.122,0.35-2.592,0.387
			c-1.472,0.037-3.494,0.055-6.067,0.055l0.331-27.027c0.146-4.78,0.477-10.848,0.993-18.202c0.514-7.354,0.882-12.355,1.103-15.003
			l-1.875,6.619c-2.868,10.59-4.671,16.878-5.405,18.863l-5.847,16.989c-0.221,0.589-0.626,0.883-1.213,0.883h-3.861l-5.736-17.872
			c-0.957-2.868-3.31-11.178-7.061-24.931l-0.11,0.11c0.22,2.28,0.587,6.987,1.103,14.12c0.514,7.134,0.808,13.128,0.882,17.981
			l0.221,25.704c0,0.661-0.166,1.103-0.497,1.323c-0.331,0.221-1.196,0.35-2.592,0.387c-1.398,0.037-3.273,0.055-5.626,0.055
			v-75.456c0-0.734,0.146-1.214,0.441-1.435c0.293-0.221,0.734-0.331,1.324-0.331h6.398l10.591,33.536
			c0.808,2.501,1.544,4.947,2.206,7.336c0.662,2.392,1.103,4.027,1.324,4.909c0.221-0.882,0.643-2.499,1.269-4.854
			c0.624-2.353,1.269-4.706,1.931-7.061l9.818-32.102c0.221-0.662,0.441-1.121,0.662-1.379c0.221-0.257,0.588-0.387,1.103-0.387
			H-2063.712z"/>
		<path d="M-2006.458,747.655v75.457c0,0.661-0.129,1.103-0.386,1.323c-0.258,0.221-1.122,0.35-2.592,0.387
			c-1.472,0.037-3.494,0.055-6.067,0.055l0.331-27.027c0.146-4.78,0.477-10.848,0.993-18.202c0.514-7.354,0.882-12.355,1.103-15.003
			l-1.875,6.619c-2.868,10.59-4.671,16.878-5.405,18.863l-5.847,16.989c-0.221,0.589-0.626,0.883-1.213,0.883h-3.861l-5.736-17.872
			c-0.957-2.868-3.31-11.178-7.061-24.931l-0.11,0.11c0.22,2.28,0.587,6.987,1.103,14.12c0.514,7.134,0.808,13.128,0.882,17.981
			l0.221,25.704c0,0.661-0.166,1.103-0.497,1.323c-0.331,0.221-1.196,0.35-2.592,0.387c-1.398,0.037-3.273,0.055-5.626,0.055
			v-75.456c0-0.734,0.146-1.214,0.441-1.435c0.293-0.221,0.734-0.331,1.324-0.331h6.398l10.591,33.536
			c0.808,2.501,1.544,4.947,2.206,7.336c0.662,2.392,1.103,4.027,1.324,4.909c0.221-0.882,0.643-2.499,1.269-4.854
			c0.624-2.353,1.269-4.706,1.931-7.061l9.818-32.102c0.221-0.662,0.441-1.121,0.662-1.379c0.221-0.257,0.588-0.387,1.103-0.387
			H-2006.458z"/>
		<path d="M-1950.638,824.656c-0.515,0.293-1.619,0.441-3.31,0.441c-1.985,0-3.75-0.074-5.295-0.221l-4.633-19.637h-19.195
			l-4.302,18.093c-0.221,0.661-0.57,1.122-1.048,1.379c-0.479,0.257-1.527,0.386-3.144,0.386c-1.544,0-3.384-0.11-5.516-0.331
			l19.747-75.897c0.221-1.029,1.324-1.545,3.31-1.545c1.691,0,3.088,0.11,4.192,0.331l19.747,75.567
			C-1949.939,823.884-1950.124,824.363-1950.638,824.656z M-1965.861,797.188l-3.75-15.886c-2.134-8.972-3.42-16.068-3.861-21.291
			c-0.81,6.547-2.134,13.644-3.971,21.291l-3.751,15.886H-1965.861z"/>
		<path d="M-1851.464,747.655l-14.562,77.553c-0.662,0.072-1.619,0.183-2.869,0.331c-1.251,0.146-2.758,0.221-4.523,0.221
			c-2.354,0-3.935-2.097-4.744-6.288l-5.736-25.042c-0.81-4.265-1.949-12.612-3.42-25.042c-1.397,11.914-2.465,20.226-3.199,24.932
			l-6.067,30.889c-2.427,0.293-5.149,0.441-8.164,0.441c-1.986,0-3.494-2.243-4.523-6.729c-1.544-7.648-3.861-19.637-6.95-35.963
			c-3.089-16.327-5.148-27.21-6.178-32.654c-0.074-0.293-0.11-0.697-0.11-1.213c0-0.514,0.146-0.883,0.441-1.104
			c0.293-0.221,0.809-0.331,1.544-0.331h7.281l8.053,42.913c1.103,6.693,2.207,14.893,3.31,24.601h0.552
			c0.367-7.28,1.324-15.48,2.868-24.601l6.839-36.515c0.221-1.029,0.458-1.727,0.717-2.096c0.257-0.367,0.79-0.552,1.6-0.552h6.288
			l7.833,39.162c1.103,5.811,2.096,12.907,2.979,21.291l0.331,3.31h0.662c0.809-9.708,1.727-17.907,2.758-24.601l7.17-40.266
			c0.146-0.954,0.348-1.636,0.607-2.04c0.257-0.403,0.79-0.607,1.6-0.607H-1851.464z"/>
		<path d="M-1804.69,824.656c-0.515,0.293-1.619,0.441-3.31,0.441c-1.985,0-3.75-0.074-5.295-0.221l-4.633-19.637h-19.195
			l-4.302,18.093c-0.221,0.661-0.57,1.122-1.048,1.379c-0.479,0.257-1.527,0.386-3.144,0.386c-1.544,0-3.384-0.11-5.516-0.331
			l19.747-75.897c0.221-1.029,1.324-1.545,3.31-1.545c1.691,0,3.088,0.11,4.192,0.331l19.747,75.567
			C-1803.992,823.884-1804.177,824.363-1804.69,824.656z M-1819.914,797.188l-3.75-15.886c-2.134-8.972-3.42-16.068-3.861-21.291
			c-0.81,6.547-2.134,13.644-3.971,21.291l-3.751,15.886H-1819.914z"/>
		<path d="M-1788.362,822.836c-2.942-2.096-5.112-5.864-6.509-11.308c-1.397-5.441-2.096-13.273-2.096-23.497
			c0-11.104,0.938-19.673,2.813-25.703s4.504-10.167,7.888-12.411c3.382-2.242,7.722-3.364,13.017-3.364
			c3.53,0,6.379,0.57,8.55,1.71c2.168,1.141,3.254,2.445,3.254,3.916c0,1.765-0.405,3.678-1.214,5.736
			c-1.031-0.809-2.316-1.451-3.861-1.931c-1.544-0.478-3.199-0.717-4.964-0.717c-3.899,0-6.988,0.976-9.267,2.923
			c-2.28,1.95-3.971,5.24-5.074,9.874c-1.104,4.633-1.655,11.069-1.655,19.305c0,8.458,0.441,14.838,1.324,19.141
			c0.882,4.302,2.132,7.17,3.75,8.604c1.617,1.434,3.751,2.15,6.398,2.15c1.765,0,3.216-0.293,4.357-0.882
			c1.14-0.588,1.893-1.214,2.262-1.876v-27.469h-8.274v-5.626c0-1.176,0.698-1.765,2.096-1.765h14.451v41.368
			c-3.971,3.31-9.01,4.965-15.113,4.965C-1781.376,825.98-1785.421,824.932-1788.362,822.836z"/>
		<path d="M-1739.494,816.824h18.975c0,2.134-0.019,3.86-0.055,5.185c-0.038,1.324-0.185,2.134-0.441,2.427
			c-0.259,0.295-0.681,0.441-1.269,0.441h-26.035v-75.456c0-0.293,0.11-0.662,0.331-1.104c0.22-0.441,0.698-0.662,1.434-0.662
			h26.476c0,2.061-0.019,3.751-0.055,5.075c-0.038,1.323-0.166,2.15-0.386,2.481c-0.221,0.331-0.626,0.497-1.214,0.497h-17.761
			v23.056h16.658c0,1.985-0.019,3.641-0.055,4.964c-0.038,1.324-0.166,2.189-0.386,2.593c-0.221,0.405-0.625,0.606-1.213,0.606
			h-15.003V816.824z"/>
		<path d="M-1664.479,747.655v75.457c0,0.661-0.129,1.103-0.386,1.323c-0.258,0.221-1.122,0.35-2.592,0.387
			c-1.472,0.037-3.494,0.055-6.067,0.055l0.331-27.027c0.146-4.78,0.477-10.848,0.993-18.202c0.514-7.354,0.882-12.355,1.103-15.003
			l-1.875,6.619c-2.868,10.59-4.671,16.878-5.405,18.863l-5.847,16.989c-0.221,0.589-0.626,0.883-1.213,0.883h-3.861l-5.736-17.872
			c-0.957-2.868-3.31-11.178-7.061-24.931l-0.11,0.11c0.22,2.28,0.587,6.987,1.103,14.12c0.514,7.134,0.808,13.128,0.882,17.981
			l0.221,25.704c0,0.661-0.166,1.103-0.497,1.323c-0.331,0.221-1.196,0.35-2.592,0.387c-1.398,0.037-3.273,0.055-5.626,0.055
			v-75.456c0-0.734,0.146-1.214,0.441-1.435c0.293-0.221,0.734-0.331,1.324-0.331h6.398l10.591,33.536
			c0.808,2.501,1.544,4.947,2.206,7.336c0.662,2.392,1.103,4.027,1.324,4.909c0.221-0.882,0.643-2.499,1.269-4.854
			c0.624-2.353,1.269-4.706,1.931-7.061l9.818-32.102c0.221-0.662,0.441-1.121,0.662-1.379c0.221-0.257,0.588-0.387,1.103-0.387
			H-1664.479z"/>
		<path d="M-1608.66,824.656c-0.515,0.293-1.619,0.441-3.31,0.441c-1.985,0-3.75-0.074-5.295-0.221l-4.633-19.637h-19.195
			l-4.302,18.093c-0.221,0.661-0.57,1.122-1.048,1.379c-0.479,0.257-1.527,0.386-3.144,0.386c-1.544,0-3.384-0.11-5.516-0.331
			l19.747-75.897c0.221-1.029,1.324-1.545,3.31-1.545c1.691,0,3.088,0.11,4.192,0.331l19.747,75.567
			C-1607.961,823.884-1608.146,824.363-1608.66,824.656z M-1623.883,797.188l-3.75-15.886c-2.134-8.972-3.42-16.068-3.861-21.291
			c-0.81,6.547-2.134,13.644-3.971,21.291l-3.751,15.886H-1623.883z"/>
		<path d="M-1567.732,748.097c0.293-0.221,1.175-0.348,2.647-0.386c1.47-0.036,3.42-0.056,5.847-0.056v75.457
			c0,1.177-0.625,1.765-1.875,1.765h-6.619l-12.687-30.337c-1.765-4.706-5.259-15.186-10.48-31.44
			c0.293,3.163,0.551,8.458,0.772,15.886c0.221,7.429,0.331,13.202,0.331,17.319v26.808c0,0.661-0.129,1.103-0.386,1.323
			c-0.258,0.221-1.122,0.35-2.592,0.387c-1.472,0.037-3.42,0.055-5.847,0.055v-75.456c0-1.176,0.588-1.766,1.765-1.766h6.729
			l12.466,29.786c0.955,2.575,3.677,10.628,8.164,24.159c0.293,0.882,1.103,3.272,2.427,7.17v-0.331
			c-0.369-2.868-0.645-8.07-0.827-15.609c-0.185-7.538-0.276-13.329-0.276-17.375v-26.034
			C-1568.173,748.759-1568.027,748.317-1567.732,748.097z"/>
		<path d="M-1543.52,823.994c-2.538-1.323-3.806-2.83-3.806-4.522c0-0.955,0.202-2.022,0.607-3.199
			c0.403-1.176,0.974-2.243,1.71-3.199c2.868,2.575,6.655,3.861,11.362,3.861c7.281,0,10.921-3.751,10.921-11.253
			c0-2.647-0.479-5.02-1.434-7.115c-0.957-2.096-2.647-4.578-5.075-7.446l-11.031-12.907c-2.501-3.015-4.285-5.753-5.351-8.218
			c-1.067-2.464-1.6-5.02-1.6-7.667c0-4.78,1.672-8.605,5.02-11.474c3.346-2.868,7.998-4.302,13.955-4.302
			c4.926,0,8.566,0.496,10.921,1.489c2.353,0.992,3.53,2.335,3.53,4.026c0,1.839-0.736,3.53-2.206,5.074
			c-0.811-0.662-2.226-1.269-4.248-1.82c-2.023-0.551-4.211-0.827-6.563-0.827c-3.31,0-5.94,0.662-7.888,1.985
			c-1.95,1.324-2.923,3.199-2.923,5.627c0,1.913,0.403,3.659,1.213,5.239c0.809,1.583,2.096,3.476,3.861,5.682l12.025,13.569
			c2.794,3.309,4.725,6.361,5.792,9.156c1.065,2.795,1.6,5.957,1.6,9.486c0,6.252-1.527,11.271-4.578,15.059
			c-3.053,3.789-8.072,5.682-15.058,5.682C-1537.397,825.98-1540.982,825.318-1543.52,823.994z"/>
	</g>
</g>
<g>
	<rect x="119.5" y="156.15" fill="#FFFFFF" width="487" height="75"/>
	<g>
		<rect x="130.306" y="175.601" fill="none" width="468.075" height="35.003"/>
		<path fill="#1D1D1B" d="M168.604,177.136v30.02c0,0.264-0.051,0.438-0.154,0.526s-0.446,0.14-1.031,0.154
			c-0.585,0.015-1.39,0.021-2.414,0.021l0.131-10.753c0.059-1.901,0.19-4.315,0.395-7.241c0.205-2.926,0.351-4.916,0.439-5.969
			l-0.746,2.633c-1.141,4.214-1.858,6.715-2.15,7.505l-2.326,6.759c-0.088,0.235-0.249,0.352-0.483,0.352h-1.536l-2.282-7.11
			c-0.38-1.141-1.316-4.446-2.809-9.918l-0.044,0.044c0.088,0.907,0.234,2.779,0.439,5.617c0.204,2.839,0.321,5.223,0.351,7.154
			l0.088,10.226c0,0.264-0.066,0.438-0.198,0.526c-0.131,0.088-0.476,0.14-1.031,0.154c-0.556,0.015-1.302,0.021-2.238,0.021v-30.02
			c0-0.292,0.058-0.482,0.175-0.57c0.117-0.088,0.292-0.132,0.527-0.132h2.545l4.213,13.342c0.322,0.995,0.614,1.968,0.878,2.919
			c0.263,0.951,0.439,1.602,0.526,1.953c0.088-0.352,0.256-0.995,0.505-1.932c0.248-0.936,0.505-1.872,0.768-2.809l3.906-12.771
			c0.087-0.264,0.175-0.446,0.263-0.549c0.088-0.102,0.234-0.153,0.439-0.153H168.604z"/>
		<path fill="#1D1D1B" d="M202.222,207.77c-0.205,0.116-0.644,0.176-1.316,0.176c-0.79,0-1.492-0.029-2.107-0.088l-1.843-7.812
			h-7.636l-1.712,7.198c-0.088,0.263-0.227,0.446-0.417,0.549c-0.19,0.102-0.607,0.153-1.25,0.153c-0.615,0-1.346-0.044-2.195-0.132
			l7.856-30.195c0.087-0.409,0.526-0.614,1.316-0.614c0.673,0,1.229,0.044,1.668,0.132l7.856,30.063
			C202.5,207.463,202.427,207.653,202.222,207.77z M196.166,196.842l-1.492-6.32c-0.849-3.569-1.36-6.393-1.536-8.471
			c-0.322,2.604-0.849,5.428-1.58,8.471l-1.492,6.32H196.166z"/>
		<path fill="#1D1D1B" d="M232.154,177.75c0,0.117-0.044,0.249-0.132,0.396l-7.11,12.244c3.511,2.663,5.866,8.223,7.066,16.678
			c0.029,0.352-0.051,0.586-0.241,0.702c-0.191,0.116-0.593,0.176-1.207,0.176c-0.761,0-1.58-0.044-2.458-0.132
			c-0.703-3.716-1.42-6.649-2.151-8.8c-0.731-2.15-1.683-3.854-2.853-5.112c-0.381-0.439-0.966-0.834-1.755-1.186v14.439
			c0,0.264-0.052,0.438-0.154,0.526c-0.103,0.088-0.446,0.14-1.031,0.154c-0.586,0.015-1.39,0.021-2.414,0.021v-30.02
			c0-0.264,0.051-0.438,0.154-0.526c0.102-0.088,0.446-0.139,1.031-0.154c0.585-0.014,1.389-0.021,2.414-0.021v13.254l7.022-13.034
			c0.848-0.176,1.594-0.264,2.238-0.264C231.627,177.092,232.154,177.312,232.154,177.75z"/>
		<path fill="#1D1D1B" d="M251.596,204.653h7.549c0,0.85-0.007,1.536-0.022,2.063c-0.015,0.526-0.073,0.849-0.175,0.965
			c-0.103,0.117-0.271,0.176-0.505,0.176h-10.357v-30.02c0-0.116,0.044-0.264,0.131-0.438c0.088-0.176,0.278-0.264,0.571-0.264
			h10.533c0,0.819-0.008,1.492-0.022,2.019c-0.015,0.526-0.066,0.856-0.154,0.987c-0.087,0.132-0.249,0.198-0.482,0.198h-7.066
			v9.172h6.627c0,0.79-0.008,1.448-0.022,1.976c-0.015,0.526-0.066,0.871-0.154,1.031c-0.088,0.161-0.249,0.241-0.482,0.241h-5.969
			V204.653z"/>
		<path fill="#1D1D1B" d="M274.484,194.537c0.073-0.395,0.286-0.592,0.637-0.592h8.207c0,1.229-0.037,2.048-0.11,2.457
			c-0.073,0.41-0.271,0.614-0.592,0.614h-8.251C274.375,195.76,274.411,194.933,274.484,194.537z"/>
		<path fill="#1D1D1B" d="M302.88,207.067c-1.156-0.818-1.917-1.894-2.282-3.226c-0.366-1.331-0.548-2.991-0.548-4.981v-20.979
			c0-0.264,0.051-0.439,0.153-0.526c0.103-0.088,0.454-0.146,1.054-0.176c0.599-0.029,1.411-0.044,2.436-0.044v21.856
			c0,2.019,0.278,3.526,0.834,4.521c0.556,0.995,1.697,1.492,3.423,1.492c0.731,0,1.462-0.073,2.194-0.22
			c0.731-0.146,1.287-0.321,1.668-0.526v-26.377c0-0.264,0.058-0.439,0.175-0.526c0.117-0.088,0.468-0.146,1.053-0.176
			c0.585-0.029,1.375-0.044,2.37-0.044v29.581c-0.614,0.409-1.617,0.775-3.006,1.097c-1.39,0.321-2.875,0.482-4.455,0.482
			C305.726,208.296,304.036,207.886,302.88,207.067z"/>
		<path fill="#1D1D1B" d="M343.565,179.198c1.301,1.376,1.953,3.57,1.953,6.583c0,3.395-0.74,5.845-2.217,7.352
			c-1.479,1.508-3.416,2.261-5.815,2.261h-1.579v11.762c0,0.264-0.053,0.438-0.154,0.526c-0.104,0.088-0.446,0.14-1.031,0.154
			c-0.586,0.015-1.361,0.021-2.326,0.021v-30.02c0-0.264,0.051-0.446,0.153-0.549c0.103-0.102,0.286-0.153,0.549-0.153h4.345
			C340.222,177.136,342.263,177.823,343.565,179.198z M340.69,190.544c0.614-1.039,0.922-2.758,0.922-5.157
			c0-1.668-0.271-2.94-0.812-3.818s-1.441-1.316-2.699-1.316h-2.193v11.85h1.93C339.124,192.102,340.075,191.582,340.69,190.544z"/>
		<path fill="#1D1D1B" d="M442.159,207.77c-0.205,0.116-0.644,0.176-1.316,0.176c-0.79,0-1.492-0.029-2.107-0.088l-1.843-7.812
			h-7.636l-1.713,7.198c-0.088,0.263-0.227,0.446-0.416,0.549c-0.191,0.102-0.607,0.153-1.251,0.153
			c-0.614,0-1.347-0.044-2.194-0.132l7.855-30.195c0.088-0.409,0.527-0.614,1.316-0.614c0.674,0,1.229,0.044,1.668,0.132
			l7.856,30.063C442.437,207.463,442.364,207.653,442.159,207.77z M436.103,196.842l-1.492-6.32
			c-0.849-3.569-1.36-6.393-1.536-8.471c-0.322,2.604-0.849,5.428-1.579,8.471l-1.492,6.32H436.103z"/>
		<path fill="#1D1D1B" d="M469.655,199.431c0.805,2.106,1.309,4.652,1.514,7.637c0,0.352-0.103,0.586-0.307,0.702
			c-0.205,0.116-0.702,0.176-1.492,0.176c-0.322,0-1.01-0.029-2.062-0.088c-0.205-3.218-0.666-5.844-1.383-7.878
			c-0.717-2.033-1.456-3.577-2.217-4.63c-0.205,0.029-0.498,0.044-0.877,0.044h-1.58v11.762c0,0.264-0.052,0.438-0.154,0.526
			s-0.445,0.14-1.031,0.154s-1.36,0.021-2.326,0.021v-30.02c0-0.116,0.045-0.264,0.133-0.438c0.087-0.176,0.277-0.264,0.57-0.264
			h4.344c2.78,0,4.82,0.688,6.123,2.062c1.302,1.376,1.953,3.57,1.953,6.583c0,4.302-1.273,7.184-3.818,8.646
			C467.98,195.656,468.851,197.324,469.655,199.431z M463.182,192.102c1.287,0,2.238-0.505,2.853-1.515
			c0.615-1.009,0.922-2.655,0.922-4.937c0-1.785-0.271-3.131-0.812-4.038c-0.542-0.906-1.442-1.36-2.699-1.36h-2.194v11.85H463.182z
			"/>
		<path fill="#1D1D1B" d="M500.75,177.136v2.589c0,0.293-0.059,0.49-0.175,0.593c-0.117,0.103-0.308,0.153-0.571,0.153h-5.397
			v26.685c0,0.264-0.06,0.438-0.176,0.526c-0.117,0.088-0.469,0.14-1.054,0.154s-1.36,0.021-2.326,0.021v-27.387h-5.969v-2.633
			c0-0.468,0.248-0.702,0.746-0.702H500.75z"/>
		<path fill="#1D1D1B" d="M516.198,178.76c0-0.585,0.059-0.98,0.176-1.186c0.116-0.204,0.387-0.329,0.812-0.373
			c0.424-0.044,1.295-0.065,2.611-0.065v30.02c0,0.264-0.059,0.438-0.175,0.526c-0.117,0.088-0.469,0.14-1.054,0.154
			c-0.586,0.015-1.376,0.021-2.37,0.021V178.76z"/>
		<path fill="#1D1D1B" d="M537.462,207.506c-1.01-0.526-1.515-1.126-1.515-1.799c0-0.38,0.08-0.805,0.241-1.272
			c0.16-0.468,0.388-0.893,0.681-1.273c1.142,1.024,2.647,1.536,4.521,1.536c2.896,0,4.345-1.492,4.345-4.477
			c0-1.053-0.19-1.997-0.57-2.831c-0.381-0.833-1.054-1.821-2.019-2.962l-4.389-5.135c-0.996-1.199-1.705-2.289-2.129-3.27
			c-0.425-0.98-0.637-1.997-0.637-3.051c0-1.901,0.665-3.423,1.997-4.564c1.331-1.141,3.182-1.712,5.552-1.712
			c1.96,0,3.408,0.198,4.345,0.593c0.937,0.396,1.405,0.93,1.405,1.603c0,0.731-0.293,1.404-0.879,2.019
			c-0.322-0.264-0.885-0.505-1.689-0.725c-0.805-0.219-1.676-0.329-2.611-0.329c-1.316,0-2.363,0.264-3.138,0.79
			c-0.776,0.526-1.163,1.272-1.163,2.238c0,0.762,0.16,1.456,0.482,2.085c0.322,0.63,0.834,1.383,1.536,2.26l4.784,5.398
			c1.111,1.317,1.879,2.531,2.305,3.643c0.424,1.112,0.636,2.37,0.636,3.774c0,2.487-0.607,4.484-1.821,5.991
			c-1.215,1.507-3.211,2.26-5.99,2.26C539.898,208.296,538.471,208.033,537.462,207.506z"/>
		<path fill="#1D1D1B" d="M579.265,177.136v2.589c0,0.293-0.059,0.49-0.175,0.593c-0.117,0.103-0.308,0.153-0.571,0.153h-5.397
			v26.685c0,0.264-0.06,0.438-0.176,0.526c-0.117,0.088-0.468,0.14-1.054,0.154c-0.585,0.015-1.359,0.021-2.326,0.021v-27.387
			h-5.969v-2.633c0-0.468,0.248-0.702,0.746-0.702H579.265z"/>
	</g>
	<g>
		<rect x="379.5" y="188.291" fill="#1D1D1B" width="12.073" height="20.446"/>
		<rect x="384.684" y="188.291" fill="#424242" width="4.479" height="20.446"/>
		<rect x="381.155" y="182.985" fill="#A5A4A4" width="8.762" height="5.306"/>
		<rect x="385.536" y="182.985" fill="#CCCBCB" width="2.118" height="5.306"/>
		<g>
			<polygon fill="#EB6542" points="382.64,173.687 382.64,182.985 385.658,182.985 385.658,171.934 			"/>
			<polygon fill="#EB6542" points="387.502,170.864 387.654,170.864 387.654,182.985 388.676,182.985 388.676,170.182 			"/>
			<line fill="#F39F8D" x1="385.658" y1="171.934" x2="387.502" y2="170.864"/>
			<polygon fill="#F39F8D" points="387.502,170.864 385.658,171.934 385.658,182.985 387.654,182.985 387.654,170.864 			"/>
		</g>
	</g>
</g>
<g>
	<rect x="0" y="0" fill="#FFFFFF" width="726" height="137.15"/>
	<g>
		<rect x="16.11" y="26.834" fill="none" width="702.674" height="108.825"/>
		<path d="M60.273,99.862h18.975c0,2.134-0.019,3.86-0.055,5.185c-0.038,1.324-0.185,2.134-0.441,2.427
			c-0.259,0.295-0.682,0.441-1.269,0.441H51.448V32.458c0-0.293,0.11-0.662,0.331-1.104s0.698-0.662,1.435-0.662h26.476
			c0,2.061-0.02,3.751-0.056,5.075c-0.037,1.323-0.165,2.15-0.386,2.481s-0.626,0.497-1.214,0.497H60.273v23.056h16.658
			c0,1.985-0.02,3.641-0.056,4.964c-0.038,1.324-0.165,2.189-0.386,2.593c-0.221,0.405-0.626,0.606-1.214,0.606H60.273V99.862z"/>
		<path d="M135.288,30.693v75.457c0,0.661-0.13,1.103-0.387,1.323c-0.258,0.221-1.122,0.35-2.592,0.387
			c-1.473,0.037-3.494,0.055-6.067,0.055l0.331-27.027c0.146-4.78,0.477-10.848,0.992-18.202c0.514-7.354,0.883-12.355,1.104-15.003
			l-1.876,6.619c-2.868,10.59-4.671,16.878-5.405,18.863l-5.847,16.989c-0.221,0.589-0.626,0.883-1.213,0.883h-3.861l-5.736-17.872
			c-0.957-2.868-3.31-11.178-7.061-24.931l-0.11,0.11c0.221,2.28,0.588,6.987,1.104,14.12c0.514,7.134,0.808,13.128,0.882,17.981
			l0.221,25.704c0,0.661-0.165,1.103-0.496,1.323s-1.196,0.35-2.593,0.387c-1.397,0.037-3.273,0.055-5.626,0.055V32.458
			c0-0.734,0.146-1.214,0.441-1.435c0.293-0.221,0.734-0.331,1.324-0.331h6.397l10.591,33.536c0.809,2.501,1.545,4.947,2.206,7.336
			c0.662,2.392,1.104,4.027,1.324,4.909c0.221-0.882,0.643-2.499,1.269-4.854c0.624-2.353,1.269-4.706,1.931-7.061l9.818-32.102
			c0.221-0.662,0.44-1.121,0.661-1.379c0.221-0.257,0.588-0.387,1.104-0.387H135.288z"/>
		<path d="M192.542,30.693v75.457c0,0.661-0.129,1.103-0.386,1.323c-0.259,0.221-1.122,0.35-2.593,0.387
			c-1.472,0.037-3.494,0.055-6.067,0.055l0.331-27.027c0.146-4.78,0.478-10.848,0.993-18.202c0.514-7.354,0.882-12.355,1.103-15.003
			l-1.875,6.619c-2.868,10.59-4.671,16.878-5.405,18.863l-5.847,16.989c-0.221,0.589-0.626,0.883-1.214,0.883h-3.861l-5.736-17.872
			c-0.956-2.868-3.31-11.178-7.061-24.931l-0.109,0.11c0.22,2.28,0.587,6.987,1.103,14.12c0.514,7.134,0.809,13.128,0.883,17.981
			l0.221,25.704c0,0.661-0.166,1.103-0.497,1.323c-0.33,0.221-1.195,0.35-2.592,0.387c-1.398,0.037-3.273,0.055-5.626,0.055V32.458
			c0-0.734,0.146-1.214,0.441-1.435c0.293-0.221,0.733-0.331,1.323-0.331h6.398l10.591,33.536c0.808,2.501,1.544,4.947,2.206,7.336
			c0.662,2.392,1.103,4.027,1.323,4.909c0.221-0.882,0.644-2.499,1.269-4.854c0.624-2.353,1.27-4.706,1.931-7.061l9.818-32.102
			c0.221-0.662,0.441-1.121,0.662-1.379c0.221-0.257,0.588-0.387,1.103-0.387H192.542z"/>
		<path d="M248.362,107.694c-0.516,0.293-1.619,0.441-3.31,0.441c-1.985,0-3.751-0.074-5.295-0.221l-4.634-19.637h-19.195
			l-4.302,18.093c-0.221,0.661-0.57,1.122-1.048,1.379c-0.479,0.257-1.527,0.386-3.145,0.386c-1.544,0-3.384-0.11-5.516-0.331
			l19.747-75.897c0.221-1.029,1.323-1.545,3.31-1.545c1.69,0,3.088,0.11,4.191,0.331l19.747,75.567
			C249.061,106.921,248.876,107.401,248.362,107.694z M233.139,80.225l-3.751-15.886c-2.134-8.972-3.42-16.068-3.861-21.291
			c-0.81,6.547-2.134,13.644-3.971,21.291l-3.751,15.886H233.139z"/>
		<path d="M347.535,30.693l-14.562,77.553c-0.662,0.072-1.618,0.183-2.868,0.331c-1.251,0.146-2.758,0.221-4.523,0.221
			c-2.354,0-3.935-2.097-4.743-6.288l-5.736-25.042c-0.811-4.265-1.949-12.612-3.42-25.042c-1.397,11.914-2.465,20.226-3.199,24.932
			l-6.067,30.889c-2.427,0.293-5.148,0.441-8.163,0.441c-1.986,0-3.494-2.243-4.523-6.729c-1.544-7.648-3.861-19.637-6.95-35.963
			c-3.089-16.327-5.148-27.21-6.178-32.654c-0.073-0.293-0.109-0.697-0.109-1.213c0-0.514,0.146-0.883,0.44-1.104
			c0.293-0.221,0.809-0.331,1.545-0.331h7.28l8.054,42.913c1.103,6.693,2.206,14.893,3.31,24.601h0.552
			c0.367-7.28,1.323-15.48,2.868-24.601l6.839-36.515c0.221-1.029,0.459-1.727,0.718-2.096c0.257-0.367,0.789-0.552,1.6-0.552h6.288
			l7.832,39.162c1.104,5.811,2.096,12.907,2.979,21.291l0.331,3.31h0.662c0.809-9.708,1.727-17.907,2.758-24.601l7.17-40.266
			c0.146-0.954,0.349-1.636,0.607-2.04c0.257-0.403,0.789-0.607,1.6-0.607H347.535z"/>
		<path d="M394.31,107.694c-0.516,0.293-1.619,0.441-3.31,0.441c-1.985,0-3.751-0.074-5.295-0.221l-4.634-19.637h-19.195
			l-4.302,18.093c-0.221,0.661-0.57,1.122-1.048,1.379c-0.479,0.257-1.527,0.386-3.145,0.386c-1.544,0-3.384-0.11-5.516-0.331
			l19.747-75.897c0.221-1.029,1.323-1.545,3.31-1.545c1.69,0,3.088,0.11,4.191,0.331l19.747,75.567
			C395.008,106.921,394.823,107.401,394.31,107.694z M379.086,80.225l-3.751-15.886c-2.134-8.972-3.42-16.068-3.861-21.291
			c-0.81,6.547-2.134,13.644-3.971,21.291l-3.751,15.886H379.086z"/>
		<path d="M410.638,105.874c-2.942-2.096-5.112-5.864-6.509-11.308c-1.397-5.441-2.096-13.273-2.096-23.497
			c0-11.104,0.938-19.673,2.812-25.703c1.876-6.03,4.504-10.167,7.888-12.411c3.382-2.242,7.723-3.364,13.018-3.364
			c3.53,0,6.379,0.57,8.55,1.71c2.168,1.141,3.254,2.445,3.254,3.916c0,1.765-0.405,3.678-1.214,5.736
			c-1.03-0.809-2.316-1.451-3.86-1.931c-1.545-0.478-3.199-0.717-4.965-0.717c-3.898,0-6.987,0.976-9.267,2.923
			c-2.28,1.95-3.971,5.24-5.074,9.874c-1.104,4.633-1.654,11.069-1.654,19.305c0,8.458,0.44,14.838,1.323,19.141
			c0.883,4.302,2.132,7.17,3.751,8.604c1.617,1.434,3.751,2.15,6.398,2.15c1.765,0,3.216-0.293,4.357-0.882
			c1.14-0.588,1.893-1.214,2.262-1.876V70.076h-8.274V64.45c0-1.176,0.698-1.765,2.097-1.765h14.451v41.368
			c-3.972,3.31-9.01,4.965-15.113,4.965C417.624,109.018,413.578,107.969,410.638,105.874z"/>
		<path d="M459.506,99.862h18.975c0,2.134-0.019,3.86-0.055,5.185c-0.038,1.324-0.185,2.134-0.441,2.427
			c-0.259,0.295-0.682,0.441-1.269,0.441h-26.035V32.458c0-0.293,0.11-0.662,0.331-1.104s0.698-0.662,1.435-0.662h26.476
			c0,2.061-0.02,3.751-0.056,5.075c-0.037,1.323-0.165,2.15-0.386,2.481s-0.626,0.497-1.214,0.497h-17.761v23.056h16.658
			c0,1.985-0.02,3.641-0.056,4.964c-0.038,1.324-0.165,2.189-0.386,2.593c-0.221,0.405-0.626,0.606-1.214,0.606h-15.003V99.862z"/>
		<path d="M534.521,30.693v75.457c0,0.661-0.13,1.103-0.387,1.323c-0.258,0.221-1.122,0.35-2.592,0.387
			c-1.473,0.037-3.494,0.055-6.067,0.055l0.331-27.027c0.146-4.78,0.477-10.848,0.992-18.202c0.514-7.354,0.883-12.355,1.104-15.003
			l-1.876,6.619c-2.868,10.59-4.671,16.878-5.405,18.863l-5.847,16.989c-0.221,0.589-0.626,0.883-1.213,0.883h-3.861l-5.736-17.872
			c-0.957-2.868-3.31-11.178-7.061-24.931l-0.11,0.11c0.221,2.28,0.588,6.987,1.104,14.12c0.514,7.134,0.808,13.128,0.882,17.981
			l0.221,25.704c0,0.661-0.165,1.103-0.496,1.323s-1.196,0.35-2.593,0.387c-1.397,0.037-3.273,0.055-5.626,0.055V32.458
			c0-0.734,0.146-1.214,0.441-1.435c0.293-0.221,0.734-0.331,1.324-0.331h6.397l10.591,33.536c0.809,2.501,1.545,4.947,2.206,7.336
			c0.662,2.392,1.104,4.027,1.324,4.909c0.221-0.882,0.643-2.499,1.269-4.854c0.624-2.353,1.269-4.706,1.931-7.061l9.818-32.102
			c0.221-0.662,0.44-1.121,0.661-1.379c0.221-0.257,0.588-0.387,1.104-0.387H534.521z"/>
		<path d="M590.34,107.694c-0.515,0.293-1.618,0.441-3.31,0.441c-1.985,0-3.75-0.074-5.295-0.221l-4.633-19.637h-19.195
			l-4.303,18.093c-0.221,0.661-0.57,1.122-1.048,1.379c-0.479,0.257-1.527,0.386-3.144,0.386c-1.545,0-3.384-0.11-5.516-0.331
			l19.746-75.897c0.221-1.029,1.324-1.545,3.31-1.545c1.691,0,3.089,0.11,4.192,0.331l19.746,75.567
			C591.038,106.921,590.854,107.401,590.34,107.694z M575.116,80.225l-3.75-15.886c-2.135-8.972-3.42-16.068-3.861-21.291
			c-0.811,6.547-2.134,13.644-3.972,21.291l-3.751,15.886H575.116z"/>
		<path d="M631.268,31.134c0.293-0.221,1.176-0.348,2.647-0.386c1.471-0.036,3.42-0.056,5.847-0.056v75.457
			c0,1.177-0.625,1.765-1.875,1.765h-6.619l-12.687-30.337c-1.765-4.706-5.259-15.186-10.479-31.44
			c0.293,3.163,0.551,8.458,0.771,15.886c0.221,7.429,0.331,13.202,0.331,17.319v26.808c0,0.661-0.129,1.103-0.386,1.323
			c-0.259,0.221-1.122,0.35-2.593,0.387c-1.472,0.037-3.42,0.055-5.847,0.055V32.458c0-1.176,0.588-1.766,1.766-1.766h6.729
			l12.466,29.786c0.955,2.575,3.677,10.628,8.164,24.159c0.293,0.882,1.103,3.272,2.427,7.17v-0.331
			c-0.369-2.868-0.645-8.07-0.827-15.609c-0.185-7.538-0.276-13.329-0.276-17.375V32.458
			C630.826,31.796,630.973,31.355,631.268,31.134z"/>
		<path d="M655.481,107.032c-2.538-1.323-3.807-2.83-3.807-4.522c0-0.955,0.202-2.022,0.607-3.199
			c0.403-1.176,0.974-2.243,1.71-3.199c2.868,2.575,6.654,3.861,11.362,3.861c7.28,0,10.921-3.751,10.921-11.253
			c0-2.647-0.479-5.02-1.434-7.115c-0.957-2.096-2.647-4.578-5.075-7.446L658.734,61.25c-2.501-3.015-4.285-5.753-5.351-8.218
			c-1.066-2.464-1.6-5.02-1.6-7.667c0-4.78,1.672-8.605,5.02-11.474c3.346-2.868,7.998-4.302,13.955-4.302
			c4.927,0,8.566,0.496,10.922,1.489c2.353,0.992,3.529,2.335,3.529,4.026c0,1.839-0.735,3.53-2.206,5.074
			c-0.811-0.662-2.226-1.269-4.247-1.82c-2.023-0.551-4.211-0.827-6.563-0.827c-3.31,0-5.94,0.662-7.888,1.985
			c-1.95,1.324-2.924,3.199-2.924,5.627c0,1.913,0.403,3.659,1.214,5.239c0.809,1.583,2.096,3.476,3.86,5.682l12.025,13.569
			c2.794,3.309,4.725,6.361,5.791,9.156c1.065,2.795,1.6,5.957,1.6,9.486c0,6.252-1.527,11.271-4.578,15.059
			c-3.053,3.789-8.072,5.682-15.058,5.682C661.603,109.018,658.018,108.356,655.481,107.032z"/>
	</g>
</g>
<g>
</g>
<g>
</g>
<g>
</g>
<g>
</g>
<g>
</g>
<g>
</g>
<g>
</g>
<g>
</g>
<g>
</g>
<g>
</g>
<g>
</g>
<g>
</g>
<g>
</g>
<g>
</g>
<g>
</g>
</svg>
