<?xml version="1.0" encoding="utf-8"?>
<!-- Generator: Adobe Illustrator 17.0.0, SVG Export Plug-In . SVG Version: 6.00 Build 0)  -->
<!DOCTYPE svg PUBLIC "-//W3C//DTD SVG 1.1//EN" "http://www.w3.org/Graphics/SVG/1.1/DTD/svg11.dtd">
<svg version="1.1" id="Laag_1" xmlns="http://www.w3.org/2000/svg" xmlns:xlink="http://www.w3.org/1999/xlink" x="0px" y="0px"
	 width="188px" height="564.058px" viewBox="0 0 188 564.058" enable-background="new 0 0 188 564.058" xml:space="preserve">
<rect x="848" y="56" fill="#FFFFFF" width="188" height="61"/>
<polygon fill="#594740" points="904,580 904,555 918,558 "/>
<path d="M977.059,162.335c0,0,14.255,129.665,26.098,139.165c0,0-10.193-3.584-9.299-13.204
	c0.894-9.62-21.367-112.981-21.367-112.981"/>
<path d="M900,171.667c0,0-0.667,97.27-10,122.635c0,0-1,6.365-6,14.032c0,0,7.677-5.117,8-13.835s11.341-70.832,11.341-70.832
	L900,171.667z"/>
<ellipse cx="938.855" cy="169.277" rx="38.855" ry="32.777"/>
<path d="M978,167c0-6.627-5.373-12-12-12h-54c-6.627,0-12,5.373-12,12v140c0,6.627,5.373,12,12,12h54c6.627,0,12-5.373,12-12V167z"
	/>
<path fill="#D0D342" d="M975.667,293.333l-11.132,4.444c0,0-6.609-15.315,2.428-14.713C976,283.667,980.667,283,975.667,293.333z"/>
<path fill="#DEEA44" d="M922.966,315.5l-4.997-17.167c0,0-16.969-4.431-10.303-17.882c6.667-13.451,61-4.319,61-4.319
	s-6.452,22.765-3.893,35.316"/>
<path fill="#4354D1" d="M975.835,569.371c0,0,7.641,1.24,9.949,12.839s7.956,20.679,7.956,20.679l-9.136,4.829l-11.683-22.102
	l7.653,24.232c0,0-15.547,15.758-22.3,7.263l8.586-10.862l-0.899-31.659L975.835,569.371z"/>
<g>
	<ellipse fill="#512C11" cx="708.237" cy="157.993" rx="30.647" ry="33.66"/>
	<path fill="#EFD9CE" d="M686.454,428.366l27.664,40.407c0,0-6.675,13.897,4.162,77.779l0.428,27.294
		c0,0,19.539-98.42,17.313-110.224c-2.226-11.804-13.163-43.817-13.163-43.817L686.454,428.366z"/>
	<path fill="#D6563C" d="M719.656,574.897c0,0-9.39-9.795-16.719,1.498c-7.329,11.293-16.26,20.991-16.26,20.991l1.843,2.051
		l18.259-17.083l-12.912,23.033c0,0,7.85,6.491,14.256,5.389l-0.864-7.694l-3.28-1.405L719.656,574.897z"/>
	<path fill="#EFD9CE" d="M750.476,256.658c-3.487-0.627-7.105,3.272-8.083,8.707l0,0c-0.977,5.436,1.057,10.35,4.544,10.977
		l52.037,4.46c3.487,0.627,7.626-3.628,7.882-8.57l-1.239,4.304c1.081-5.506,3.769-9.839,0.282-10.466L750.476,256.658z"/>
	<path fill="#D6563C" d="M737.607,248.382c-6.971-1.835-13.988,1.869-15.674,8.273l-0.174,0.663
		c-1.685,6.404,2.599,13.082,9.57,14.917l12.261,3.227c6.971,1.835,13.988-1.869,15.674-8.273l0.174-0.663
		c1.685-6.404-2.599-13.082-9.57-14.917L737.607,248.382z"/>
	<path fill="#EFD9CE" d="M672.862,268.251c2.485-2.524,1.31-7.712-2.626-11.587l0,0c-3.936-3.875-9.141-4.969-11.626-2.445
		l-33.053,40.438c-2.485,2.524-1.31,8.343,2.626,11.343l-2.853-3.452c3.936,4,5.994,8.665,8.48,6.14L672.862,268.251z"/>
	<circle fill="#1D1D1B" cx="708.333" cy="186.333" r="39.667"/>
	<path fill="#EB6542" d="M718.592,226c-1.869,0-3.546,1.197-4.716,3.093c-1.17-1.897-2.847-3.093-4.716-3.093
		c-1.696,0-3.234,0.986-4.379,2.585c-1.145-1.599-2.683-2.585-4.379-2.585c-3.535,0-6.401,4.253-6.401,9.5l2.695,18
		c0,5.247,2.866,9.5,6.401,9.5c1.261,0,2.089-0.549,2.639-1.484c0.991,0.935,2.164,1.484,3.425,1.484
		c1.455,0,2.791-0.728,3.866-1.941c0.538,1.213,1.417,1.941,2.871,1.941c3.535,0,6.401-4.253,6.401-9.5l2.695-18
		C724.992,230.253,722.127,226,718.592,226z"/>
	<ellipse fill="#EFD9CE" cx="709.769" cy="195" rx="32.231" ry="41"/>
	<path fill="#EB6542" d="M656,257c0,6.627,4.193,12,9.365,12h59.313c5.172,0,7.822-3.623,7.822-10.25l1.544-1.75
		c0-6.627,4.956-10.285-9.365-12h-59.313C660.193,245,656,250.373,656,257L656,257z"/>
	<path fill="#EB6542" d="M734.031,247.913c0,0,25.775,28.872,1.969,46.958c-39,29.629-25.625,52.004-25.625,52.004
		S725.667,383,727,431h-93c0,0-37.258-88.449-5-104.333c44-21.667,60.234-24.222,32.278-59.725
		C637,236.109,734.031,247.913,734.031,247.913z"/>
	<path fill="#1D1D1B" d="M746,145c0-6.627-5.373-12-12-12l-18.667,6.333C708.027,142.686,703,147.373,703,154v-3
		c0,6.627,4.259,9.163,12,12l19,5c6.627,0,12-5.373,12-12V145z"/>
	<path fill="#1D1D1B" d="M673,147.6c0-7.511,5.373-13.6,12-13.6l18.667,7.178c7.306,3.8,12.333,3.444,12.333,10.956v-3.4
		c0,7.511-4.259,10.385-12,13.6L685,168c-6.627,0-12-6.089-12-13.6V147.6z"/>
	<path fill="#1D1D1B" d="M675.019,295.189c0,0,36.222,13.854,45.101,14.332c0,0-8.852,11.557-10.352,18.186
		c0,0-46.312-9.811-50.04-16.259C659.728,311.448,675.444,300.783,675.019,295.189z"/>
	<path fill="#EFD9CE" d="M634,431l17.679,45.667c0,0-5.258,29.333,2.996,78L662.093,580c0,0,11.551-91.333,12.087-103.333
		c0.536-12-2.782-45.667-2.782-45.667H634z"/>
	<path fill="#EB6542" d="M661.562,578.439c0,0-13.562,0.436-10.062,13.436S656.243,618,656.243,618H659l-0.5-25l8.5,25
		c0,0,10.075-1.5,13.538-7l-6.3-4.5L671,608L661.562,578.439z"/>
	<path fill="#EFD9CE" d="M674.238,605.333l-12.675-26.894L671,608C671,608,673.809,609.667,674.238,605.333z"/>
	<polygon fill="#EFD9CE" points="707.258,603.082 719.656,574.897 703.979,601.677 	"/>
	<path fill="#F2E2DA" d="M589.073,240.881c0,0,16.895,54.724,33.467,67.887c0,0,3.777,4.078,10.193,0.539
		c6.415-3.539,1.873-9.236,1.873-9.236L589.073,240.881z"/>
	<path fill="#44D7EA" d="M715.327,190.451c0,0,2.523-8.826,8.023-9.076s9.423,2.2,9.423,2.2S718.428,185.027,715.327,190.451z"/>
	<path fill="#F2E2DA" d="M782.122,201.054c0,0,27.452,50.265,25.335,71.322c0,0,0.29,5.551-6.72,7.683
		c-7.009,2.132-7.927-5.097-7.927-5.097L782.122,201.054z"/>
	<path fill="#020202" d="M715.148,190.451c0,0,4.736-8.773,12.284-7.049s10.957-3.231,10.957-3.231s-2.571,5.876-5.781,5.68
		c0,0,3.587,1.236,5.322-0.63s0.254-0.656,0.254-0.656s-2.352,4.923-9.61,3.61S717.532,188.535,715.148,190.451z"/>
	<path fill="#44D7EA" d="M705.773,190.451c0,0-2.523-8.826-8.023-9.076s-9.423,2.2-9.423,2.2S702.672,185.027,705.773,190.451z"/>
	<path fill="#020202" d="M705.773,190.451c0,0-4.737-8.773-12.284-7.049c-7.548,1.724-10.957-3.231-10.957-3.231
		s2.571,5.876,5.781,5.68c0,0-3.587,1.236-5.322-0.63s-0.254-0.656-0.254-0.656s2.352,4.923,9.61,3.61
		C699.606,186.861,703.389,188.535,705.773,190.451z"/>
	<circle fill="#EDCECE" cx="690.525" cy="200.192" r="6.525"/>
	<circle fill="#EDCECE" cx="727.525" cy="200.192" r="6.525"/>
	<path fill="#EB6542" d="M721,219.699c0,0-6.333-8.81-10.5-5.114l-0.04,0.418c-0.147-0.135-0.288-0.266-0.46-0.418
		c-4.167-3.697-10.5,5.114-10.5,5.114c4.009,3.981,7.94,4.992,10.006,5.236l-0.006,0.063c0,0,0.277,0.02,0.75-0.002
		c0.473,0.022,0.75,0.002,0.75,0.002v-0.064C713.068,224.689,716.994,223.676,721,219.699z"/>
	<path fill="#EB6542" d="M669.233,272.356c3.278-3.551,2.501-9.6-1.736-13.511l-0.438-0.405c-4.237-3.911-10.329-4.203-13.607-0.653
		l-5.766,6.246c-3.278,3.551-2.501,9.6,1.736,13.511l0.438,0.405c4.237,3.911,10.328,4.203,13.607,0.653L669.233,272.356z"/>
	<path fill="#F2E2DA" d="M658.459,432c0,0,11.668,46.817,7.271,65.325c-4.397,18.508-4.168,81.364-4.168,81.364
		s13.088-98.657,12.602-108.744S671.397,432,671.397,432H658.459z"/>
	<path fill="#F2E2DA" d="M711.325,431c0,0,20.175,23.5,15.675,45s-7.724,94.956-7.724,94.956s23.838-98.486,14.781-115.471
		C725,438.5,727,431,727,431H711.325z"/>
	<path fill="#D6563C" d="M667,274.333l7.238-8.667c0,0,9.504,24.182,6.3,31.591l-5.518-2.068
		C675.019,295.189,677,282.333,667,274.333z"/>
	<path fill="#D6563C" d="M677.538,277.667c0,0-1.538,16,21.129,15.667c0,0,6.333-0.104,9.333-4.552c0,0-2.925,15.067-27.462,8.476"
		/>
	<path fill="#D6563C" d="M666.319,315.595c0,0-30.819,12.929-34.819,21.167s20.137,21.96,34.819,23.099c0,0-36.311,2.861-42.065,0
		L645.658,431H634c0,0-33.119-73.355-11.059-99.678l36.788-19.874L666.319,315.595z"/>
	<g>
		
			<rect x="583.385" y="197.73" transform="matrix(0.9064 -0.4223 0.4223 0.9064 -32.6802 268.3797)" fill="#1D1D1B" width="12.073" height="20.446"/>
		
			<rect x="588.44" y="197.144" transform="matrix(-0.9064 0.4223 -0.4223 -0.9064 1213.6731 145.8774)" fill="#424242" width="4.479" height="20.446"/>
		
			<rect x="579.602" y="193.628" transform="matrix(-0.9064 0.4223 -0.4223 -0.9064 1196.2271 127.5713)" fill="#A5A4A4" width="8.762" height="5.306"/>
		
			<rect x="583.885" y="193.181" transform="matrix(-0.9064 0.4223 -0.4223 -0.9064 1197.8679 126.3135)" fill="#CCCBCB" width="2.118" height="5.306"/>
		<g>
			<polygon fill="#EB6542" points="576.311,186.672 580.238,195.1 582.974,193.825 578.307,183.808 			"/>
			<polygon fill="#EB6542" points="579.526,182.059 579.664,181.995 584.783,192.982 585.709,192.55 580.302,180.945 			"/>
			<line fill="#F39F8D" x1="578.307" y1="183.808" x2="579.526" y2="182.059"/>
			<polygon fill="#F39F8D" points="579.526,182.059 578.307,183.808 582.974,193.825 584.783,192.982 579.664,181.995 			"/>
		</g>
	</g>
	<path fill="#EFD9CE" d="M782.122,202.054c0,0,21.878-12.246,23.378-15.15S802,165.5,802,165.5s0.5,14.214-1.167,16.857
		c-1.667,2.643,1-4.357-1.833-21.524c0.129,0.781-3.296,22.433-2.5,21.524c-2.167,2.476-1.097-5.857-2.549-13.357
		s0.049,8.214-3.118,13.357C787.667,187.5,766.244,192.274,782.122,202.054z"/>
	<g>
		<ellipse fill="#424242" cx="784.71" cy="192.137" rx="13.959" ry="4.613"/>
		<rect x="771" y="186" fill="#424242" width="28" height="6"/>
		<ellipse fill="#1D1D1B" cx="784.809" cy="186.254" rx="14.058" ry="6.707"/>
		<ellipse fill="#EB6542" cx="784.676" cy="185.883" rx="9.936" ry="4.741"/>
		<path fill="#F39F8D" d="M784.676,190.624c5.488,0,9.936-2.123,9.936-4.741s-4.449-4.741-9.936-4.741"/>
		<g>
			<circle fill="#1D1D1B" cx="785.314" cy="167.589" r="12.518"/>
			<path fill="#424242" d="M785.314,180.107c6.913,0,12.518-5.604,12.518-12.518c0-6.913-5.604-12.518-12.518-12.518"/>
			<circle fill="#B6CCDD" cx="785.421" cy="167.535" r="9.007"/>
			<path fill="#D3E7F4" d="M788.591,159.11l-10.8,13.196c0,0,1.781,2.383,3.09,3.009l10.37-14.644
				C791.251,160.672,789.177,159.315,788.591,159.11z"/>
		</g>
	</g>
	<path fill="#EFD9CE" d="M782.122,202.054"/>
	<path fill="#EFD9CE" d="M587.072,241.793c0,0-8.258-23.673-7.456-26.841c0.802-3.168,16.812-13.702,16.812-13.702
		s-9.799,10.309-10.303,13.393c-0.505,3.084,2.14-3.925,15.643-14.897c-0.614,0.499-12.407,18.978-12.399,17.77
		c-0.02,3.29,4.705-3.657,10.764-8.309s-5.483,6.117-6.522,12.066C592.571,227.222,605.442,244.999,587.072,241.793z"/>
</g>
<path fill="#594740" d="M919.131,252.026c2.867,2.753,2.323,8.526-1.214,12.894l0,0c-3.538,4.368-8.73,5.676-11.597,2.923
	l-39.003-44.229c-2.867-2.753-2.404-9.226,1.245-12.624l-2.483,3.879c3.522-4.507,5.037-9.716,7.904-6.962L919.131,252.026z"/>
<path fill="#594740" d="M979.434,263.009c-1.902,2.989-7.221,3.007-11.88,0.042l0,0c-4.659-2.965-6.894-7.792-4.992-10.781
	l31.987-41.286c1.902-2.989,7.836-3.149,11.643,0.013l-4.004-2.006c4.781,2.937,9.789,3.897,7.887,6.885L979.434,263.009z"/>
<ellipse fill="#594740" cx="938.17" cy="195" rx="32.231" ry="41"/>
<path fill="#594740" d="M1008.521,134.068c0,0,12.436,55.906,4.562,75.55c0,0-1.261,5.414-8.587,5.518s-6.203-7.095-6.203-7.095
	L1008.521,134.068z"/>
<path fill="#E89746" d="M932.612,190.451c0,0-2.523-8.826-8.023-9.076s-9.423,2.2-9.423,2.2S929.51,185.027,932.612,190.451z"/>
<path fill="#594740" d="M887.817,141.054c0,0-27.452,50.265-25.335,71.322c0,0-0.29,5.551,6.72,7.683
	c7.009,2.132,7.927-5.097,7.927-5.097L887.817,141.054z"/>
<path fill="#020202" d="M932.791,190.451c0,0-4.736-8.773-12.284-7.049s-10.957-3.231-10.957-3.231s2.571,5.876,5.781,5.68
	c0,0-3.587,1.236-5.322-0.63s-0.254-0.656-0.254-0.656s2.352,4.923,9.61,3.61S930.407,188.535,932.791,190.451z"/>
<path fill="#E89746" d="M942.165,190.451c0,0,2.523-8.826,8.023-9.076s9.423,2.2,9.423,2.2S945.267,185.027,942.165,190.451z"/>
<path fill="#020202" d="M942.165,190.451c0,0,4.737-8.773,12.284-7.049c7.548,1.724,10.957-3.231,10.957-3.231
	s-2.571,5.876-5.781,5.68c0,0,3.587,1.236,5.322-0.63s0.254-0.656,0.254-0.656s-2.352,4.923-9.61,3.61
	C948.333,186.861,944.549,188.535,942.165,190.451z"/>
<circle fill="#664848" cx="957.414" cy="200.192" r="6.525"/>
<circle fill="#664848" cx="920.414" cy="200.192" r="6.525"/>
<path fill="#423530" d="M926.969,219.699c0,0,6.318-8.81,10.485-5.114l0.032,0.418c0.147-0.135,0.284-0.266,0.456-0.418
	c4.167-3.697,10.498,5.114,10.498,5.114c-4.009,3.981-7.941,4.992-10.007,5.236l0.006,0.063c0,0-0.247,0.02-0.72-0.002
	c-0.473,0.022-0.72,0.002-0.72,0.002v-0.064C935,224.689,930.975,223.676,926.969,219.699z"/>
<path fill="#594740" d="M887.817,142.054c0,0-21.878-12.246-23.378-15.15s3.5-21.404,3.5-21.404s-0.5,14.214,1.167,16.857
	c1.667,2.643-1-4.357,1.833-21.524c-0.129,0.781,3.296,22.433,2.5,21.524c2.167,2.476,1.097-5.857,2.549-13.357
	s-0.049,8.214,3.118,13.357C882.272,127.5,903.695,132.274,887.817,142.054z"/>
<path fill="#EFD9CE" d="M856.817,197.054"/>
<path fill="#594740" d="M1009.668,137.556c0,0,18.545-16.872,19.351-20.04c0.805-3.168-8.246-20.06-8.246-20.06
	s3.699,13.734,2.672,16.685c-1.026,2.951-0.01-4.47-6.649-20.553c0.302,0.732,1.858,22.598,2.428,21.532
	c-1.551,2.902-2.392-5.458-5.501-12.436c-3.108-6.978,1.903,7.991-0.02,13.716S991.991,131.617,1009.668,137.556z"/>
<path fill="#DEEA44" d="M925.142,333.333c0,0-26.11,28.667-28.381,46.667s7.063,74,7.063,74s30.667,99.333,31.333,126
	s15.333-10.872,26.667-5.103c11.333,5.77,10.667,6.436,20,9.103c9.333,2.667,21.333-1.333,21.333-1.333s-44-114-49.333-140.667
	c-5.333-26.667,5.66-38.951,2.667-28c-3.425,12.527-48.667,116.667-67.333,128s13.333,12,15.333,18s1.333,9.794,10.667,14.897
	s16,5.103,16,5.103s65.333-118,68-176s-26.667-76.292-26.667-76.292L925.142,333.333z"/>
<path fill="#D0D342" d="M955,410v-28c0,0-9.912,24.276-12,37.805s-28.954,69.146-28.954,69.146l3.923,12.028l33.832-71.808
	C951.802,429.17,952,412,955,410z"/>
<path fill="#D0D342" d="M971.398,580l-8.908-46l-27.333,46l-0.328-4.594l36.779-78.581l9.933,28.367L971.157,518l18.695,66.907
	C989.852,584.907,977.406,583.251,971.398,580z"/>
<path fill="#D0D342" d="M905.616,563.881L949.491,481l-30.5,48l1-6.559L896.442,555.5C896.442,555.5,902.79,557.952,905.616,563.881
	z"/>
<path fill="#4D66E2" d="M911.167,580c0,0,6.176,4.667,2.796,16s-2.63,22-2.63,22H901v-25l-4.558,25c0,0-21.109,6.667-23.109-4
	L886,608.409L900,580H911.167z"/>
<polygon fill="#4354D1" points="972.491,327.708 964.774,311.448 922.966,315.5 925.142,333.333 952.134,330.126 "/>
<path fill="#D0D342" d="M963,293.553c0,0-8.667,0.493-11.667,0.858S936,293.873,936,293.873l-5.395-3.178l-5.939-4.347l-6.697,2.66
	l-11.855-1.003l2.552-11.87c0,0,31.667-2.592,33-3.029c1.333-0.437,19.469-0.564,19.734,0C961.667,273.667,966,279,966,279v5
	l-1.056,10.302L963,293.553z"/>
<polygon fill="#4D66E2" points="962.341,431 979,407.5 953,322.391 "/>
<path fill="#4354D1" d="M955,324.5l24,33.5l-16.659,16C962.341,374,954,333,955,324.5z"/>
<path fill="#DEEA44" d="M914.062,259.167l-10.721,21.613l5.353,2.678c0,0,1.973,2.542,3.64,2.542c1.667,0,5.667,0,5.667,0
	l4.966-5.549c0,0,5.777-0.882,5.739,0s11.628,9.215,12.628,9.549s5.79-0.667,6.395,0s6.271,1.14,7.271,0.07s3.333-3.07,3.333-3.07
	s0.333-3.667,5-3.667c4.667,0,5.981-1.333,9.157,0.333c3.176,1.667-0.491,1,3.176,1.667c3.667,0.667,0,8,0,8l7-2l-10.176-32.167
	c0,0-29.157-2.167-34.491,2.167C938,261.333,918.79,257.333,914.062,259.167z"/>
<path fill="#594740" d="M979,254c0,4.418-3.582,8-8,8h-63c-4.418,0-8-3.582-8-8l0,0c0-4.418,3.582-8,8-8h63
	C975.418,246,979,249.582,979,254L979,254z"/>
<polygon fill="#594740" points="936,233 943,233 953,253 926,253 "/>
<path d="M936.057,165.667c0,0-16.828,9.084-29.943,10.876C893,178.333,916.448,139,936.057,146s34.924,22.631,36.433,29.315
	c1.509,6.685-29.042-3.982-36.433-10.649"/>
<g>
	<rect x="857.628" y="66.667" fill="none" width="178.372" height="200"/>
	<path d="M864.762,92.81c-1.701-0.841-3.007-2.034-3.915-3.582c-0.909-1.546-1.363-3.344-1.363-5.394
		c0-2.842,0.537-5.365,1.609-7.569c1.073-2.204,2.528-3.91,4.365-5.118c1.836-1.208,3.876-1.812,6.119-1.812
		c2.088,0,3.673,0.536,4.756,1.609c1.082,1.073,1.624,2.489,1.624,4.249c0,1.179-0.208,2.127-0.624,2.842
		c-0.416,0.715-1.011,1.073-1.783,1.073c-0.542,0-0.967-0.125-1.276-0.377s-0.464-0.619-0.464-1.102
		c0-0.174,0.039-0.493,0.116-0.957c0.116-0.58,0.174-1.044,0.174-1.392c0-1.759-0.938-2.639-2.812-2.639
		c-1.276,0-2.494,0.416-3.654,1.247c-1.16,0.832-2.098,2.055-2.813,3.668c-0.715,1.615-1.072,3.534-1.072,5.757
		c0,2.32,0.647,4.113,1.942,5.379c1.295,1.267,3.209,1.899,5.742,1.899c1.257,0,2.527-0.16,3.813-0.479
		c1.285-0.319,2.712-0.807,4.277-1.464c0.29-0.116,0.532-0.174,0.726-0.174c0.309,0,0.541,0.116,0.695,0.348
		c0.155,0.232,0.232,0.532,0.232,0.899c0,1.18-0.638,2.05-1.914,2.61c-1.373,0.6-2.799,1.04-4.277,1.32
		c-1.479,0.28-2.886,0.42-4.22,0.42C868.464,94.071,866.463,93.651,864.762,92.81z"/>
	<path d="M893.993,85.4c0.135,0.251,0.203,0.57,0.203,0.957c0,0.928-0.28,1.479-0.841,1.653c-1.16,0.406-2.437,0.638-3.828,0.696
		c-0.367,1.624-1.093,2.925-2.175,3.901c-1.083,0.977-2.311,1.464-3.684,1.464c-1.16,0-2.15-0.28-2.973-0.841
		c-0.821-0.561-1.445-1.305-1.87-2.233c-0.426-0.928-0.638-1.933-0.638-3.016c0-1.469,0.279-2.779,0.841-3.93
		c0.561-1.15,1.334-2.049,2.32-2.697c0.985-0.648,2.077-0.972,3.276-0.972c1.47,0,2.653,0.507,3.553,1.522s1.426,2.267,1.58,3.755
		c0.909-0.058,1.991-0.251,3.248-0.58c0.155-0.038,0.29-0.058,0.406-0.058C893.664,85.023,893.857,85.149,893.993,85.4z
		 M885.511,90.243c0.454-0.502,0.759-1.228,0.913-2.175c-0.599-0.406-1.059-0.938-1.377-1.595c-0.319-0.657-0.479-1.353-0.479-2.088
		c0-0.309,0.029-0.619,0.087-0.928h-0.146c-0.773,0-1.416,0.373-1.928,1.117c-0.513,0.745-0.769,1.793-0.769,3.146
		c0,1.063,0.207,1.875,0.623,2.436c0.416,0.561,0.903,0.841,1.465,0.841C884.52,90.997,885.057,90.746,885.511,90.243z"/>
	<path d="M892.209,92.911c-0.3-0.773-0.449-2.01-0.449-3.712c0-2.513,0.357-4.901,1.073-7.163c0.174-0.561,0.459-0.971,0.855-1.232
		c0.396-0.261,0.952-0.392,1.667-0.392c0.387,0,0.657,0.049,0.812,0.145c0.154,0.097,0.231,0.281,0.231,0.551
		c0,0.31-0.145,1.005-0.435,2.088c-0.193,0.773-0.348,1.445-0.464,2.016s-0.213,1.281-0.29,2.131
		c0.521-1.508,1.146-2.784,1.87-3.828c0.726-1.044,1.47-1.822,2.233-2.334c0.764-0.512,1.483-0.769,2.16-0.769
		s1.155,0.155,1.436,0.464s0.421,0.783,0.421,1.421c0,0.619-0.185,1.74-0.551,3.364c-0.155,0.696-0.262,1.218-0.319,1.566
		c0.967-2.378,2.039-4.108,3.219-5.191c1.179-1.083,2.281-1.624,3.306-1.624c1.257,0,1.886,0.628,1.886,1.885
		c0,0.754-0.213,2.117-0.639,4.089c-0.367,1.682-0.551,2.794-0.551,3.335c0,0.773,0.28,1.16,0.841,1.16
		c0.387,0,0.846-0.237,1.378-0.71c0.531-0.474,1.242-1.242,2.132-2.306c0.231-0.271,0.492-0.406,0.782-0.406
		c0.251,0,0.45,0.116,0.595,0.348c0.146,0.232,0.218,0.551,0.218,0.957c0,0.773-0.185,1.373-0.551,1.798
		c-0.832,1.025-1.726,1.866-2.683,2.523s-2.045,0.986-3.263,0.986c-0.986,0-1.73-0.285-2.233-0.855s-0.754-1.396-0.754-2.479
		c0-0.541,0.136-1.508,0.406-2.9c0.251-1.218,0.377-2.059,0.377-2.523c0-0.309-0.106-0.464-0.319-0.464
		c-0.251,0-0.608,0.324-1.072,0.972c-0.464,0.648-0.929,1.503-1.393,2.566c-0.464,1.063-0.841,2.185-1.131,3.364
		c-0.213,0.928-0.459,1.547-0.739,1.856c-0.28,0.31-0.73,0.464-1.349,0.464c-0.638,0-1.116-0.305-1.436-0.914
		s-0.479-1.349-0.479-2.218c0-0.735,0.097-1.798,0.29-3.19c0.154-1.237,0.232-2.049,0.232-2.436c0-0.309-0.106-0.464-0.319-0.464
		c-0.29,0-0.657,0.348-1.103,1.044c-0.444,0.696-0.875,1.585-1.29,2.668c-0.416,1.083-0.749,2.146-1.001,3.19
		c-0.213,0.909-0.459,1.522-0.739,1.841s-0.721,0.479-1.319,0.479C893.025,94.071,892.509,93.685,892.209,92.911z"/>
	<path d="M914.104,92.737c-0.57-0.889-0.855-2.068-0.855-3.538c0-0.87,0.111-1.986,0.334-3.35c0.222-1.363,0.508-2.634,0.855-3.813
		c0.174-0.618,0.406-1.044,0.696-1.276s0.754-0.348,1.392-0.348c0.986,0,1.479,0.329,1.479,0.986c0,0.483-0.185,1.605-0.552,3.364
		c-0.464,2.127-0.695,3.567-0.695,4.321c0,0.58,0.077,1.025,0.231,1.334s0.416,0.464,0.783,0.464c0.348,0,0.783-0.242,1.305-0.725
		c0.522-0.483,1.219-1.247,2.088-2.291c0.232-0.271,0.493-0.406,0.783-0.406c0.251,0,0.45,0.116,0.595,0.348
		c0.146,0.232,0.218,0.551,0.218,0.957c0,0.773-0.185,1.373-0.551,1.798c-1.914,2.339-3.703,3.509-5.365,3.509
		C915.588,94.071,914.674,93.627,914.104,92.737z M915.249,77.933c-0.405-0.377-0.608-0.903-0.608-1.581
		c0-0.676,0.266-1.242,0.798-1.696c0.531-0.454,1.193-0.682,1.986-0.682c0.715,0,1.295,0.174,1.739,0.522
		c0.445,0.348,0.667,0.841,0.667,1.479c0,0.773-0.251,1.388-0.754,1.842c-0.503,0.455-1.17,0.681-2.001,0.681
		C916.265,78.498,915.655,78.31,915.249,77.933z"/>
	<path d="M920.919,92.911c-0.3-0.773-0.449-2.01-0.449-3.712c0-2.513,0.357-4.901,1.072-7.163c0.174-0.561,0.459-0.971,0.855-1.232
		c0.396-0.261,0.952-0.392,1.668-0.392c0.387,0,0.657,0.049,0.812,0.145c0.155,0.097,0.232,0.281,0.232,0.551
		c0,0.31-0.146,1.005-0.436,2.088c-0.193,0.773-0.348,1.45-0.464,2.03c-0.115,0.58-0.213,1.296-0.29,2.146
		c0.639-1.662,1.354-3.016,2.146-4.06c0.792-1.044,1.57-1.788,2.334-2.233c0.764-0.444,1.465-0.667,2.103-0.667
		c1.257,0,1.886,0.628,1.886,1.885c0,0.754-0.213,2.117-0.639,4.089c-0.367,1.682-0.551,2.794-0.551,3.335
		c0,0.773,0.28,1.16,0.841,1.16c0.387,0,0.846-0.237,1.378-0.71c0.531-0.474,1.242-1.242,2.131-2.306
		c0.232-0.271,0.493-0.406,0.783-0.406c0.251,0,0.45,0.116,0.595,0.348c0.146,0.232,0.218,0.551,0.218,0.957
		c0,0.773-0.185,1.373-0.551,1.798c-0.832,1.025-1.726,1.866-2.683,2.523s-2.045,0.986-3.263,0.986c-0.986,0-1.73-0.285-2.233-0.855
		s-0.754-1.396-0.754-2.479c0-0.541,0.135-1.508,0.406-2.9c0.251-1.218,0.377-2.059,0.377-2.523c0-0.309-0.106-0.464-0.319-0.464
		c-0.251,0-0.604,0.324-1.059,0.972c-0.454,0.648-0.918,1.503-1.392,2.566c-0.474,1.063-0.855,2.185-1.146,3.364
		c-0.213,0.909-0.46,1.522-0.739,1.841c-0.28,0.319-0.721,0.479-1.319,0.479C921.735,94.071,921.219,93.685,920.919,92.911z"/>
	<path d="M945.655,81.587c0.203,0.145,0.305,0.43,0.305,0.855c0,0.232-0.01,0.416-0.029,0.551c-0.077,0.6-0.318,2.146-0.725,4.64
		c-0.29,1.682-0.474,2.794-0.551,3.335c-0.735,4.988-1.726,8.927-2.973,11.817s-2.914,4.335-5.003,4.335
		c-0.985,0-1.788-0.304-2.406-0.913c-0.619-0.609-0.929-1.407-0.929-2.393c0-1.373,0.541-2.847,1.624-4.423s3.113-3.514,6.09-5.814
		l0.175-1.131c-0.329,0.522-0.76,0.923-1.291,1.204c-0.532,0.28-1.059,0.42-1.58,0.42c-1.199,0-2.156-0.435-2.871-1.305
		c-0.716-0.87-1.073-2.01-1.073-3.422c0-1.546,0.357-3.011,1.073-4.394c0.715-1.382,1.667-2.494,2.856-3.335
		c1.188-0.841,2.45-1.261,3.784-1.261c0.425,0,0.711,0.082,0.855,0.246c0.146,0.165,0.266,0.459,0.362,0.885
		c0.367-0.077,0.793-0.116,1.276-0.116S945.452,81.442,945.655,81.587z M938.638,102.568c0.608-1.16,1.193-3.006,1.754-5.539
		c-1.488,1.276-2.562,2.426-3.219,3.451c-0.657,1.024-0.985,1.923-0.985,2.697c0,0.329,0.062,0.599,0.188,0.812
		c0.125,0.212,0.333,0.319,0.623,0.319C937.482,104.308,938.028,103.728,938.638,102.568z M940.682,90.33
		c0.406-0.541,0.696-1.314,0.87-2.32l0.929-4.959c-0.793,0.02-1.528,0.324-2.204,0.914c-0.678,0.59-1.219,1.368-1.624,2.334
		c-0.406,0.967-0.609,1.991-0.609,3.074c0,0.6,0.121,1.044,0.362,1.334c0.242,0.29,0.575,0.435,1.001,0.435
		C939.851,91.142,940.276,90.872,940.682,90.33z"/>
	<path d="M958.589,94.013c-0.531-0.464-0.797-0.986-0.797-1.566c0-0.502,0.184-0.938,0.551-1.305
		c0.367-0.367,0.908-0.551,1.624-0.551c0.251,0,0.546,0.024,0.885,0.072c0.338,0.049,0.594,0.083,0.769,0.102
		c-0.02-0.502-0.131-0.976-0.334-1.421c-0.203-0.444-0.459-0.875-0.769-1.291c-0.31-0.416-0.6-0.778-0.87-1.087
		c-0.6,1.141-1.193,2.088-1.783,2.842c-0.59,0.754-1.232,1.47-1.929,2.146c-0.348,0.348-0.716,0.522-1.102,0.522
		c-0.31,0-0.562-0.111-0.754-0.333c-0.193-0.222-0.29-0.498-0.29-0.826c0-0.387,0.135-0.744,0.405-1.073l0.377-0.464
		c1.063-1.314,1.866-2.397,2.407-3.248c0.329-0.561,0.715-1.31,1.16-2.248c0.444-0.938,0.88-1.909,1.305-2.915
		c0.367-0.851,1.131-1.276,2.291-1.276c0.541,0,0.918,0.048,1.131,0.145c0.213,0.097,0.319,0.251,0.319,0.464
		c0,0.116-0.039,0.3-0.116,0.551c-0.077,0.251-0.184,0.503-0.318,0.754c-0.349,0.696-0.522,1.286-0.522,1.769
		c0,0.29,0.102,0.609,0.305,0.957c0.203,0.348,0.517,0.783,0.942,1.305c0.618,0.812,1.088,1.503,1.406,2.074
		c0.319,0.57,0.479,1.194,0.479,1.871c0,0.193-0.02,0.464-0.058,0.812c0.947-0.367,2.059-1.344,3.335-2.929
		c0.232-0.271,0.493-0.406,0.783-0.406c0.251,0,0.449,0.116,0.595,0.348c0.145,0.232,0.217,0.551,0.217,0.957
		c0,0.735-0.184,1.334-0.551,1.798c-0.967,1.199-1.89,2.015-2.77,2.45s-1.968,0.672-3.263,0.71
		c-0.773,0.657-1.691,0.986-2.755,0.986C959.889,94.709,959.121,94.477,958.589,94.013z"/>
	<path d="M983.254,85.4c0.135,0.251,0.202,0.57,0.202,0.957c0,0.928-0.28,1.479-0.841,1.653c-1.16,0.406-2.436,0.638-3.828,0.696
		c-0.367,1.624-1.092,2.925-2.175,3.901c-1.083,0.977-2.311,1.464-3.683,1.464c-1.16,0-2.151-0.28-2.973-0.841
		c-0.822-0.561-1.445-1.305-1.87-2.233c-0.426-0.928-0.639-1.933-0.639-3.016c0-1.469,0.28-2.779,0.841-3.93
		c0.561-1.15,1.334-2.049,2.32-2.697s2.078-0.972,3.277-0.972c1.469,0,2.653,0.507,3.552,1.522c0.899,1.015,1.426,2.267,1.581,3.755
		c0.908-0.058,1.991-0.251,3.248-0.58c0.154-0.038,0.29-0.058,0.406-0.058C982.925,85.023,983.118,85.149,983.254,85.4z
		 M974.771,90.243c0.454-0.502,0.759-1.228,0.914-2.175c-0.6-0.406-1.059-0.938-1.378-1.595c-0.318-0.657-0.479-1.353-0.479-2.088
		c0-0.309,0.029-0.619,0.087-0.928h-0.145c-0.773,0-1.417,0.373-1.929,1.117c-0.513,0.745-0.769,1.793-0.769,3.146
		c0,1.063,0.208,1.875,0.624,2.436c0.415,0.561,0.903,0.841,1.464,0.841C973.78,90.997,974.316,90.746,974.771,90.243z"/>
	<path d="M996.332,85.4c0.135,0.251,0.203,0.57,0.203,0.957c0,0.928-0.28,1.479-0.841,1.653c-1.16,0.406-2.437,0.638-3.828,0.696
		c-0.367,1.624-1.093,2.925-2.175,3.901c-1.083,0.977-2.311,1.464-3.684,1.464c-1.16,0-2.15-0.28-2.973-0.841
		c-0.821-0.561-1.445-1.305-1.87-2.233c-0.426-0.928-0.638-1.933-0.638-3.016c0-1.469,0.279-2.779,0.841-3.93
		c0.561-1.15,1.334-2.049,2.32-2.697c0.985-0.648,2.077-0.972,3.276-0.972c1.47,0,2.653,0.507,3.553,1.522s1.426,2.267,1.58,3.755
		c0.909-0.058,1.991-0.251,3.248-0.58c0.155-0.038,0.29-0.058,0.406-0.058C996.003,85.023,996.196,85.149,996.332,85.4z
		 M987.85,90.243c0.454-0.502,0.759-1.228,0.913-2.175c-0.599-0.406-1.059-0.938-1.377-1.595c-0.319-0.657-0.479-1.353-0.479-2.088
		c0-0.309,0.029-0.619,0.087-0.928h-0.146c-0.773,0-1.416,0.373-1.928,1.117c-0.513,0.745-0.769,1.793-0.769,3.146
		c0,1.063,0.207,1.875,0.623,2.436c0.416,0.561,0.903,0.841,1.465,0.841C986.858,90.997,987.396,90.746,987.85,90.243z"/>
	<path d="M994.548,92.911c-0.3-0.773-0.449-2.01-0.449-3.712c0-2.513,0.357-4.901,1.073-7.163c0.174-0.561,0.459-0.971,0.855-1.232
		c0.396-0.261,0.952-0.392,1.667-0.392c0.387,0,0.657,0.049,0.812,0.145c0.154,0.097,0.231,0.281,0.231,0.551
		c0,0.31-0.145,1.005-0.435,2.088c-0.193,0.773-0.348,1.45-0.464,2.03c-0.116,0.58-0.213,1.296-0.29,2.146
		c0.638-1.662,1.353-3.016,2.146-4.06c0.793-1.044,1.571-1.788,2.335-2.233c0.764-0.444,1.465-0.667,2.104-0.667
		c0.617,0,1.086,0.16,1.406,0.479c0.318,0.319,0.479,0.788,0.479,1.407c0,0.503-0.107,1.45-0.32,2.842
		c-0.193,1.18-0.348,2.296-0.463,3.35c-0.117,1.054-0.174,2.229-0.174,3.523c0,0.735-0.15,1.262-0.449,1.581
		c-0.301,0.319-0.789,0.479-1.466,0.479c-0.638,0-1.102-0.164-1.392-0.493c-0.29-0.329-0.436-0.821-0.436-1.479
		c0-0.773,0.136-2.049,0.406-3.828c0.232-1.547,0.348-2.533,0.348-2.958c0-0.309-0.106-0.464-0.318-0.464
		c-0.252,0-0.604,0.324-1.059,0.972c-0.455,0.648-0.919,1.503-1.393,2.566c-0.474,1.063-0.855,2.185-1.146,3.364
		c-0.213,0.909-0.459,1.522-0.739,1.841s-0.721,0.479-1.319,0.479C995.364,94.071,994.848,93.685,994.548,92.911z"/>
	<path d="M1008.149,93.375c-0.436-0.464-0.653-1.073-0.653-1.827c0-0.87,0.247-1.566,0.74-2.088s1.184-0.783,2.073-0.783
		c0.851,0,1.493,0.208,1.929,0.624c0.435,0.416,0.652,1.029,0.652,1.841c0,0.89-0.252,1.6-0.754,2.132
		c-0.503,0.532-1.189,0.797-2.06,0.797C1009.227,94.071,1008.584,93.839,1008.149,93.375z"/>
	<path d="M1015.603,93.375c-0.436-0.464-0.653-1.073-0.653-1.827c0-0.87,0.247-1.566,0.74-2.088s1.184-0.783,2.073-0.783
		c0.851,0,1.493,0.208,1.929,0.624c0.435,0.416,0.652,1.029,0.652,1.841c0,0.89-0.252,1.6-0.754,2.132
		c-0.503,0.532-1.189,0.797-2.06,0.797C1016.68,94.071,1016.037,93.839,1015.603,93.375z"/>
	<path d="M1023.056,93.375c-0.436-0.464-0.653-1.073-0.653-1.827c0-0.87,0.247-1.566,0.74-2.088s1.184-0.783,2.073-0.783
		c0.851,0,1.493,0.208,1.929,0.624c0.435,0.416,0.652,1.029,0.652,1.841c0,0.89-0.252,1.6-0.754,2.132
		c-0.503,0.532-1.189,0.797-2.06,0.797C1024.133,94.071,1023.49,93.839,1023.056,93.375z"/>
</g>
<rect fill="#FFFFFF" width="188" height="61"/>
<polygon fill="#594740" points="56,524 56,499 70,502 "/>
<path d="M129.059,106.335c0,0,14.255,129.665,26.098,139.165c0,0-10.193-3.584-9.299-13.204
	c0.894-9.62-21.367-112.981-21.367-112.981"/>
<path d="M52,115.667c0,0-0.667,97.27-10,122.635c0,0-1,6.365-6,14.032c0,0,7.677-5.117,8-13.835s11.341-70.832,11.341-70.832
	L52,115.667z"/>
<ellipse cx="90.855" cy="113.277" rx="38.855" ry="32.777"/>
<path d="M130,111c0-6.627-5.373-12-12-12H64c-6.627,0-12,5.373-12,12v140c0,6.627,5.373,12,12,12h54c6.627,0,12-5.373,12-12V111z"/>
<path fill="#D0D342" d="M127.667,237.333l-11.132,4.444c0,0-6.609-15.315,2.428-14.713S132.667,227,127.667,237.333z"/>
<path fill="#DEEA44" d="M74.966,259.5l-4.997-17.167c0,0-16.969-4.431-10.303-17.882s61-4.319,61-4.319s-6.452,22.765-3.893,35.316"
	/>
<path fill="#4354D1" d="M127.835,513.371c0,0,7.641,1.24,9.949,12.839s7.956,20.679,7.956,20.679l-9.136,4.829l-11.683-22.102
	l7.653,24.232c0,0-15.547,15.758-22.3,7.263l8.586-10.862l-0.899-31.659L127.835,513.371z"/>
<path fill="#594740" d="M71.131,196.026c2.867,2.753,2.324,8.526-1.214,12.894l0,0c-3.538,4.368-8.73,5.676-11.597,2.923
	l-39.003-44.229c-2.867-2.753-2.404-9.226,1.245-12.624l-2.483,3.879c3.522-4.507,5.037-9.716,7.904-6.962L71.131,196.026z"/>
<path fill="#594740" d="M131.434,207.009c-1.902,2.989-7.221,3.008-11.88,0.042l0,0c-4.659-2.965-6.894-7.792-4.992-10.781
	l31.987-41.286c1.902-2.989,7.836-3.149,11.643,0.013l-4.004-2.006c4.781,2.937,9.789,3.897,7.887,6.885L131.434,207.009z"/>
<ellipse fill="#594740" cx="90.17" cy="139" rx="32.231" ry="41"/>
<path fill="#594740" d="M160.521,78.068c0,0,12.436,55.906,4.562,75.55c0,0-1.261,5.414-8.587,5.518
	c-7.326,0.104-6.203-7.095-6.203-7.095L160.521,78.068z"/>
<path fill="#E89746" d="M84.612,134.451c0,0-2.523-8.826-8.023-9.076s-9.423,2.2-9.423,2.2S81.51,129.027,84.612,134.451z"/>
<path fill="#594740" d="M39.817,85.054c0,0-27.452,50.265-25.335,71.322c0,0-0.29,5.551,6.72,7.683
	c7.009,2.132,7.927-5.097,7.927-5.097L39.817,85.054z"/>
<path fill="#020202" d="M84.791,134.451c0,0-4.736-8.773-12.284-7.049c-7.548,1.724-10.957-3.231-10.957-3.231
	s2.571,5.876,5.781,5.68c0,0-3.587,1.236-5.322-0.63c-1.735-1.866-0.254-0.656-0.254-0.656s2.352,4.923,9.61,3.61
	C78.623,130.861,82.407,132.535,84.791,134.451z"/>
<path fill="#E89746" d="M94.165,134.451c0,0,2.523-8.826,8.023-9.076s9.423,2.2,9.423,2.2S97.267,129.027,94.165,134.451z"/>
<path fill="#020202" d="M94.165,134.451c0,0,4.736-8.773,12.284-7.049c7.548,1.724,10.957-3.231,10.957-3.231
	s-2.571,5.876-5.781,5.68c0,0,3.587,1.236,5.322-0.63c1.734-1.866,0.254-0.656,0.254-0.656s-2.352,4.923-9.61,3.61
	C100.333,130.861,96.549,132.535,94.165,134.451z"/>
<circle fill="#664848" cx="109.414" cy="144.192" r="6.525"/>
<circle fill="#664848" cx="72.414" cy="144.192" r="6.525"/>
<path fill="#423530" d="M78.969,163.699c0,0,6.318-8.81,10.485-5.114l0.032,0.418c0.147-0.135,0.284-0.266,0.456-0.418
	c4.167-3.697,10.498,5.114,10.498,5.114c-4.009,3.981-7.941,4.992-10.007,5.236l0.006,0.063c0,0-0.247,0.02-0.72-0.002
	c-0.473,0.022-0.72,0.002-0.72,0.002v-0.064C87,168.689,82.975,167.676,78.969,163.699z"/>
<path fill="#594740" d="M39.817,86.054c0,0-21.878-12.246-23.378-15.15c-1.5-2.904,3.5-21.404,3.5-21.404s-0.5,14.214,1.167,16.857
	c1.667,2.643-1-4.357,1.833-21.524c-0.129,0.781,3.296,22.433,2.5,21.524C27.605,68.833,26.536,60.5,27.987,53
	s-0.049,8.214,3.118,13.357C34.272,71.5,55.695,76.274,39.817,86.054z"/>
<path fill="#EFD9CE" d="M8.817,141.054"/>
<path fill="#594740" d="M161.668,81.556c0,0,18.545-16.872,19.351-20.04c0.805-3.168-8.245-20.06-8.245-20.06
	s3.699,13.734,2.672,16.685s-0.01-4.47-6.649-20.553c0.302,0.732,1.858,22.598,2.428,21.532c-1.551,2.902-2.392-5.458-5.501-12.436
	s1.903,7.991-0.02,13.716S143.991,75.617,161.668,81.556z"/>
<path fill="#DEEA44" d="M77.142,277.333c0,0-26.11,28.667-28.381,46.667s7.063,74,7.063,74s30.667,99.333,31.333,126
	c0.667,26.667,15.333-10.872,26.667-5.103c11.333,5.77,10.667,6.436,20,9.103s21.333-1.333,21.333-1.333s-44-114-49.333-140.667
	c-5.333-26.667,5.66-38.951,2.667-28c-3.425,12.527-48.667,116.667-67.333,128s13.333,12,15.333,18s1.333,9.794,10.667,14.897
	s16,5.103,16,5.103s65.333-118,68-176c2.667-58-26.667-76.292-26.667-76.292L77.142,277.333z"/>
<path fill="#D0D342" d="M107,354v-28c0,0-9.912,24.276-12,37.805S66.046,432.95,66.046,432.95l3.923,12.028l33.832-71.808
	C103.802,373.17,104,356,107,354z"/>
<path fill="#D0D342" d="M123.398,524l-8.908-46l-27.333,46l-0.328-4.594l36.779-78.581l9.933,28.367L123.157,462l18.695,66.907
	C141.852,528.907,129.406,527.251,123.398,524z"/>
<path fill="#D0D342" d="M57.616,507.881L101.491,425l-30.5,48l1-6.559L48.442,499.5C48.442,499.5,54.79,501.952,57.616,507.881z"/>
<path fill="#4D66E2" d="M63.167,524c0,0,6.176,4.667,2.796,16c-3.38,11.333-2.63,22-2.63,22H53v-25l-4.558,25
	c0,0-21.109,6.667-23.109-4L38,552.409L52,524H63.167z"/>
<polygon fill="#4354D1" points="124.491,271.708 116.774,255.448 74.966,259.5 77.142,277.333 104.134,274.126 "/>
<path fill="#D0D342" d="M115,237.553c0,0-8.667,0.493-11.667,0.858S88,237.873,88,237.873l-5.395-3.178l-5.939-4.347l-6.697,2.66
	l-11.855-1.003l2.552-11.87c0,0,31.667-2.592,33-3.029c1.333-0.437,19.469-0.564,19.734,0S118,223,118,223v5l-1.056,10.302
	L115,237.553z"/>
<polygon fill="#4D66E2" points="114.341,375 131,351.5 105,266.391 "/>
<path fill="#4354D1" d="M107,268.5l24,33.5l-16.659,16C114.341,318,106,277,107,268.5z"/>
<path fill="#DEEA44" d="M66.062,203.167L55.341,224.78l5.353,2.678c0,0,1.973,2.542,3.64,2.542C66,230,70,230,70,230l4.966-5.549
	c0,0,5.777-0.882,5.739,0c-0.038,0.882,11.628,9.215,12.628,9.549s5.79-0.667,6.395,0c0.605,0.667,6.271,1.14,7.271,0.07
	s3.333-3.07,3.333-3.07s0.333-3.667,5-3.667c4.667,0,5.981-1.333,9.157,0.333c3.176,1.667-0.491,1,3.176,1.667c3.667,0.667,0,8,0,8
	l7-2l-10.176-32.167c0,0-29.157-2.167-34.491,2.167C90,205.333,70.79,201.333,66.062,203.167z"/>
<path fill="#594740" d="M131,198c0,4.418-3.582,8-8,8H60c-4.418,0-8-3.582-8-8l0,0c0-4.418,3.582-8,8-8h63
	C127.418,190,131,193.582,131,198L131,198z"/>
<polygon fill="#594740" points="88,177 95,177 105,197 78,197 "/>
<path d="M88.057,109.667c0,0-16.828,9.084-29.943,10.876C45,122.333,68.448,83,88.057,90s34.924,22.631,36.433,29.315
	C126,126,95.448,115.333,88.057,108.667"/>
<g>
	<rect x="9.628" y="10.667" fill="none" width="178.372" height="200"/>
	<path d="M16.762,36.81c-1.701-0.841-3.006-2.034-3.915-3.582c-0.909-1.546-1.363-3.344-1.363-5.394
		c0-2.842,0.537-5.365,1.609-7.569c1.073-2.204,2.528-3.91,4.365-5.118c1.836-1.208,3.876-1.812,6.119-1.812
		c2.088,0,3.673,0.536,4.756,1.609c1.083,1.073,1.624,2.489,1.624,4.249c0,1.179-0.208,2.127-0.624,2.842
		c-0.416,0.715-1.011,1.073-1.784,1.073c-0.542,0-0.967-0.125-1.276-0.377c-0.31-0.251-0.464-0.619-0.464-1.102
		c0-0.174,0.039-0.493,0.116-0.957c0.116-0.58,0.174-1.044,0.174-1.392c0-1.759-0.938-2.639-2.813-2.639
		c-1.276,0-2.494,0.416-3.654,1.247c-1.16,0.832-2.098,2.055-2.813,3.668c-0.715,1.615-1.073,3.534-1.073,5.757
		c0,2.32,0.647,4.113,1.943,5.379c1.295,1.267,3.209,1.899,5.742,1.899c1.256,0,2.527-0.16,3.813-0.479
		c1.285-0.319,2.711-0.807,4.277-1.464c0.29-0.116,0.532-0.174,0.725-0.174c0.309,0,0.541,0.116,0.696,0.348
		s0.232,0.532,0.232,0.899c0,1.18-0.638,2.05-1.914,2.61c-1.373,0.6-2.798,1.04-4.277,1.32c-1.479,0.28-2.885,0.42-4.219,0.42
		C20.464,38.071,18.463,37.651,16.762,36.81z"/>
	<path d="M45.994,29.4c0.135,0.251,0.203,0.57,0.203,0.957c0,0.928-0.28,1.479-0.841,1.653c-1.16,0.406-2.436,0.638-3.828,0.696
		c-0.367,1.624-1.092,2.925-2.175,3.901c-1.083,0.977-2.311,1.464-3.683,1.464c-1.16,0-2.151-0.28-2.973-0.841
		s-1.445-1.305-1.87-2.233c-0.426-0.928-0.638-1.933-0.638-3.016c0-1.469,0.28-2.779,0.841-3.93c0.561-1.15,1.334-2.049,2.32-2.697
		c0.986-0.648,2.078-0.972,3.277-0.972c1.469,0,2.653,0.507,3.552,1.522c0.899,1.015,1.426,2.267,1.581,3.755
		c0.909-0.058,1.991-0.251,3.248-0.58c0.155-0.038,0.29-0.058,0.406-0.058C45.665,29.023,45.858,29.149,45.994,29.4z M37.511,34.243
		c0.454-0.502,0.759-1.228,0.914-2.175c-0.599-0.406-1.059-0.938-1.377-1.595c-0.319-0.657-0.479-1.353-0.479-2.088
		c0-0.309,0.029-0.619,0.087-0.928H36.51c-0.773,0-1.417,0.373-1.928,1.117c-0.513,0.745-0.769,1.793-0.769,3.146
		c0,1.063,0.208,1.875,0.624,2.436c0.416,0.561,0.903,0.841,1.464,0.841C36.52,34.997,37.057,34.746,37.511,34.243z"/>
	<path d="M44.209,36.911c-0.3-0.773-0.449-2.01-0.449-3.712c0-2.513,0.357-4.901,1.073-7.163c0.174-0.561,0.459-0.971,0.855-1.232
		c0.396-0.261,0.952-0.392,1.667-0.392c0.387,0,0.657,0.049,0.812,0.145c0.155,0.097,0.232,0.281,0.232,0.551
		c0,0.31-0.145,1.005-0.435,2.088c-0.193,0.773-0.348,1.445-0.464,2.016c-0.116,0.57-0.213,1.281-0.29,2.131
		c0.522-1.508,1.146-2.784,1.871-3.828s1.469-1.822,2.233-2.334c0.764-0.512,1.483-0.769,2.161-0.769
		c0.676,0,1.155,0.155,1.436,0.464c0.28,0.309,0.42,0.783,0.42,1.421c0,0.619-0.184,1.74-0.551,3.364
		c-0.155,0.696-0.261,1.218-0.319,1.566c0.967-2.378,2.04-4.108,3.219-5.191c1.179-1.083,2.281-1.624,3.306-1.624
		c1.257,0,1.885,0.628,1.885,1.885c0,0.754-0.213,2.117-0.638,4.089c-0.367,1.682-0.551,2.794-0.551,3.335
		c0,0.773,0.28,1.16,0.841,1.16c0.387,0,0.846-0.237,1.377-0.71s1.242-1.242,2.132-2.306c0.232-0.271,0.493-0.406,0.783-0.406
		c0.251,0,0.45,0.116,0.595,0.348s0.217,0.551,0.217,0.957c0,0.773-0.184,1.373-0.551,1.798c-0.832,1.025-1.726,1.866-2.683,2.523
		s-2.044,0.986-3.263,0.986c-0.986,0-1.73-0.285-2.233-0.855c-0.503-0.57-0.754-1.396-0.754-2.479c0-0.541,0.135-1.508,0.406-2.9
		c0.251-1.218,0.377-2.059,0.377-2.523c0-0.309-0.106-0.464-0.319-0.464c-0.251,0-0.609,0.324-1.073,0.972
		c-0.464,0.648-0.928,1.503-1.392,2.566c-0.464,1.063-0.841,2.185-1.131,3.364c-0.213,0.928-0.459,1.547-0.74,1.856
		c-0.28,0.31-0.73,0.464-1.349,0.464c-0.638,0-1.116-0.305-1.435-0.914c-0.319-0.609-0.479-1.349-0.479-2.218
		c0-0.735,0.096-1.798,0.29-3.19c0.154-1.237,0.232-2.049,0.232-2.436c0-0.309-0.106-0.464-0.319-0.464
		c-0.29,0-0.657,0.348-1.102,1.044c-0.445,0.696-0.875,1.585-1.29,2.668c-0.416,1.083-0.75,2.146-1.001,3.19
		c-0.213,0.909-0.459,1.522-0.739,1.841c-0.28,0.319-0.721,0.479-1.319,0.479C45.026,38.071,44.509,37.685,44.209,36.911z"/>
	<path d="M66.104,36.737c-0.57-0.889-0.855-2.068-0.855-3.538c0-0.87,0.111-1.986,0.333-3.35c0.222-1.363,0.508-2.634,0.855-3.813
		c0.174-0.618,0.406-1.044,0.696-1.276s0.754-0.348,1.392-0.348c0.986,0,1.479,0.329,1.479,0.986c0,0.483-0.184,1.605-0.551,3.364
		c-0.464,2.127-0.696,3.567-0.696,4.321c0,0.58,0.077,1.025,0.232,1.334c0.154,0.309,0.416,0.464,0.783,0.464
		c0.348,0,0.783-0.242,1.305-0.725c0.522-0.483,1.218-1.247,2.088-2.291c0.232-0.271,0.493-0.406,0.783-0.406
		c0.251,0,0.45,0.116,0.595,0.348s0.217,0.551,0.217,0.957c0,0.773-0.184,1.373-0.551,1.798c-1.914,2.339-3.703,3.509-5.365,3.509
		C67.588,38.071,66.674,37.627,66.104,36.737z M67.25,21.933c-0.406-0.377-0.609-0.903-0.609-1.581c0-0.676,0.266-1.242,0.798-1.696
		c0.531-0.454,1.193-0.682,1.986-0.682c0.715,0,1.295,0.174,1.74,0.522c0.445,0.348,0.667,0.841,0.667,1.479
		c0,0.773-0.251,1.388-0.754,1.842c-0.503,0.455-1.17,0.681-2.001,0.681C68.265,22.498,67.656,22.31,67.25,21.933z"/>
	<path d="M72.919,36.911c-0.3-0.773-0.449-2.01-0.449-3.712c0-2.513,0.357-4.901,1.073-7.163c0.174-0.561,0.459-0.971,0.855-1.232
		c0.396-0.261,0.952-0.392,1.667-0.392c0.387,0,0.657,0.049,0.812,0.145c0.155,0.097,0.232,0.281,0.232,0.551
		c0,0.31-0.145,1.005-0.435,2.088c-0.193,0.773-0.348,1.45-0.464,2.03c-0.116,0.58-0.213,1.296-0.29,2.146
		c0.638-1.662,1.353-3.016,2.146-4.06c0.792-1.044,1.571-1.788,2.334-2.233c0.764-0.444,1.465-0.667,2.103-0.667
		c1.257,0,1.885,0.628,1.885,1.885c0,0.754-0.213,2.117-0.638,4.089c-0.368,1.682-0.551,2.794-0.551,3.335
		c0,0.773,0.28,1.16,0.841,1.16c0.387,0,0.846-0.237,1.377-0.71s1.242-1.242,2.131-2.306c0.232-0.271,0.493-0.406,0.783-0.406
		c0.251,0,0.45,0.116,0.595,0.348s0.217,0.551,0.217,0.957c0,0.773-0.184,1.373-0.551,1.798c-0.832,1.025-1.726,1.866-2.683,2.523
		s-2.044,0.986-3.263,0.986c-0.986,0-1.73-0.285-2.233-0.855c-0.503-0.57-0.754-1.396-0.754-2.479c0-0.541,0.135-1.508,0.406-2.9
		c0.251-1.218,0.377-2.059,0.377-2.523c0-0.309-0.106-0.464-0.319-0.464c-0.251,0-0.604,0.324-1.059,0.972
		c-0.455,0.648-0.918,1.503-1.392,2.566c-0.474,1.063-0.855,2.185-1.146,3.364c-0.213,0.909-0.459,1.522-0.739,1.841
		c-0.28,0.319-0.721,0.479-1.319,0.479C73.735,38.071,73.219,37.685,72.919,36.911z"/>
	<path d="M97.656,25.587c0.203,0.145,0.305,0.43,0.305,0.855c0,0.232-0.01,0.416-0.029,0.551c-0.077,0.6-0.319,2.146-0.725,4.64
		c-0.29,1.682-0.474,2.794-0.551,3.335c-0.735,4.988-1.726,8.927-2.973,11.817c-1.247,2.89-2.914,4.335-5.002,4.335
		c-0.986,0-1.789-0.304-2.407-0.913c-0.619-0.609-0.928-1.407-0.928-2.393c0-1.373,0.541-2.847,1.624-4.423
		c1.083-1.576,3.113-3.514,6.09-5.814l0.174-1.131c-0.329,0.522-0.759,0.923-1.291,1.204c-0.532,0.28-1.059,0.42-1.581,0.42
		c-1.199,0-2.156-0.435-2.871-1.305c-0.715-0.87-1.073-2.01-1.073-3.422c0-1.546,0.357-3.011,1.073-4.394
		c0.715-1.382,1.667-2.494,2.856-3.335s2.451-1.261,3.785-1.261c0.425,0,0.71,0.082,0.855,0.246
		c0.145,0.165,0.266,0.459,0.362,0.885c0.367-0.077,0.793-0.116,1.276-0.116C97.109,25.369,97.453,25.442,97.656,25.587z
		 M90.638,46.568c0.609-1.16,1.194-3.006,1.754-5.539c-1.489,1.276-2.562,2.426-3.219,3.451c-0.658,1.024-0.986,1.923-0.986,2.697
		c0,0.329,0.062,0.599,0.188,0.812c0.125,0.212,0.333,0.319,0.624,0.319C89.482,48.308,90.029,47.728,90.638,46.568z M92.682,34.33
		c0.406-0.541,0.696-1.314,0.87-2.32l0.928-4.959c-0.793,0.02-1.528,0.324-2.204,0.914c-0.677,0.59-1.218,1.368-1.624,2.334
		c-0.406,0.967-0.609,1.991-0.609,3.074c0,0.6,0.121,1.044,0.362,1.334c0.242,0.29,0.575,0.435,1,0.435
		C91.851,35.142,92.276,34.872,92.682,34.33z"/>
	<path d="M110.589,38.013c-0.532-0.464-0.797-0.986-0.797-1.566c0-0.502,0.184-0.938,0.551-1.305
		c0.367-0.367,0.909-0.551,1.624-0.551c0.251,0,0.546,0.024,0.885,0.072c0.338,0.049,0.594,0.083,0.769,0.102
		c-0.02-0.502-0.131-0.976-0.333-1.421c-0.203-0.444-0.459-0.875-0.769-1.291c-0.31-0.416-0.6-0.778-0.87-1.087
		c-0.6,1.141-1.194,2.088-1.784,2.842c-0.59,0.754-1.232,1.47-1.928,2.146c-0.348,0.348-0.716,0.522-1.102,0.522
		c-0.31,0-0.561-0.111-0.754-0.333c-0.193-0.222-0.29-0.498-0.29-0.826c0-0.387,0.135-0.744,0.406-1.073l0.377-0.464
		c1.063-1.314,1.866-2.397,2.407-3.248c0.329-0.561,0.715-1.31,1.16-2.248c0.445-0.938,0.88-1.909,1.305-2.915
		c0.367-0.851,1.131-1.276,2.291-1.276c0.541,0,0.918,0.048,1.131,0.145c0.213,0.097,0.319,0.251,0.319,0.464
		c0,0.116-0.039,0.3-0.116,0.551c-0.078,0.251-0.184,0.503-0.319,0.754c-0.348,0.696-0.522,1.286-0.522,1.769
		c0,0.29,0.102,0.609,0.304,0.957c0.203,0.348,0.517,0.783,0.943,1.305c0.618,0.812,1.087,1.503,1.406,2.074
		s0.479,1.194,0.479,1.871c0,0.193-0.02,0.464-0.058,0.812c0.947-0.367,2.059-1.344,3.335-2.929
		c0.232-0.271,0.493-0.406,0.783-0.406c0.251,0,0.45,0.116,0.595,0.348c0.145,0.232,0.217,0.551,0.217,0.957
		c0,0.735-0.184,1.334-0.551,1.798c-0.967,1.199-1.89,2.015-2.77,2.45c-0.88,0.435-1.968,0.672-3.263,0.71
		c-0.773,0.657-1.692,0.986-2.755,0.986C111.889,38.709,111.121,38.477,110.589,38.013z"/>
	<path d="M135.254,29.4c0.135,0.251,0.203,0.57,0.203,0.957c0,0.928-0.28,1.479-0.841,1.653c-1.16,0.406-2.436,0.638-3.828,0.696
		c-0.367,1.624-1.092,2.925-2.175,3.901c-1.083,0.977-2.311,1.464-3.683,1.464c-1.16,0-2.151-0.28-2.973-0.841
		s-1.445-1.305-1.87-2.233c-0.426-0.928-0.638-1.933-0.638-3.016c0-1.469,0.28-2.779,0.841-3.93c0.561-1.15,1.334-2.049,2.32-2.697
		c0.986-0.648,2.078-0.972,3.277-0.972c1.469,0,2.653,0.507,3.552,1.522c0.899,1.015,1.426,2.267,1.581,3.755
		c0.909-0.058,1.991-0.251,3.248-0.58c0.155-0.038,0.29-0.058,0.406-0.058C134.925,29.023,135.118,29.149,135.254,29.4z
		 M126.771,34.243c0.454-0.502,0.759-1.228,0.914-2.175c-0.599-0.406-1.059-0.938-1.377-1.595c-0.319-0.657-0.479-1.353-0.479-2.088
		c0-0.309,0.029-0.619,0.087-0.928h-0.145c-0.773,0-1.417,0.373-1.928,1.117c-0.513,0.745-0.769,1.793-0.769,3.146
		c0,1.063,0.208,1.875,0.624,2.436c0.416,0.561,0.903,0.841,1.464,0.841C125.78,34.997,126.317,34.746,126.771,34.243z"/>
	<path d="M148.333,29.4c0.135,0.251,0.203,0.57,0.203,0.957c0,0.928-0.28,1.479-0.841,1.653c-1.16,0.406-2.436,0.638-3.828,0.696
		c-0.367,1.624-1.092,2.925-2.175,3.901c-1.083,0.977-2.311,1.464-3.683,1.464c-1.16,0-2.151-0.28-2.973-0.841
		s-1.445-1.305-1.87-2.233c-0.426-0.928-0.638-1.933-0.638-3.016c0-1.469,0.28-2.779,0.841-3.93c0.561-1.15,1.334-2.049,2.32-2.697
		c0.986-0.648,2.078-0.972,3.277-0.972c1.469,0,2.653,0.507,3.552,1.522c0.899,1.015,1.426,2.267,1.581,3.755
		c0.909-0.058,1.991-0.251,3.248-0.58c0.155-0.038,0.29-0.058,0.406-0.058C148.003,29.023,148.197,29.149,148.333,29.4z
		 M139.85,34.243c0.454-0.502,0.759-1.228,0.914-2.175c-0.599-0.406-1.059-0.938-1.377-1.595c-0.319-0.657-0.479-1.353-0.479-2.088
		c0-0.309,0.029-0.619,0.087-0.928h-0.145c-0.773,0-1.417,0.373-1.928,1.117c-0.513,0.745-0.769,1.793-0.769,3.146
		c0,1.063,0.208,1.875,0.624,2.436c0.416,0.561,0.903,0.841,1.464,0.841C138.859,34.997,139.396,34.746,139.85,34.243z"/>
	<path d="M146.548,36.911c-0.3-0.773-0.449-2.01-0.449-3.712c0-2.513,0.357-4.901,1.073-7.163c0.174-0.561,0.459-0.971,0.855-1.232
		c0.396-0.261,0.952-0.392,1.667-0.392c0.387,0,0.657,0.049,0.812,0.145c0.155,0.097,0.232,0.281,0.232,0.551
		c0,0.31-0.145,1.005-0.435,2.088c-0.193,0.773-0.348,1.45-0.464,2.03c-0.116,0.58-0.213,1.296-0.29,2.146
		c0.638-1.662,1.353-3.016,2.146-4.06c0.792-1.044,1.571-1.788,2.334-2.233c0.764-0.444,1.465-0.667,2.104-0.667
		c0.617,0,1.086,0.16,1.406,0.479c0.318,0.319,0.479,0.788,0.479,1.407c0,0.503-0.107,1.45-0.32,2.842
		c-0.193,1.18-0.348,2.296-0.463,3.35c-0.117,1.054-0.174,2.229-0.174,3.523c0,0.735-0.15,1.262-0.449,1.581
		c-0.301,0.319-0.789,0.479-1.465,0.479c-0.638,0-1.102-0.164-1.392-0.493c-0.29-0.329-0.435-0.821-0.435-1.479
		c0-0.773,0.135-2.049,0.406-3.828c0.232-1.547,0.348-2.533,0.348-2.958c0-0.309-0.106-0.464-0.319-0.464
		c-0.251,0-0.604,0.324-1.059,0.972c-0.455,0.648-0.918,1.503-1.392,2.566c-0.474,1.063-0.855,2.185-1.146,3.364
		c-0.213,0.909-0.459,1.522-0.739,1.841c-0.28,0.319-0.721,0.479-1.319,0.479C147.365,38.071,146.848,37.685,146.548,36.911z"/>
	<path d="M160.149,37.375c-0.436-0.464-0.653-1.073-0.653-1.827c0-0.87,0.247-1.566,0.74-2.088s1.184-0.783,2.073-0.783
		c0.851,0,1.493,0.208,1.929,0.624c0.435,0.416,0.652,1.029,0.652,1.841c0,0.89-0.252,1.6-0.754,2.132
		c-0.503,0.532-1.189,0.797-2.06,0.797C161.227,38.071,160.584,37.839,160.149,37.375z"/>
	<path d="M167.603,37.375c-0.436-0.464-0.653-1.073-0.653-1.827c0-0.87,0.247-1.566,0.74-2.088s1.184-0.783,2.073-0.783
		c0.851,0,1.493,0.208,1.929,0.624c0.435,0.416,0.652,1.029,0.652,1.841c0,0.89-0.252,1.6-0.754,2.132
		c-0.503,0.532-1.189,0.797-2.06,0.797C168.68,38.071,168.037,37.839,167.603,37.375z"/>
	<path d="M175.056,37.375c-0.436-0.464-0.653-1.073-0.653-1.827c0-0.87,0.247-1.566,0.74-2.088s1.184-0.783,2.073-0.783
		c0.851,0,1.493,0.208,1.929,0.624c0.435,0.416,0.652,1.029,0.652,1.841c0,0.89-0.252,1.6-0.754,2.132
		c-0.503,0.532-1.189,0.797-2.06,0.797C176.133,38.071,175.49,37.839,175.056,37.375z"/>
</g>
<g>
</g>
<g>
</g>
<g>
</g>
<g>
</g>
<g>
</g>
<g>
</g>
<g>
</g>
<g>
</g>
<g>
</g>
<g>
</g>
<g>
</g>
<g>
</g>
<g>
</g>
<g>
</g>
<g>
</g>
</svg>
