<?xml version="1.0" encoding="utf-8"?>
<!-- Generator: Adobe Illustrator 17.0.0, SVG Export Plug-In . SVG Version: 6.00 Build 0)  -->
<!DOCTYPE svg PUBLIC "-//W3C//DTD SVG 1.1//EN" "http://www.w3.org/Graphics/SVG/1.1/DTD/svg11.dtd">
<svg version="1.1" id="Laag_1" xmlns="http://www.w3.org/2000/svg" xmlns:xlink="http://www.w3.org/1999/xlink" x="0px" y="0px"
	 width="231.317px" height="493.667px" viewBox="0 0 231.317 493.667" enable-background="new 0 0 231.317 493.667"
	 xml:space="preserve">
<g>
	<ellipse fill="#512C11" cx="131.926" cy="33.66" rx="30.647" ry="33.66"/>
	<path fill="#EFD9CE" d="M110.143,304.033l27.664,40.407c0,0-6.675,13.897,4.162,77.779l0.428,27.294
		c0,0,19.539-98.42,17.313-110.224c-2.226-11.804-13.163-43.817-13.163-43.817L110.143,304.033z"/>
	<path fill="#D6563C" d="M143.345,450.564c0,0-9.39-9.796-16.719,1.498s-16.26,20.991-16.26,20.991l1.843,2.051l18.259-17.083
		l-12.912,23.033c0,0,7.85,6.491,14.256,5.389l-0.864-7.694l-3.28-1.405L143.345,450.564z"/>
	<path fill="#EFD9CE" d="M174.165,132.324c-3.487-0.627-7.105,3.272-8.083,8.707l0,0c-0.977,5.436,1.057,10.35,4.544,10.977
		l52.037,4.46c3.487,0.627,7.626-3.628,7.882-8.57l-1.239,4.304c1.081-5.506,3.769-9.839,0.282-10.466L174.165,132.324z"/>
	<path fill="#D6563C" d="M161.297,124.049c-6.971-1.835-13.988,1.869-15.674,8.273l-0.174,0.663
		c-1.685,6.404,2.599,13.082,9.57,14.917l12.261,3.227c6.971,1.835,13.988-1.869,15.674-8.273l0.174-0.663
		c1.685-6.404-2.599-13.082-9.57-14.917L161.297,124.049z"/>
	<path fill="#EFD9CE" d="M96.551,143.917c2.485-2.524,1.31-7.712-2.626-11.587l0,0c-3.936-3.875-9.141-4.969-11.626-2.445
		l-33.053,40.438c-2.485,2.524-1.31,8.343,2.626,11.343l-2.853-3.452c3.936,4,5.994,8.665,8.48,6.14L96.551,143.917z"/>
	<circle fill="#1D1D1B" cx="132.022" cy="62" r="39.667"/>
	<path fill="#EB6542" d="M142.281,101.667c-1.869,0-3.546,1.197-4.716,3.093c-1.17-1.897-2.847-3.093-4.716-3.093
		c-1.696,0-3.234,0.986-4.379,2.585c-1.145-1.599-2.683-2.585-4.379-2.585c-3.535,0-6.401,4.253-6.401,9.5l2.695,18
		c0,5.247,2.866,9.5,6.401,9.5c1.261,0,2.089-0.549,2.639-1.484c0.991,0.935,2.164,1.484,3.425,1.484
		c1.454,0,2.791-0.728,3.866-1.941c0.538,1.213,1.417,1.941,2.871,1.941c3.535,0,6.401-4.253,6.401-9.5l2.695-18
		C148.681,105.92,145.816,101.667,142.281,101.667z"/>
	<ellipse fill="#EFD9CE" cx="133.458" cy="70.667" rx="32.231" ry="41"/>
	<path fill="#EB6542" d="M79.689,132.667c0,6.627,4.193,12,9.365,12h59.313c5.172,0,7.822-3.623,7.822-10.25l1.544-1.75
		c0-6.627,4.956-10.285-9.365-12H89.054C83.882,120.667,79.689,126.039,79.689,132.667L79.689,132.667z"/>
	<path fill="#EB6542" d="M157.72,123.579c0,0,25.775,28.872,1.969,46.958c-39,29.629-25.625,52.004-25.625,52.004
		s15.292,36.125,16.625,84.125h-93c0,0-37.258-88.449-5-104.333c44-21.667,60.234-24.222,32.278-59.725
		C60.689,111.776,157.72,123.579,157.72,123.579z"/>
	<path fill="#1D1D1B" d="M169.689,20.667c0-6.627-5.373-12-12-12L139.022,15c-7.306,3.353-12.333,8.039-12.333,14.667v-3
		c0,6.627,4.259,9.163,12,12l19,5c6.627,0,12-5.373,12-12V20.667z"/>
	<path fill="#1D1D1B" d="M96.689,23.267c0-7.511,5.373-13.6,12-13.6l18.667,7.178c7.306,3.8,12.333,3.444,12.333,10.956v-3.4
		c0,7.511-4.259,10.385-12,13.6l-19,5.667c-6.627,0-12-6.089-12-13.6V23.267z"/>
	<path fill="#1D1D1B" d="M98.708,170.856c0,0,36.222,13.854,45.101,14.332c0,0-8.852,11.557-10.352,18.186
		c0,0-46.312-9.811-50.04-16.259C83.417,187.115,99.133,176.45,98.708,170.856z"/>
	<path fill="#EFD9CE" d="M57.689,306.667l17.679,45.667c0,0-5.258,29.333,2.996,78l7.418,25.333c0,0,11.551-91.333,12.087-103.333
		s-2.782-45.667-2.782-45.667H57.689z"/>
	<path fill="#EB6542" d="M85.251,454.106c0,0-13.562,0.436-10.062,13.436s4.743,26.125,4.743,26.125h2.757l-0.5-25l8.5,25
		c0,0,10.075-1.5,13.538-7l-6.3-4.5l-3.238,1.5L85.251,454.106z"/>
	<path fill="#EFD9CE" d="M97.927,481l-12.675-26.894l9.438,29.561C94.689,483.667,97.498,485.333,97.927,481z"/>
	<polygon fill="#EFD9CE" points="130.948,478.749 143.345,450.564 127.668,477.343 	"/>
	<path fill="#F2E2DA" d="M12.762,116.548c0,0,16.895,54.724,33.467,67.887c0,0,3.777,4.078,10.192,0.539
		c6.415-3.539,1.873-9.236,1.873-9.236L12.762,116.548z"/>
	<path fill="#44D7EA" d="M139.016,66.117c0,0,2.523-8.826,8.023-9.076s9.423,2.2,9.423,2.2S142.117,60.693,139.016,66.117z"/>
	<path fill="#F2E2DA" d="M205.811,76.72c0,0,27.452,50.265,25.335,71.322c0,0,0.29,5.551-6.72,7.683
		c-7.009,2.132-7.927-5.097-7.927-5.097L205.811,76.72z"/>
	<path fill="#020202" d="M138.837,66.117c0,0,4.736-8.773,12.284-7.049c7.548,1.724,10.957-3.231,10.957-3.231
		s-2.571,5.876-5.781,5.68c0,0,3.587,1.236,5.322-0.63c1.734-1.866,0.254-0.656,0.254-0.656s-2.352,4.923-9.61,3.61
		S141.221,64.201,138.837,66.117z"/>
	<path fill="#44D7EA" d="M129.462,66.117c0,0-2.523-8.826-8.023-9.076s-9.423,2.2-9.423,2.2S126.361,60.693,129.462,66.117z"/>
	<path fill="#020202" d="M129.462,66.117c0,0-4.736-8.773-12.284-7.049c-7.548,1.724-10.957-3.231-10.957-3.231
		s2.571,5.876,5.781,5.68c0,0-3.587,1.236-5.322-0.63c-1.734-1.866-0.254-0.656-0.254-0.656s2.352,4.923,9.61,3.61
		S127.079,64.201,129.462,66.117z"/>
	<circle fill="#EDCECE" cx="114.214" cy="75.858" r="6.525"/>
	<circle fill="#EDCECE" cx="151.214" cy="75.858" r="6.525"/>
	<path fill="#EB6542" d="M144.689,95.365c0,0-6.333-8.81-10.5-5.114l-0.04,0.418c-0.147-0.135-0.288-0.266-0.46-0.418
		c-4.167-3.697-10.5,5.114-10.5,5.114c4.009,3.981,7.94,4.992,10.006,5.236l-0.006,0.063c0,0,0.277,0.02,0.75-0.002
		c0.473,0.022,0.75,0.002,0.75,0.002V100.6C136.757,100.356,140.683,99.342,144.689,95.365z"/>
	<path fill="#EB6542" d="M92.922,148.023c3.278-3.551,2.501-9.6-1.736-13.511l-0.438-0.405c-4.237-3.911-10.329-4.204-13.607-0.653
		l-5.766,6.245c-3.278,3.551-2.501,9.6,1.736,13.511l0.438,0.405c4.237,3.911,10.329,4.203,13.607,0.653L92.922,148.023z"/>
	<path fill="#F2E2DA" d="M82.148,307.667c0,0,11.668,46.817,7.271,65.325c-4.397,18.508-4.168,81.364-4.168,81.364
		s13.088-98.657,12.603-108.744s-2.768-37.945-2.768-37.945H82.148z"/>
	<path fill="#F2E2DA" d="M135.015,306.667c0,0,20.175,23.5,15.675,45s-7.724,94.956-7.724,94.956s23.838-98.486,14.781-115.471
		c-9.057-16.985-7.057-24.485-7.057-24.485H135.015z"/>
	<path fill="#D6563C" d="M90.689,150l7.238-8.667c0,0,9.504,24.182,6.3,31.591l-5.518-2.068C98.708,170.856,100.689,158,90.689,150z
		"/>
	<path fill="#D6563C" d="M101.227,153.333c0,0-1.538,16,21.129,15.667c0,0,6.333-0.104,9.333-4.552c0,0-2.925,15.067-27.462,8.476"
		/>
	<path fill="#D6563C" d="M90.008,191.261c0,0-30.819,12.929-34.819,21.167c-4,8.238,20.137,21.96,34.819,23.099
		c0,0-36.311,2.861-42.065,0l21.404,71.139H57.689c0,0-33.119-73.355-11.059-99.678l36.788-19.874L90.008,191.261z"/>
	<g>
		
			<rect x="7.074" y="73.396" transform="matrix(0.9064 -0.4223 0.4223 0.9064 -34.0876 13.3597)" fill="#1D1D1B" width="12.073" height="20.446"/>
		
			<rect x="12.129" y="72.811" transform="matrix(-0.9064 0.4223 -0.4223 -0.9064 62.4586 152.2307)" fill="#424242" width="4.479" height="20.446"/>
		
			<rect x="3.291" y="69.295" transform="matrix(-0.9064 0.4223 -0.4223 -0.9064 45.0127 133.9246)" fill="#A5A4A4" width="8.762" height="5.306"/>
		
			<rect x="7.574" y="68.848" transform="matrix(-0.9064 0.4223 -0.4223 -0.9064 46.6535 132.6668)" fill="#CCCBCB" width="2.118" height="5.306"/>
		<g>
			<polygon fill="#EB6542" points="0,62.338 3.927,70.766 6.663,69.492 1.996,59.475 			"/>
			<polygon fill="#EB6542" points="3.215,57.725 3.353,57.661 8.472,68.649 9.398,68.217 3.991,56.612 			"/>
			<line fill="#F39F8D" x1="1.996" y1="59.475" x2="3.215" y2="57.725"/>
			<polygon fill="#F39F8D" points="3.215,57.725 1.996,59.475 6.663,69.492 8.472,68.649 3.353,57.661 			"/>
		</g>
	</g>
	<path fill="#EFD9CE" d="M205.811,77.72c0,0,21.878-12.246,23.378-15.15c1.5-2.904-3.5-21.404-3.5-21.404s0.5,14.214-1.167,16.857
		s1-4.357-1.833-21.524c0.129,0.781-3.296,22.433-2.5,21.524c-2.167,2.476-1.097-5.857-2.549-13.357
		c-1.451-7.5,0.049,8.214-3.118,13.357S189.933,67.94,205.811,77.72z"/>
	<g>
		<ellipse fill="#424242" cx="208.399" cy="67.803" rx="13.959" ry="4.613"/>
		<rect x="194.689" y="61.667" fill="#424242" width="28" height="6"/>
		<ellipse fill="#1D1D1B" cx="208.498" cy="61.92" rx="14.058" ry="6.707"/>
		<ellipse fill="#EB6542" cx="208.365" cy="61.549" rx="9.936" ry="4.741"/>
		<path fill="#F39F8D" d="M208.365,66.29c5.488,0,9.936-2.123,9.936-4.741c0-2.618-4.449-4.741-9.936-4.741"/>
		<g>
			<circle fill="#1D1D1B" cx="209.003" cy="43.256" r="12.518"/>
			<path fill="#424242" d="M209.003,55.774c6.913,0,12.518-5.604,12.518-12.518s-5.604-12.518-12.518-12.518"/>
			<circle fill="#B6CCDD" cx="209.11" cy="43.202" r="9.007"/>
			<path fill="#D3E7F4" d="M212.28,34.777l-10.8,13.196c0,0,1.781,2.383,3.09,3.009l10.37-14.644
				C214.94,36.338,212.866,34.982,212.28,34.777z"/>
		</g>
	</g>
	<path fill="#EFD9CE" d="M205.811,77.72"/>
	<path fill="#EFD9CE" d="M10.761,117.46c0,0-8.258-23.673-7.456-26.841c0.803-3.168,16.812-13.702,16.812-13.702
		S10.318,87.225,9.813,90.309s2.14-3.925,15.643-14.897c-0.614,0.499-12.407,18.978-12.399,17.77
		c-0.02,3.29,4.705-3.657,10.764-8.309c6.059-4.652-5.483,6.117-6.522,12.066C16.26,102.889,29.131,120.666,10.761,117.46z"/>
</g>
<g>
</g>
<g>
</g>
<g>
</g>
<g>
</g>
<g>
</g>
<g>
</g>
<g>
</g>
<g>
</g>
<g>
</g>
<g>
</g>
<g>
</g>
<g>
</g>
<g>
</g>
<g>
</g>
<g>
</g>
</svg>
